<?xml version="1.0" encoding="utf-8" standalone="no"?>
<!DOCTYPE svg PUBLIC "-//W3C//DTD SVG 1.1//EN"
  "http://www.w3.org/Graphics/SVG/1.1/DTD/svg11.dtd">
<svg xmlns:xlink="http://www.w3.org/1999/xlink" width="856.815625pt" height="712.543187pt" viewBox="0 0 856.815625 712.543187" xmlns="http://www.w3.org/2000/svg" version="1.1">
 <metadata>
  <rdf:RDF xmlns:dc="http://purl.org/dc/elements/1.1/" xmlns:cc="http://creativecommons.org/ns#" xmlns:rdf="http://www.w3.org/1999/02/22-rdf-syntax-ns#">
   <cc:Work>
    <dc:type rdf:resource="http://purl.org/dc/dcmitype/StillImage"/>
    <dc:date>2026-04-26T22:50:31.693760</dc:date>
    <dc:format>image/svg+xml</dc:format>
    <dc:creator>
     <cc:Agent>
      <dc:title>Matplotlib v3.10.9, https://matplotlib.org/</dc:title>
     </cc:Agent>
    </dc:creator>
   </cc:Work>
  </rdf:RDF>
 </metadata>
 <defs>
  <style type="text/css">*{stroke-linejoin: round; stroke-linecap: butt}</style>
 </defs>
 <g id="figure_1">
  <g id="patch_1">
   <path d="M 0 712.543187 
L 856.815625 712.543187 
L 856.815625 0 
L 0 0 
z
" style="fill: #ffffff"/>
  </g>
  <g id="axes_1">
   <g id="patch_2">
    <path d="M 50.836875 671.006312 
L 840.071875 671.006312 
L 840.071875 55.590312 
L 50.836875 55.590312 
z
" style="fill: #ffffff"/>
   </g>
   <g id="matplotlib.axis_1">
    <g id="xtick_1">
     <g id="line2d_1">
      <path d="M 50.836875 671.006312 
L 50.836875 55.590312 
" clip-path="url(#pa3695b6c36)" style="fill: none; stroke: #b0b0b0; stroke-opacity: 0.15; stroke-width: 0.8; stroke-linecap: square"/>
     </g>
     <g id="line2d_2">
      <defs>
       <path id="m06e050bb44" d="M 0 0 
L 0 3.5 
" style="stroke: #000000; stroke-width: 0.8"/>
      </defs>
      <g>
       <use xlink:href="#m06e050bb44" x="50.836875" y="671.006312" style="stroke: #000000; stroke-width: 0.8"/>
      </g>
     </g>
     <g id="text_1">
      <!-- 0 -->
      <g transform="translate(47.655625 685.60475) scale(0.1 -0.1)">
       <defs>
        <path id="DejaVuSans-30" d="M 2034 4250 
Q 1547 4250 1301 3770 
Q 1056 3291 1056 2328 
Q 1056 1369 1301 889 
Q 1547 409 2034 409 
Q 2525 409 2770 889 
Q 3016 1369 3016 2328 
Q 3016 3291 2770 3770 
Q 2525 4250 2034 4250 
z
M 2034 4750 
Q 2819 4750 3233 4129 
Q 3647 3509 3647 2328 
Q 3647 1150 3233 529 
Q 2819 -91 2034 -91 
Q 1250 -91 836 529 
Q 422 1150 422 2328 
Q 422 3509 836 4129 
Q 1250 4750 2034 4750 
z
" transform="scale(0.015625)"/>
       </defs>
       <use xlink:href="#DejaVuSans-30"/>
      </g>
     </g>
    </g>
    <g id="xtick_2">
     <g id="line2d_3">
      <path d="M 208.683875 671.006312 
L 208.683875 55.590312 
" clip-path="url(#pa3695b6c36)" style="fill: none; stroke: #b0b0b0; stroke-opacity: 0.15; stroke-width: 0.8; stroke-linecap: square"/>
     </g>
     <g id="line2d_4">
      <g>
       <use xlink:href="#m06e050bb44" x="208.683875" y="671.006312" style="stroke: #000000; stroke-width: 0.8"/>
      </g>
     </g>
     <g id="text_2">
      <!-- 20 -->
      <g transform="translate(202.321375 685.60475) scale(0.1 -0.1)">
       <defs>
        <path id="DejaVuSans-32" d="M 1228 531 
L 3431 531 
L 3431 0 
L 469 0 
L 469 531 
Q 828 903 1448 1529 
Q 2069 2156 2228 2338 
Q 2531 2678 2651 2914 
Q 2772 3150 2772 3378 
Q 2772 3750 2511 3984 
Q 2250 4219 1831 4219 
Q 1534 4219 1204 4116 
Q 875 4013 500 3803 
L 500 4441 
Q 881 4594 1212 4672 
Q 1544 4750 1819 4750 
Q 2544 4750 2975 4387 
Q 3406 4025 3406 3419 
Q 3406 3131 3298 2873 
Q 3191 2616 2906 2266 
Q 2828 2175 2409 1742 
Q 1991 1309 1228 531 
z
" transform="scale(0.015625)"/>
       </defs>
       <use xlink:href="#DejaVuSans-32"/>
       <use xlink:href="#DejaVuSans-30" transform="translate(63.623047 0)"/>
      </g>
     </g>
    </g>
    <g id="xtick_3">
     <g id="line2d_5">
      <path d="M 366.530875 671.006312 
L 366.530875 55.590312 
" clip-path="url(#pa3695b6c36)" style="fill: none; stroke: #b0b0b0; stroke-opacity: 0.15; stroke-width: 0.8; stroke-linecap: square"/>
     </g>
     <g id="line2d_6">
      <g>
       <use xlink:href="#m06e050bb44" x="366.530875" y="671.006312" style="stroke: #000000; stroke-width: 0.8"/>
      </g>
     </g>
     <g id="text_3">
      <!-- 40 -->
      <g transform="translate(360.168375 685.60475) scale(0.1 -0.1)">
       <defs>
        <path id="DejaVuSans-34" d="M 2419 4116 
L 825 1625 
L 2419 1625 
L 2419 4116 
z
M 2253 4666 
L 3047 4666 
L 3047 1625 
L 3713 1625 
L 3713 1100 
L 3047 1100 
L 3047 0 
L 2419 0 
L 2419 1100 
L 313 1100 
L 313 1709 
L 2253 4666 
z
" transform="scale(0.015625)"/>
       </defs>
       <use xlink:href="#DejaVuSans-34"/>
       <use xlink:href="#DejaVuSans-30" transform="translate(63.623047 0)"/>
      </g>
     </g>
    </g>
    <g id="xtick_4">
     <g id="line2d_7">
      <path d="M 524.377875 671.006312 
L 524.377875 55.590312 
" clip-path="url(#pa3695b6c36)" style="fill: none; stroke: #b0b0b0; stroke-opacity: 0.15; stroke-width: 0.8; stroke-linecap: square"/>
     </g>
     <g id="line2d_8">
      <g>
       <use xlink:href="#m06e050bb44" x="524.377875" y="671.006312" style="stroke: #000000; stroke-width: 0.8"/>
      </g>
     </g>
     <g id="text_4">
      <!-- 60 -->
      <g transform="translate(518.015375 685.60475) scale(0.1 -0.1)">
       <defs>
        <path id="DejaVuSans-36" d="M 2113 2584 
Q 1688 2584 1439 2293 
Q 1191 2003 1191 1497 
Q 1191 994 1439 701 
Q 1688 409 2113 409 
Q 2538 409 2786 701 
Q 3034 994 3034 1497 
Q 3034 2003 2786 2293 
Q 2538 2584 2113 2584 
z
M 3366 4563 
L 3366 3988 
Q 3128 4100 2886 4159 
Q 2644 4219 2406 4219 
Q 1781 4219 1451 3797 
Q 1122 3375 1075 2522 
Q 1259 2794 1537 2939 
Q 1816 3084 2150 3084 
Q 2853 3084 3261 2657 
Q 3669 2231 3669 1497 
Q 3669 778 3244 343 
Q 2819 -91 2113 -91 
Q 1303 -91 875 529 
Q 447 1150 447 2328 
Q 447 3434 972 4092 
Q 1497 4750 2381 4750 
Q 2619 4750 2861 4703 
Q 3103 4656 3366 4563 
z
" transform="scale(0.015625)"/>
       </defs>
       <use xlink:href="#DejaVuSans-36"/>
       <use xlink:href="#DejaVuSans-30" transform="translate(63.623047 0)"/>
      </g>
     </g>
    </g>
    <g id="xtick_5">
     <g id="line2d_9">
      <path d="M 682.224875 671.006312 
L 682.224875 55.590312 
" clip-path="url(#pa3695b6c36)" style="fill: none; stroke: #b0b0b0; stroke-opacity: 0.15; stroke-width: 0.8; stroke-linecap: square"/>
     </g>
     <g id="line2d_10">
      <g>
       <use xlink:href="#m06e050bb44" x="682.224875" y="671.006312" style="stroke: #000000; stroke-width: 0.8"/>
      </g>
     </g>
     <g id="text_5">
      <!-- 80 -->
      <g transform="translate(675.862375 685.60475) scale(0.1 -0.1)">
       <defs>
        <path id="DejaVuSans-38" d="M 2034 2216 
Q 1584 2216 1326 1975 
Q 1069 1734 1069 1313 
Q 1069 891 1326 650 
Q 1584 409 2034 409 
Q 2484 409 2743 651 
Q 3003 894 3003 1313 
Q 3003 1734 2745 1975 
Q 2488 2216 2034 2216 
z
M 1403 2484 
Q 997 2584 770 2862 
Q 544 3141 544 3541 
Q 544 4100 942 4425 
Q 1341 4750 2034 4750 
Q 2731 4750 3128 4425 
Q 3525 4100 3525 3541 
Q 3525 3141 3298 2862 
Q 3072 2584 2669 2484 
Q 3125 2378 3379 2068 
Q 3634 1759 3634 1313 
Q 3634 634 3220 271 
Q 2806 -91 2034 -91 
Q 1263 -91 848 271 
Q 434 634 434 1313 
Q 434 1759 690 2068 
Q 947 2378 1403 2484 
z
M 1172 3481 
Q 1172 3119 1398 2916 
Q 1625 2713 2034 2713 
Q 2441 2713 2670 2916 
Q 2900 3119 2900 3481 
Q 2900 3844 2670 4047 
Q 2441 4250 2034 4250 
Q 1625 4250 1398 4047 
Q 1172 3844 1172 3481 
z
" transform="scale(0.015625)"/>
       </defs>
       <use xlink:href="#DejaVuSans-38"/>
       <use xlink:href="#DejaVuSans-30" transform="translate(63.623047 0)"/>
      </g>
     </g>
    </g>
    <g id="xtick_6">
     <g id="line2d_11">
      <path d="M 840.071875 671.006312 
L 840.071875 55.590312 
" clip-path="url(#pa3695b6c36)" style="fill: none; stroke: #b0b0b0; stroke-opacity: 0.15; stroke-width: 0.8; stroke-linecap: square"/>
     </g>
     <g id="line2d_12">
      <g>
       <use xlink:href="#m06e050bb44" x="840.071875" y="671.006312" style="stroke: #000000; stroke-width: 0.8"/>
      </g>
     </g>
     <g id="text_6">
      <!-- 100 -->
      <g transform="translate(830.528125 685.60475) scale(0.1 -0.1)">
       <defs>
        <path id="DejaVuSans-31" d="M 794 531 
L 1825 531 
L 1825 4091 
L 703 3866 
L 703 4441 
L 1819 4666 
L 2450 4666 
L 2450 531 
L 3481 531 
L 3481 0 
L 794 0 
L 794 531 
z
" transform="scale(0.015625)"/>
       </defs>
       <use xlink:href="#DejaVuSans-31"/>
       <use xlink:href="#DejaVuSans-30" transform="translate(63.623047 0)"/>
       <use xlink:href="#DejaVuSans-30" transform="translate(127.246094 0)"/>
      </g>
     </g>
    </g>
    <g id="text_7">
     <!-- Probability (%) -->
     <g transform="translate(386.360156 702.32225) scale(0.14 -0.14)">
      <defs>
       <path id="DejaVuSans-Bold-50" d="M 588 4666 
L 2584 4666 
Q 3475 4666 3951 4270 
Q 4428 3875 4428 3144 
Q 4428 2409 3951 2014 
Q 3475 1619 2584 1619 
L 1791 1619 
L 1791 0 
L 588 0 
L 588 4666 
z
M 1791 3794 
L 1791 2491 
L 2456 2491 
Q 2806 2491 2997 2661 
Q 3188 2831 3188 3144 
Q 3188 3456 2997 3625 
Q 2806 3794 2456 3794 
L 1791 3794 
z
" transform="scale(0.015625)"/>
       <path id="DejaVuSans-Bold-72" d="M 3138 2547 
Q 2991 2616 2845 2648 
Q 2700 2681 2553 2681 
Q 2122 2681 1889 2404 
Q 1656 2128 1656 1613 
L 1656 0 
L 538 0 
L 538 3500 
L 1656 3500 
L 1656 2925 
Q 1872 3269 2151 3426 
Q 2431 3584 2822 3584 
Q 2878 3584 2943 3579 
Q 3009 3575 3134 3559 
L 3138 2547 
z
" transform="scale(0.015625)"/>
       <path id="DejaVuSans-Bold-6f" d="M 2203 2784 
Q 1831 2784 1636 2517 
Q 1441 2250 1441 1747 
Q 1441 1244 1636 976 
Q 1831 709 2203 709 
Q 2569 709 2762 976 
Q 2956 1244 2956 1747 
Q 2956 2250 2762 2517 
Q 2569 2784 2203 2784 
z
M 2203 3584 
Q 3106 3584 3614 3096 
Q 4122 2609 4122 1747 
Q 4122 884 3614 396 
Q 3106 -91 2203 -91 
Q 1297 -91 786 396 
Q 275 884 275 1747 
Q 275 2609 786 3096 
Q 1297 3584 2203 3584 
z
" transform="scale(0.015625)"/>
       <path id="DejaVuSans-Bold-62" d="M 2400 722 
Q 2759 722 2948 984 
Q 3138 1247 3138 1747 
Q 3138 2247 2948 2509 
Q 2759 2772 2400 2772 
Q 2041 2772 1848 2508 
Q 1656 2244 1656 1747 
Q 1656 1250 1848 986 
Q 2041 722 2400 722 
z
M 1656 2988 
Q 1888 3294 2169 3439 
Q 2450 3584 2816 3584 
Q 3463 3584 3878 3070 
Q 4294 2556 4294 1747 
Q 4294 938 3878 423 
Q 3463 -91 2816 -91 
Q 2450 -91 2169 54 
Q 1888 200 1656 506 
L 1656 0 
L 538 0 
L 538 4863 
L 1656 4863 
L 1656 2988 
z
" transform="scale(0.015625)"/>
       <path id="DejaVuSans-Bold-61" d="M 2106 1575 
Q 1756 1575 1579 1456 
Q 1403 1338 1403 1106 
Q 1403 894 1545 773 
Q 1688 653 1941 653 
Q 2256 653 2472 879 
Q 2688 1106 2688 1447 
L 2688 1575 
L 2106 1575 
z
M 3816 1997 
L 3816 0 
L 2688 0 
L 2688 519 
Q 2463 200 2181 54 
Q 1900 -91 1497 -91 
Q 953 -91 614 226 
Q 275 544 275 1050 
Q 275 1666 698 1953 
Q 1122 2241 2028 2241 
L 2688 2241 
L 2688 2328 
Q 2688 2594 2478 2717 
Q 2269 2841 1825 2841 
Q 1466 2841 1156 2769 
Q 847 2697 581 2553 
L 581 3406 
Q 941 3494 1303 3539 
Q 1666 3584 2028 3584 
Q 2975 3584 3395 3211 
Q 3816 2838 3816 1997 
z
" transform="scale(0.015625)"/>
       <path id="DejaVuSans-Bold-69" d="M 538 3500 
L 1656 3500 
L 1656 0 
L 538 0 
L 538 3500 
z
M 538 4863 
L 1656 4863 
L 1656 3950 
L 538 3950 
L 538 4863 
z
" transform="scale(0.015625)"/>
       <path id="DejaVuSans-Bold-6c" d="M 538 4863 
L 1656 4863 
L 1656 0 
L 538 0 
L 538 4863 
z
" transform="scale(0.015625)"/>
       <path id="DejaVuSans-Bold-74" d="M 1759 4494 
L 1759 3500 
L 2913 3500 
L 2913 2700 
L 1759 2700 
L 1759 1216 
Q 1759 972 1856 886 
Q 1953 800 2241 800 
L 2816 800 
L 2816 0 
L 1856 0 
Q 1194 0 917 276 
Q 641 553 641 1216 
L 641 2700 
L 84 2700 
L 84 3500 
L 641 3500 
L 641 4494 
L 1759 4494 
z
" transform="scale(0.015625)"/>
       <path id="DejaVuSans-Bold-79" d="M 78 3500 
L 1197 3500 
L 2138 1125 
L 2938 3500 
L 4056 3500 
L 2584 -331 
Q 2363 -916 2067 -1148 
Q 1772 -1381 1288 -1381 
L 641 -1381 
L 641 -647 
L 991 -647 
Q 1275 -647 1404 -556 
Q 1534 -466 1606 -231 
L 1638 -134 
L 78 3500 
z
" transform="scale(0.015625)"/>
       <path id="DejaVuSans-Bold-20" transform="scale(0.015625)"/>
       <path id="DejaVuSans-Bold-28" d="M 2413 -844 
L 1484 -844 
Q 1006 -72 778 623 
Q 550 1319 550 2003 
Q 550 2688 779 3389 
Q 1009 4091 1484 4856 
L 2413 4856 
Q 2013 4116 1813 3408 
Q 1613 2700 1613 2009 
Q 1613 1319 1811 609 
Q 2009 -100 2413 -844 
z
" transform="scale(0.015625)"/>
       <path id="DejaVuSans-Bold-25" d="M 4959 1925 
Q 4738 1925 4616 1733 
Q 4494 1541 4494 1184 
Q 4494 825 4614 633 
Q 4734 441 4959 441 
Q 5184 441 5303 633 
Q 5422 825 5422 1184 
Q 5422 1541 5301 1733 
Q 5181 1925 4959 1925 
z
M 4959 2450 
Q 5541 2450 5875 2112 
Q 6209 1775 6209 1184 
Q 6209 594 5875 251 
Q 5541 -91 4959 -91 
Q 4378 -91 4042 251 
Q 3706 594 3706 1184 
Q 3706 1772 4042 2111 
Q 4378 2450 4959 2450 
z
M 2094 -91 
L 1403 -91 
L 4319 4750 
L 5013 4750 
L 2094 -91 
z
M 1453 4750 
Q 2034 4750 2367 4411 
Q 2700 4072 2700 3481 
Q 2700 2891 2367 2550 
Q 2034 2209 1453 2209 
Q 872 2209 539 2550 
Q 206 2891 206 3481 
Q 206 4072 539 4411 
Q 872 4750 1453 4750 
z
M 1453 4225 
Q 1228 4225 1106 4031 
Q 984 3838 984 3481 
Q 984 3122 1106 2926 
Q 1228 2731 1453 2731 
Q 1678 2731 1798 2926 
Q 1919 3122 1919 3481 
Q 1919 3838 1797 4031 
Q 1675 4225 1453 4225 
z
" transform="scale(0.015625)"/>
       <path id="DejaVuSans-Bold-29" d="M 513 -844 
Q 913 -100 1113 609 
Q 1313 1319 1313 2009 
Q 1313 2700 1113 3408 
Q 913 4116 513 4856 
L 1441 4856 
Q 1916 4091 2145 3389 
Q 2375 2688 2375 2003 
Q 2375 1319 2147 623 
Q 1919 -72 1441 -844 
L 513 -844 
z
" transform="scale(0.015625)"/>
      </defs>
      <use xlink:href="#DejaVuSans-Bold-50"/>
      <use xlink:href="#DejaVuSans-Bold-72" transform="translate(73.291016 0)"/>
      <use xlink:href="#DejaVuSans-Bold-6f" transform="translate(122.607422 0)"/>
      <use xlink:href="#DejaVuSans-Bold-62" transform="translate(191.308594 0)"/>
      <use xlink:href="#DejaVuSans-Bold-61" transform="translate(262.890625 0)"/>
      <use xlink:href="#DejaVuSans-Bold-62" transform="translate(330.371094 0)"/>
      <use xlink:href="#DejaVuSans-Bold-69" transform="translate(401.953125 0)"/>
      <use xlink:href="#DejaVuSans-Bold-6c" transform="translate(436.230469 0)"/>
      <use xlink:href="#DejaVuSans-Bold-69" transform="translate(470.507812 0)"/>
      <use xlink:href="#DejaVuSans-Bold-74" transform="translate(504.785156 0)"/>
      <use xlink:href="#DejaVuSans-Bold-79" transform="translate(552.587891 0)"/>
      <use xlink:href="#DejaVuSans-Bold-20" transform="translate(617.773438 0)"/>
      <use xlink:href="#DejaVuSans-Bold-28" transform="translate(652.587891 0)"/>
      <use xlink:href="#DejaVuSans-Bold-25" transform="translate(698.291016 0)"/>
      <use xlink:href="#DejaVuSans-Bold-29" transform="translate(798.486328 0)"/>
     </g>
    </g>
   </g>
   <g id="matplotlib.axis_2">
    <g id="ytick_1">
     <g id="line2d_13">
      <path d="M 50.836875 671.006312 
L 840.071875 671.006312 
" clip-path="url(#pa3695b6c36)" style="fill: none; stroke: #b0b0b0; stroke-opacity: 0.15; stroke-width: 0.8; stroke-linecap: square"/>
     </g>
     <g id="line2d_14">
      <defs>
       <path id="m92a6939f52" d="M 0 0 
L -3.5 0 
" style="stroke: #000000; stroke-width: 0.8"/>
      </defs>
      <g>
       <use xlink:href="#m92a6939f52" x="50.836875" y="671.006312" style="stroke: #000000; stroke-width: 0.8"/>
      </g>
     </g>
     <g id="text_8">
      <!-- 0 -->
      <g transform="translate(37.474375 674.805531) scale(0.1 -0.1)">
       <use xlink:href="#DejaVuSans-30"/>
      </g>
     </g>
    </g>
    <g id="ytick_2">
     <g id="line2d_15">
      <path d="M 50.836875 547.923112 
L 840.071875 547.923112 
" clip-path="url(#pa3695b6c36)" style="fill: none; stroke: #b0b0b0; stroke-opacity: 0.15; stroke-width: 0.8; stroke-linecap: square"/>
     </g>
     <g id="line2d_16">
      <g>
       <use xlink:href="#m92a6939f52" x="50.836875" y="547.923112" style="stroke: #000000; stroke-width: 0.8"/>
      </g>
     </g>
     <g id="text_9">
      <!-- 20 -->
      <g transform="translate(31.111875 551.722331) scale(0.1 -0.1)">
       <use xlink:href="#DejaVuSans-32"/>
       <use xlink:href="#DejaVuSans-30" transform="translate(63.623047 0)"/>
      </g>
     </g>
    </g>
    <g id="ytick_3">
     <g id="line2d_17">
      <path d="M 50.836875 424.839912 
L 840.071875 424.839912 
" clip-path="url(#pa3695b6c36)" style="fill: none; stroke: #b0b0b0; stroke-opacity: 0.15; stroke-width: 0.8; stroke-linecap: square"/>
     </g>
     <g id="line2d_18">
      <g>
       <use xlink:href="#m92a6939f52" x="50.836875" y="424.839912" style="stroke: #000000; stroke-width: 0.8"/>
      </g>
     </g>
     <g id="text_10">
      <!-- 40 -->
      <g transform="translate(31.111875 428.639131) scale(0.1 -0.1)">
       <use xlink:href="#DejaVuSans-34"/>
       <use xlink:href="#DejaVuSans-30" transform="translate(63.623047 0)"/>
      </g>
     </g>
    </g>
    <g id="ytick_4">
     <g id="line2d_19">
      <path d="M 50.836875 301.756712 
L 840.071875 301.756712 
" clip-path="url(#pa3695b6c36)" style="fill: none; stroke: #b0b0b0; stroke-opacity: 0.15; stroke-width: 0.8; stroke-linecap: square"/>
     </g>
     <g id="line2d_20">
      <g>
       <use xlink:href="#m92a6939f52" x="50.836875" y="301.756712" style="stroke: #000000; stroke-width: 0.8"/>
      </g>
     </g>
     <g id="text_11">
      <!-- 60 -->
      <g transform="translate(31.111875 305.555931) scale(0.1 -0.1)">
       <use xlink:href="#DejaVuSans-36"/>
       <use xlink:href="#DejaVuSans-30" transform="translate(63.623047 0)"/>
      </g>
     </g>
    </g>
    <g id="ytick_5">
     <g id="line2d_21">
      <path d="M 50.836875 178.673512 
L 840.071875 178.673512 
" clip-path="url(#pa3695b6c36)" style="fill: none; stroke: #b0b0b0; stroke-opacity: 0.15; stroke-width: 0.8; stroke-linecap: square"/>
     </g>
     <g id="line2d_22">
      <g>
       <use xlink:href="#m92a6939f52" x="50.836875" y="178.673512" style="stroke: #000000; stroke-width: 0.8"/>
      </g>
     </g>
     <g id="text_12">
      <!-- 80 -->
      <g transform="translate(31.111875 182.472731) scale(0.1 -0.1)">
       <use xlink:href="#DejaVuSans-38"/>
       <use xlink:href="#DejaVuSans-30" transform="translate(63.623047 0)"/>
      </g>
     </g>
    </g>
    <g id="ytick_6">
     <g id="line2d_23">
      <path d="M 50.836875 55.590312 
L 840.071875 55.590312 
" clip-path="url(#pa3695b6c36)" style="fill: none; stroke: #b0b0b0; stroke-opacity: 0.15; stroke-width: 0.8; stroke-linecap: square"/>
     </g>
     <g id="line2d_24">
      <g>
       <use xlink:href="#m92a6939f52" x="50.836875" y="55.590312" style="stroke: #000000; stroke-width: 0.8"/>
      </g>
     </g>
     <g id="text_13">
      <!-- 100 -->
      <g transform="translate(24.749375 59.389531) scale(0.1 -0.1)">
       <use xlink:href="#DejaVuSans-31"/>
       <use xlink:href="#DejaVuSans-30" transform="translate(63.623047 0)"/>
       <use xlink:href="#DejaVuSans-30" transform="translate(127.246094 0)"/>
      </g>
     </g>
    </g>
    <g id="text_14">
     <!-- Impact (%) -->
     <g transform="translate(17.837813 406.276125) rotate(-90) scale(0.14 -0.14)">
      <defs>
       <path id="DejaVuSans-Bold-49" d="M 588 4666 
L 1791 4666 
L 1791 0 
L 588 0 
L 588 4666 
z
" transform="scale(0.015625)"/>
       <path id="DejaVuSans-Bold-6d" d="M 3781 2919 
Q 3994 3244 4286 3414 
Q 4578 3584 4928 3584 
Q 5531 3584 5847 3212 
Q 6163 2841 6163 2131 
L 6163 0 
L 5038 0 
L 5038 1825 
Q 5041 1866 5042 1909 
Q 5044 1953 5044 2034 
Q 5044 2406 4934 2573 
Q 4825 2741 4581 2741 
Q 4263 2741 4089 2478 
Q 3916 2216 3909 1719 
L 3909 0 
L 2784 0 
L 2784 1825 
Q 2784 2406 2684 2573 
Q 2584 2741 2328 2741 
Q 2006 2741 1831 2477 
Q 1656 2213 1656 1722 
L 1656 0 
L 531 0 
L 531 3500 
L 1656 3500 
L 1656 2988 
Q 1863 3284 2130 3434 
Q 2397 3584 2719 3584 
Q 3081 3584 3359 3409 
Q 3638 3234 3781 2919 
z
" transform="scale(0.015625)"/>
       <path id="DejaVuSans-Bold-70" d="M 1656 506 
L 1656 -1331 
L 538 -1331 
L 538 3500 
L 1656 3500 
L 1656 2988 
Q 1888 3294 2169 3439 
Q 2450 3584 2816 3584 
Q 3463 3584 3878 3070 
Q 4294 2556 4294 1747 
Q 4294 938 3878 423 
Q 3463 -91 2816 -91 
Q 2450 -91 2169 54 
Q 1888 200 1656 506 
z
M 2400 2772 
Q 2041 2772 1848 2508 
Q 1656 2244 1656 1747 
Q 1656 1250 1848 986 
Q 2041 722 2400 722 
Q 2759 722 2948 984 
Q 3138 1247 3138 1747 
Q 3138 2247 2948 2509 
Q 2759 2772 2400 2772 
z
" transform="scale(0.015625)"/>
       <path id="DejaVuSans-Bold-63" d="M 3366 3391 
L 3366 2478 
Q 3138 2634 2908 2709 
Q 2678 2784 2431 2784 
Q 1963 2784 1702 2511 
Q 1441 2238 1441 1747 
Q 1441 1256 1702 982 
Q 1963 709 2431 709 
Q 2694 709 2930 787 
Q 3166 866 3366 1019 
L 3366 103 
Q 3103 6 2833 -42 
Q 2563 -91 2291 -91 
Q 1344 -91 809 395 
Q 275 881 275 1747 
Q 275 2613 809 3098 
Q 1344 3584 2291 3584 
Q 2566 3584 2833 3536 
Q 3100 3488 3366 3391 
z
" transform="scale(0.015625)"/>
      </defs>
      <use xlink:href="#DejaVuSans-Bold-49"/>
      <use xlink:href="#DejaVuSans-Bold-6d" transform="translate(37.207031 0)"/>
      <use xlink:href="#DejaVuSans-Bold-70" transform="translate(141.40625 0)"/>
      <use xlink:href="#DejaVuSans-Bold-61" transform="translate(212.988281 0)"/>
      <use xlink:href="#DejaVuSans-Bold-63" transform="translate(280.46875 0)"/>
      <use xlink:href="#DejaVuSans-Bold-74" transform="translate(339.746094 0)"/>
      <use xlink:href="#DejaVuSans-Bold-20" transform="translate(387.548828 0)"/>
      <use xlink:href="#DejaVuSans-Bold-28" transform="translate(422.363281 0)"/>
      <use xlink:href="#DejaVuSans-Bold-25" transform="translate(468.066406 0)"/>
      <use xlink:href="#DejaVuSans-Bold-29" transform="translate(568.261719 0)"/>
     </g>
    </g>
   </g>
   <g id="line2d_25">
    <path d="M 50.836875 363.298312 
L 840.071875 363.298312 
" clip-path="url(#pa3695b6c36)" style="fill: none; stroke-dasharray: 5.55,2.4; stroke-dashoffset: 0; stroke: #808080; stroke-opacity: 0.3; stroke-width: 1.5"/>
   </g>
   <g id="line2d_26">
    <path d="M 445.454375 671.006312 
L 445.454375 55.590312 
" clip-path="url(#pa3695b6c36)" style="fill: none; stroke-dasharray: 5.55,2.4; stroke-dashoffset: 0; stroke: #808080; stroke-opacity: 0.3; stroke-width: 1.5"/>
   </g>
   <g id="patch_3">
    <path d="M 50.836875 671.006312 
L 50.836875 55.590312 
" style="fill: none; stroke: #000000; stroke-width: 0.8; stroke-linejoin: miter; stroke-linecap: square"/>
   </g>
   <g id="patch_4">
    <path d="M 840.071875 671.006312 
L 840.071875 55.590312 
" style="fill: none; stroke: #000000; stroke-width: 0.8; stroke-linejoin: miter; stroke-linecap: square"/>
   </g>
   <g id="patch_5">
    <path d="M 50.836875 671.006312 
L 840.071875 671.006312 
" style="fill: none; stroke: #000000; stroke-width: 0.8; stroke-linejoin: miter; stroke-linecap: square"/>
   </g>
   <g id="patch_6">
    <path d="M 50.836875 55.590312 
L 840.071875 55.590312 
" style="fill: none; stroke: #000000; stroke-width: 0.8; stroke-linejoin: miter; stroke-linecap: square"/>
   </g>
   <g id="text_15">
    <!-- NRR Decline -->
    <g style="fill: #dc2626" transform="translate(613.301375 94.814319) scale(0.11 -0.11)">
     <defs>
      <path id="DejaVuSans-Bold-4e" d="M 588 4666 
L 1931 4666 
L 3628 1466 
L 3628 4666 
L 4769 4666 
L 4769 0 
L 3425 0 
L 1728 3200 
L 1728 0 
L 588 0 
L 588 4666 
z
" transform="scale(0.015625)"/>
      <path id="DejaVuSans-Bold-52" d="M 2297 2597 
Q 2675 2597 2839 2737 
Q 3003 2878 3003 3200 
Q 3003 3519 2839 3656 
Q 2675 3794 2297 3794 
L 1791 3794 
L 1791 2597 
L 2297 2597 
z
M 1791 1766 
L 1791 0 
L 588 0 
L 588 4666 
L 2425 4666 
Q 3347 4666 3776 4356 
Q 4206 4047 4206 3378 
Q 4206 2916 3982 2619 
Q 3759 2322 3309 2181 
Q 3556 2125 3751 1926 
Q 3947 1728 4147 1325 
L 4800 0 
L 3519 0 
L 2950 1159 
Q 2778 1509 2601 1637 
Q 2425 1766 2131 1766 
L 1791 1766 
z
" transform="scale(0.015625)"/>
      <path id="DejaVuSans-Bold-44" d="M 1791 3756 
L 1791 909 
L 2222 909 
Q 2959 909 3348 1275 
Q 3738 1641 3738 2338 
Q 3738 3031 3350 3393 
Q 2963 3756 2222 3756 
L 1791 3756 
z
M 588 4666 
L 1856 4666 
Q 2919 4666 3439 4514 
Q 3959 4363 4331 4000 
Q 4659 3684 4818 3271 
Q 4978 2859 4978 2338 
Q 4978 1809 4818 1395 
Q 4659 981 4331 666 
Q 3956 303 3431 151 
Q 2906 0 1856 0 
L 588 0 
L 588 4666 
z
" transform="scale(0.015625)"/>
      <path id="DejaVuSans-Bold-65" d="M 4031 1759 
L 4031 1441 
L 1416 1441 
Q 1456 1047 1700 850 
Q 1944 653 2381 653 
Q 2734 653 3104 758 
Q 3475 863 3866 1075 
L 3866 213 
Q 3469 63 3072 -14 
Q 2675 -91 2278 -91 
Q 1328 -91 801 392 
Q 275 875 275 1747 
Q 275 2603 792 3093 
Q 1309 3584 2216 3584 
Q 3041 3584 3536 3087 
Q 4031 2591 4031 1759 
z
M 2881 2131 
Q 2881 2450 2695 2645 
Q 2509 2841 2209 2841 
Q 1884 2841 1681 2658 
Q 1478 2475 1428 2131 
L 2881 2131 
z
" transform="scale(0.015625)"/>
      <path id="DejaVuSans-Bold-6e" d="M 4056 2131 
L 4056 0 
L 2931 0 
L 2931 347 
L 2931 1631 
Q 2931 2084 2911 2256 
Q 2891 2428 2841 2509 
Q 2775 2619 2662 2680 
Q 2550 2741 2406 2741 
Q 2056 2741 1856 2470 
Q 1656 2200 1656 1722 
L 1656 0 
L 538 0 
L 538 3500 
L 1656 3500 
L 1656 2988 
Q 1909 3294 2193 3439 
Q 2478 3584 2822 3584 
Q 3428 3584 3742 3212 
Q 4056 2841 4056 2131 
z
" transform="scale(0.015625)"/>
     </defs>
     <use xlink:href="#DejaVuSans-Bold-4e"/>
     <use xlink:href="#DejaVuSans-Bold-52" transform="translate(83.691406 0)"/>
     <use xlink:href="#DejaVuSans-Bold-52" transform="translate(160.693359 0)"/>
     <use xlink:href="#DejaVuSans-Bold-20" transform="translate(237.695312 0)"/>
     <use xlink:href="#DejaVuSans-Bold-44" transform="translate(272.509766 0)"/>
     <use xlink:href="#DejaVuSans-Bold-65" transform="translate(355.517578 0)"/>
     <use xlink:href="#DejaVuSans-Bold-63" transform="translate(423.339844 0)"/>
     <use xlink:href="#DejaVuSans-Bold-6c" transform="translate(482.617188 0)"/>
     <use xlink:href="#DejaVuSans-Bold-69" transform="translate(516.894531 0)"/>
     <use xlink:href="#DejaVuSans-Bold-6e" transform="translate(551.171875 0)"/>
     <use xlink:href="#DejaVuSans-Bold-65" transform="translate(622.363281 0)"/>
    </g>
    <!-- &lt; 110% -->
    <g style="fill: #dc2626" transform="translate(613.301375 107.131912) scale(0.11 -0.11)">
     <defs>
      <path id="DejaVuSans-Bold-3c" d="M 4684 3041 
L 1672 2003 
L 4684 972 
L 4684 191 
L 678 1638 
L 678 2375 
L 4684 3822 
L 4684 3041 
z
" transform="scale(0.015625)"/>
      <path id="DejaVuSans-Bold-31" d="M 750 831 
L 1813 831 
L 1813 3847 
L 722 3622 
L 722 4441 
L 1806 4666 
L 2950 4666 
L 2950 831 
L 4013 831 
L 4013 0 
L 750 0 
L 750 831 
z
" transform="scale(0.015625)"/>
      <path id="DejaVuSans-Bold-30" d="M 2944 2338 
Q 2944 3213 2780 3570 
Q 2616 3928 2228 3928 
Q 1841 3928 1675 3570 
Q 1509 3213 1509 2338 
Q 1509 1453 1675 1090 
Q 1841 728 2228 728 
Q 2613 728 2778 1090 
Q 2944 1453 2944 2338 
z
M 4147 2328 
Q 4147 1169 3647 539 
Q 3147 -91 2228 -91 
Q 1306 -91 806 539 
Q 306 1169 306 2328 
Q 306 3491 806 4120 
Q 1306 4750 2228 4750 
Q 3147 4750 3647 4120 
Q 4147 3491 4147 2328 
z
" transform="scale(0.015625)"/>
     </defs>
     <use xlink:href="#DejaVuSans-Bold-3c"/>
     <use xlink:href="#DejaVuSans-Bold-20" transform="translate(83.789062 0)"/>
     <use xlink:href="#DejaVuSans-Bold-31" transform="translate(118.603516 0)"/>
     <use xlink:href="#DejaVuSans-Bold-31" transform="translate(188.183594 0)"/>
     <use xlink:href="#DejaVuSans-Bold-30" transform="translate(257.763672 0)"/>
     <use xlink:href="#DejaVuSans-Bold-25" transform="translate(327.34375 0)"/>
    </g>
   </g>
   <g id="text_16">
    <!-- GitHub Copilot -->
    <g style="fill: #f59e0b" transform="translate(534.377875 156.355919) scale(0.11 -0.11)">
     <defs>
      <path id="DejaVuSans-Bold-47" d="M 4781 347 
Q 4331 128 3847 18 
Q 3363 -91 2847 -91 
Q 1681 -91 1000 561 
Q 319 1213 319 2328 
Q 319 3456 1012 4103 
Q 1706 4750 2913 4750 
Q 3378 4750 3804 4662 
Q 4231 4575 4609 4403 
L 4609 3438 
Q 4219 3659 3833 3768 
Q 3447 3878 3059 3878 
Q 2341 3878 1952 3476 
Q 1563 3075 1563 2328 
Q 1563 1588 1938 1184 
Q 2313 781 3003 781 
Q 3191 781 3352 804 
Q 3513 828 3641 878 
L 3641 1784 
L 2906 1784 
L 2906 2591 
L 4781 2591 
L 4781 347 
z
" transform="scale(0.015625)"/>
      <path id="DejaVuSans-Bold-48" d="M 588 4666 
L 1791 4666 
L 1791 2888 
L 3566 2888 
L 3566 4666 
L 4769 4666 
L 4769 0 
L 3566 0 
L 3566 1978 
L 1791 1978 
L 1791 0 
L 588 0 
L 588 4666 
z
" transform="scale(0.015625)"/>
      <path id="DejaVuSans-Bold-75" d="M 500 1363 
L 500 3500 
L 1625 3500 
L 1625 3150 
Q 1625 2866 1622 2436 
Q 1619 2006 1619 1863 
Q 1619 1441 1641 1255 
Q 1663 1069 1716 984 
Q 1784 875 1895 815 
Q 2006 756 2150 756 
Q 2500 756 2700 1025 
Q 2900 1294 2900 1772 
L 2900 3500 
L 4019 3500 
L 4019 0 
L 2900 0 
L 2900 506 
Q 2647 200 2364 54 
Q 2081 -91 1741 -91 
Q 1134 -91 817 281 
Q 500 653 500 1363 
z
" transform="scale(0.015625)"/>
      <path id="DejaVuSans-Bold-43" d="M 4288 256 
Q 3956 84 3597 -3 
Q 3238 -91 2847 -91 
Q 1681 -91 1000 561 
Q 319 1213 319 2328 
Q 319 3447 1000 4098 
Q 1681 4750 2847 4750 
Q 3238 4750 3597 4662 
Q 3956 4575 4288 4403 
L 4288 3438 
Q 3953 3666 3628 3772 
Q 3303 3878 2944 3878 
Q 2300 3878 1931 3465 
Q 1563 3053 1563 2328 
Q 1563 1606 1931 1193 
Q 2300 781 2944 781 
Q 3303 781 3628 887 
Q 3953 994 4288 1222 
L 4288 256 
z
" transform="scale(0.015625)"/>
     </defs>
     <use xlink:href="#DejaVuSans-Bold-47"/>
     <use xlink:href="#DejaVuSans-Bold-69" transform="translate(82.080078 0)"/>
     <use xlink:href="#DejaVuSans-Bold-74" transform="translate(116.357422 0)"/>
     <use xlink:href="#DejaVuSans-Bold-48" transform="translate(164.160156 0)"/>
     <use xlink:href="#DejaVuSans-Bold-75" transform="translate(247.851562 0)"/>
     <use xlink:href="#DejaVuSans-Bold-62" transform="translate(319.042969 0)"/>
     <use xlink:href="#DejaVuSans-Bold-20" transform="translate(390.625 0)"/>
     <use xlink:href="#DejaVuSans-Bold-43" transform="translate(425.439453 0)"/>
     <use xlink:href="#DejaVuSans-Bold-6f" transform="translate(498.828125 0)"/>
     <use xlink:href="#DejaVuSans-Bold-70" transform="translate(567.529297 0)"/>
     <use xlink:href="#DejaVuSans-Bold-69" transform="translate(639.111328 0)"/>
     <use xlink:href="#DejaVuSans-Bold-6c" transform="translate(673.388672 0)"/>
     <use xlink:href="#DejaVuSans-Bold-6f" transform="translate(707.666016 0)"/>
     <use xlink:href="#DejaVuSans-Bold-74" transform="translate(776.367188 0)"/>
    </g>
    <!-- Competition -->
    <g style="fill: #f59e0b" transform="translate(534.377875 168.673512) scale(0.11 -0.11)">
     <use xlink:href="#DejaVuSans-Bold-43"/>
     <use xlink:href="#DejaVuSans-Bold-6f" transform="translate(73.388672 0)"/>
     <use xlink:href="#DejaVuSans-Bold-6d" transform="translate(142.089844 0)"/>
     <use xlink:href="#DejaVuSans-Bold-70" transform="translate(246.289062 0)"/>
     <use xlink:href="#DejaVuSans-Bold-65" transform="translate(317.871094 0)"/>
     <use xlink:href="#DejaVuSans-Bold-74" transform="translate(385.693359 0)"/>
     <use xlink:href="#DejaVuSans-Bold-69" transform="translate(433.496094 0)"/>
     <use xlink:href="#DejaVuSans-Bold-74" transform="translate(467.773438 0)"/>
     <use xlink:href="#DejaVuSans-Bold-69" transform="translate(515.576172 0)"/>
     <use xlink:href="#DejaVuSans-Bold-6f" transform="translate(549.853516 0)"/>
     <use xlink:href="#DejaVuSans-Bold-6e" transform="translate(618.554688 0)"/>
    </g>
   </g>
   <g id="text_17">
    <!-- Macro Downturn -->
    <g style="fill: #eab308" transform="translate(455.454375 168.673512) scale(0.11 -0.11)">
     <defs>
      <path id="DejaVuSans-Bold-4d" d="M 588 4666 
L 2119 4666 
L 3181 2169 
L 4250 4666 
L 5778 4666 
L 5778 0 
L 4641 0 
L 4641 3413 
L 3566 897 
L 2803 897 
L 1728 3413 
L 1728 0 
L 588 0 
L 588 4666 
z
" transform="scale(0.015625)"/>
      <path id="DejaVuSans-Bold-77" d="M 225 3500 
L 1313 3500 
L 1900 1088 
L 2491 3500 
L 3425 3500 
L 4013 1113 
L 4603 3500 
L 5691 3500 
L 4769 0 
L 3547 0 
L 2956 2406 
L 2369 0 
L 1147 0 
L 225 3500 
z
" transform="scale(0.015625)"/>
     </defs>
     <use xlink:href="#DejaVuSans-Bold-4d"/>
     <use xlink:href="#DejaVuSans-Bold-61" transform="translate(99.511719 0)"/>
     <use xlink:href="#DejaVuSans-Bold-63" transform="translate(166.992188 0)"/>
     <use xlink:href="#DejaVuSans-Bold-72" transform="translate(226.269531 0)"/>
     <use xlink:href="#DejaVuSans-Bold-6f" transform="translate(275.585938 0)"/>
     <use xlink:href="#DejaVuSans-Bold-20" transform="translate(344.287109 0)"/>
     <use xlink:href="#DejaVuSans-Bold-44" transform="translate(379.101562 0)"/>
     <use xlink:href="#DejaVuSans-Bold-6f" transform="translate(462.109375 0)"/>
     <use xlink:href="#DejaVuSans-Bold-77" transform="translate(530.810547 0)"/>
     <use xlink:href="#DejaVuSans-Bold-6e" transform="translate(623.193359 0)"/>
     <use xlink:href="#DejaVuSans-Bold-74" transform="translate(694.384766 0)"/>
     <use xlink:href="#DejaVuSans-Bold-75" transform="translate(742.1875 0)"/>
     <use xlink:href="#DejaVuSans-Bold-72" transform="translate(813.378906 0)"/>
     <use xlink:href="#DejaVuSans-Bold-6e" transform="translate(862.695312 0)"/>
    </g>
   </g>
   <g id="text_18">
    <!-- AI Monetization -->
    <g style="fill: #eab308" transform="translate(376.530875 217.897519) scale(0.11 -0.11)">
     <defs>
      <path id="DejaVuSans-Bold-41" d="M 3419 850 
L 1538 850 
L 1241 0 
L 31 0 
L 1759 4666 
L 3194 4666 
L 4922 0 
L 3713 0 
L 3419 850 
z
M 1838 1716 
L 3116 1716 
L 2478 3572 
L 1838 1716 
z
" transform="scale(0.015625)"/>
      <path id="DejaVuSans-Bold-7a" d="M 366 3500 
L 3419 3500 
L 3419 2719 
L 1575 800 
L 3419 800 
L 3419 0 
L 288 0 
L 288 781 
L 2131 2700 
L 366 2700 
L 366 3500 
z
" transform="scale(0.015625)"/>
     </defs>
     <use xlink:href="#DejaVuSans-Bold-41"/>
     <use xlink:href="#DejaVuSans-Bold-49" transform="translate(77.392578 0)"/>
     <use xlink:href="#DejaVuSans-Bold-20" transform="translate(114.599609 0)"/>
     <use xlink:href="#DejaVuSans-Bold-4d" transform="translate(149.414062 0)"/>
     <use xlink:href="#DejaVuSans-Bold-6f" transform="translate(248.925781 0)"/>
     <use xlink:href="#DejaVuSans-Bold-6e" transform="translate(317.626953 0)"/>
     <use xlink:href="#DejaVuSans-Bold-65" transform="translate(388.818359 0)"/>
     <use xlink:href="#DejaVuSans-Bold-74" transform="translate(456.640625 0)"/>
     <use xlink:href="#DejaVuSans-Bold-69" transform="translate(504.443359 0)"/>
     <use xlink:href="#DejaVuSans-Bold-7a" transform="translate(538.720703 0)"/>
     <use xlink:href="#DejaVuSans-Bold-61" transform="translate(596.923828 0)"/>
     <use xlink:href="#DejaVuSans-Bold-74" transform="translate(664.404297 0)"/>
     <use xlink:href="#DejaVuSans-Bold-69" transform="translate(712.207031 0)"/>
     <use xlink:href="#DejaVuSans-Bold-6f" transform="translate(746.484375 0)"/>
     <use xlink:href="#DejaVuSans-Bold-6e" transform="translate(815.185547 0)"/>
    </g>
    <!-- Failure -->
    <g style="fill: #eab308" transform="translate(376.530875 230.215112) scale(0.11 -0.11)">
     <defs>
      <path id="DejaVuSans-Bold-46" d="M 588 4666 
L 3834 4666 
L 3834 3756 
L 1791 3756 
L 1791 2888 
L 3713 2888 
L 3713 1978 
L 1791 1978 
L 1791 0 
L 588 0 
L 588 4666 
z
" transform="scale(0.015625)"/>
     </defs>
     <use xlink:href="#DejaVuSans-Bold-46"/>
     <use xlink:href="#DejaVuSans-Bold-61" transform="translate(62.435547 0)"/>
     <use xlink:href="#DejaVuSans-Bold-69" transform="translate(129.916016 0)"/>
     <use xlink:href="#DejaVuSans-Bold-6c" transform="translate(164.193359 0)"/>
     <use xlink:href="#DejaVuSans-Bold-75" transform="translate(198.470703 0)"/>
     <use xlink:href="#DejaVuSans-Bold-72" transform="translate(269.662109 0)"/>
     <use xlink:href="#DejaVuSans-Bold-65" transform="translate(318.978516 0)"/>
    </g>
   </g>
   <g id="text_19">
    <!-- Open-Source -->
    <g style="fill: #2563eb" transform="translate(297.607375 279.439119) scale(0.11 -0.11)">
     <defs>
      <path id="DejaVuSans-Bold-4f" d="M 2719 3878 
Q 2169 3878 1866 3472 
Q 1563 3066 1563 2328 
Q 1563 1594 1866 1187 
Q 2169 781 2719 781 
Q 3272 781 3575 1187 
Q 3878 1594 3878 2328 
Q 3878 3066 3575 3472 
Q 3272 3878 2719 3878 
z
M 2719 4750 
Q 3844 4750 4481 4106 
Q 5119 3463 5119 2328 
Q 5119 1197 4481 553 
Q 3844 -91 2719 -91 
Q 1597 -91 958 553 
Q 319 1197 319 2328 
Q 319 3463 958 4106 
Q 1597 4750 2719 4750 
z
" transform="scale(0.015625)"/>
      <path id="DejaVuSans-Bold-2d" d="M 347 2297 
L 2309 2297 
L 2309 1388 
L 347 1388 
L 347 2297 
z
" transform="scale(0.015625)"/>
      <path id="DejaVuSans-Bold-53" d="M 3834 4519 
L 3834 3531 
Q 3450 3703 3084 3790 
Q 2719 3878 2394 3878 
Q 1963 3878 1756 3759 
Q 1550 3641 1550 3391 
Q 1550 3203 1689 3098 
Q 1828 2994 2194 2919 
L 2706 2816 
Q 3484 2659 3812 2340 
Q 4141 2022 4141 1434 
Q 4141 663 3683 286 
Q 3225 -91 2284 -91 
Q 1841 -91 1394 -6 
Q 947 78 500 244 
L 500 1259 
Q 947 1022 1364 901 
Q 1781 781 2169 781 
Q 2563 781 2772 912 
Q 2981 1044 2981 1288 
Q 2981 1506 2839 1625 
Q 2697 1744 2272 1838 
L 1806 1941 
Q 1106 2091 782 2419 
Q 459 2747 459 3303 
Q 459 4000 909 4375 
Q 1359 4750 2203 4750 
Q 2588 4750 2994 4692 
Q 3400 4634 3834 4519 
z
" transform="scale(0.015625)"/>
     </defs>
     <use xlink:href="#DejaVuSans-Bold-4f"/>
     <use xlink:href="#DejaVuSans-Bold-70" transform="translate(85.009766 0)"/>
     <use xlink:href="#DejaVuSans-Bold-65" transform="translate(156.591797 0)"/>
     <use xlink:href="#DejaVuSans-Bold-6e" transform="translate(224.414062 0)"/>
     <use xlink:href="#DejaVuSans-Bold-2d" transform="translate(295.605469 0)"/>
     <use xlink:href="#DejaVuSans-Bold-53" transform="translate(337.109375 0)"/>
     <use xlink:href="#DejaVuSans-Bold-6f" transform="translate(409.130859 0)"/>
     <use xlink:href="#DejaVuSans-Bold-75" transform="translate(477.832031 0)"/>
     <use xlink:href="#DejaVuSans-Bold-72" transform="translate(549.023438 0)"/>
     <use xlink:href="#DejaVuSans-Bold-63" transform="translate(598.339844 0)"/>
     <use xlink:href="#DejaVuSans-Bold-65" transform="translate(657.617188 0)"/>
    </g>
    <!-- Cannibalization -->
    <g style="fill: #2563eb" transform="translate(297.607375 291.756712) scale(0.11 -0.11)">
     <use xlink:href="#DejaVuSans-Bold-43"/>
     <use xlink:href="#DejaVuSans-Bold-61" transform="translate(73.388672 0)"/>
     <use xlink:href="#DejaVuSans-Bold-6e" transform="translate(140.869141 0)"/>
     <use xlink:href="#DejaVuSans-Bold-6e" transform="translate(212.060547 0)"/>
     <use xlink:href="#DejaVuSans-Bold-69" transform="translate(283.251953 0)"/>
     <use xlink:href="#DejaVuSans-Bold-62" transform="translate(317.529297 0)"/>
     <use xlink:href="#DejaVuSans-Bold-61" transform="translate(389.111328 0)"/>
     <use xlink:href="#DejaVuSans-Bold-6c" transform="translate(456.591797 0)"/>
     <use xlink:href="#DejaVuSans-Bold-69" transform="translate(490.869141 0)"/>
     <use xlink:href="#DejaVuSans-Bold-7a" transform="translate(525.146484 0)"/>
     <use xlink:href="#DejaVuSans-Bold-61" transform="translate(583.349609 0)"/>
     <use xlink:href="#DejaVuSans-Bold-74" transform="translate(650.830078 0)"/>
     <use xlink:href="#DejaVuSans-Bold-69" transform="translate(698.632812 0)"/>
     <use xlink:href="#DejaVuSans-Bold-6f" transform="translate(732.910156 0)"/>
     <use xlink:href="#DejaVuSans-Bold-6e" transform="translate(801.611328 0)"/>
    </g>
   </g>
   <g id="text_20">
    <!-- Key Person -->
    <g style="fill: #16a34a" transform="translate(218.683875 340.894781) scale(0.11 -0.11)">
     <defs>
      <path id="DejaVuSans-Bold-4b" d="M 588 4666 
L 1791 4666 
L 1791 2963 
L 3525 4666 
L 4922 4666 
L 2675 2456 
L 5153 0 
L 3647 0 
L 1791 1838 
L 1791 0 
L 588 0 
L 588 4666 
z
" transform="scale(0.015625)"/>
      <path id="DejaVuSans-Bold-73" d="M 3272 3391 
L 3272 2541 
Q 2913 2691 2578 2766 
Q 2244 2841 1947 2841 
Q 1628 2841 1473 2761 
Q 1319 2681 1319 2516 
Q 1319 2381 1436 2309 
Q 1553 2238 1856 2203 
L 2053 2175 
Q 2913 2066 3209 1816 
Q 3506 1566 3506 1031 
Q 3506 472 3093 190 
Q 2681 -91 1863 -91 
Q 1516 -91 1145 -36 
Q 775 19 384 128 
L 384 978 
Q 719 816 1070 734 
Q 1422 653 1784 653 
Q 2113 653 2278 743 
Q 2444 834 2444 1013 
Q 2444 1163 2330 1236 
Q 2216 1309 1875 1350 
L 1678 1375 
Q 931 1469 631 1722 
Q 331 1975 331 2491 
Q 331 3047 712 3315 
Q 1094 3584 1881 3584 
Q 2191 3584 2531 3537 
Q 2872 3491 3272 3391 
z
" transform="scale(0.015625)"/>
     </defs>
     <use xlink:href="#DejaVuSans-Bold-4b"/>
     <use xlink:href="#DejaVuSans-Bold-65" transform="translate(75.740234 0)"/>
     <use xlink:href="#DejaVuSans-Bold-79" transform="translate(143.5625 0)"/>
     <use xlink:href="#DejaVuSans-Bold-20" transform="translate(208.748047 0)"/>
     <use xlink:href="#DejaVuSans-Bold-50" transform="translate(243.5625 0)"/>
     <use xlink:href="#DejaVuSans-Bold-65" transform="translate(316.853516 0)"/>
     <use xlink:href="#DejaVuSans-Bold-72" transform="translate(384.675781 0)"/>
     <use xlink:href="#DejaVuSans-Bold-73" transform="translate(433.992188 0)"/>
     <use xlink:href="#DejaVuSans-Bold-6f" transform="translate(493.513672 0)"/>
     <use xlink:href="#DejaVuSans-Bold-6e" transform="translate(562.214844 0)"/>
    </g>
    <!-- Risk -->
    <g style="fill: #16a34a" transform="translate(218.683875 353.298312) scale(0.11 -0.11)">
     <defs>
      <path id="DejaVuSans-Bold-6b" d="M 538 4863 
L 1656 4863 
L 1656 2216 
L 2944 3500 
L 4244 3500 
L 2534 1894 
L 4378 0 
L 3022 0 
L 1656 1459 
L 1656 0 
L 538 0 
L 538 4863 
z
" transform="scale(0.015625)"/>
     </defs>
     <use xlink:href="#DejaVuSans-Bold-52"/>
     <use xlink:href="#DejaVuSans-Bold-69" transform="translate(77.001953 0)"/>
     <use xlink:href="#DejaVuSans-Bold-73" transform="translate(111.279297 0)"/>
     <use xlink:href="#DejaVuSans-Bold-6b" transform="translate(170.800781 0)"/>
    </g>
   </g>
   <g id="text_21">
    <!-- HIGH PROBABILITY -->
    <g style="fill: #dc2626; opacity: 0.5" transform="translate(578.841563 72.923737) scale(0.12 -0.12)">
     <defs>
      <path id="DejaVuSans-Bold-42" d="M 2456 2859 
Q 2741 2859 2887 2984 
Q 3034 3109 3034 3353 
Q 3034 3594 2887 3720 
Q 2741 3847 2456 3847 
L 1791 3847 
L 1791 2859 
L 2456 2859 
z
M 2497 819 
Q 2859 819 3042 972 
Q 3225 1125 3225 1434 
Q 3225 1738 3044 1889 
Q 2863 2041 2497 2041 
L 1791 2041 
L 1791 819 
L 2497 819 
z
M 3616 2497 
Q 4003 2384 4215 2081 
Q 4428 1778 4428 1338 
Q 4428 663 3972 331 
Q 3516 0 2584 0 
L 588 0 
L 588 4666 
L 2394 4666 
Q 3366 4666 3802 4372 
Q 4238 4078 4238 3431 
Q 4238 3091 4078 2852 
Q 3919 2613 3616 2497 
z
" transform="scale(0.015625)"/>
      <path id="DejaVuSans-Bold-4c" d="M 588 4666 
L 1791 4666 
L 1791 909 
L 3903 909 
L 3903 0 
L 588 0 
L 588 4666 
z
" transform="scale(0.015625)"/>
      <path id="DejaVuSans-Bold-54" d="M 31 4666 
L 4331 4666 
L 4331 3756 
L 2784 3756 
L 2784 0 
L 1581 0 
L 1581 3756 
L 31 3756 
L 31 4666 
z
" transform="scale(0.015625)"/>
      <path id="DejaVuSans-Bold-59" d="M -63 4666 
L 1253 4666 
L 2316 3003 
L 3378 4666 
L 4697 4666 
L 2919 1966 
L 2919 0 
L 1716 0 
L 1716 1966 
L -63 4666 
z
" transform="scale(0.015625)"/>
     </defs>
     <use xlink:href="#DejaVuSans-Bold-48"/>
     <use xlink:href="#DejaVuSans-Bold-49" transform="translate(83.691406 0)"/>
     <use xlink:href="#DejaVuSans-Bold-47" transform="translate(120.898438 0)"/>
     <use xlink:href="#DejaVuSans-Bold-48" transform="translate(202.978516 0)"/>
     <use xlink:href="#DejaVuSans-Bold-20" transform="translate(286.669922 0)"/>
     <use xlink:href="#DejaVuSans-Bold-50" transform="translate(321.484375 0)"/>
     <use xlink:href="#DejaVuSans-Bold-52" transform="translate(394.775391 0)"/>
     <use xlink:href="#DejaVuSans-Bold-4f" transform="translate(471.777344 0)"/>
     <use xlink:href="#DejaVuSans-Bold-42" transform="translate(556.787109 0)"/>
     <use xlink:href="#DejaVuSans-Bold-41" transform="translate(633.007812 0)"/>
     <use xlink:href="#DejaVuSans-Bold-42" transform="translate(710.400391 0)"/>
     <use xlink:href="#DejaVuSans-Bold-49" transform="translate(786.621094 0)"/>
     <use xlink:href="#DejaVuSans-Bold-4c" transform="translate(823.828125 0)"/>
     <use xlink:href="#DejaVuSans-Bold-49" transform="translate(887.548828 0)"/>
     <use xlink:href="#DejaVuSans-Bold-54" transform="translate(924.755859 0)"/>
     <use xlink:href="#DejaVuSans-Bold-59" transform="translate(992.96875 0)"/>
    </g>
    <!-- HIGH IMPACT -->
    <g style="fill: #dc2626; opacity: 0.5" transform="translate(598.281563 86.361112) scale(0.12 -0.12)">
     <use xlink:href="#DejaVuSans-Bold-48"/>
     <use xlink:href="#DejaVuSans-Bold-49" transform="translate(83.691406 0)"/>
     <use xlink:href="#DejaVuSans-Bold-47" transform="translate(120.898438 0)"/>
     <use xlink:href="#DejaVuSans-Bold-48" transform="translate(202.978516 0)"/>
     <use xlink:href="#DejaVuSans-Bold-20" transform="translate(286.669922 0)"/>
     <use xlink:href="#DejaVuSans-Bold-49" transform="translate(321.484375 0)"/>
     <use xlink:href="#DejaVuSans-Bold-4d" transform="translate(358.691406 0)"/>
     <use xlink:href="#DejaVuSans-Bold-50" transform="translate(458.203125 0)"/>
     <use xlink:href="#DejaVuSans-Bold-41" transform="translate(522.369141 0)"/>
     <use xlink:href="#DejaVuSans-Bold-43" transform="translate(599.761719 0)"/>
     <use xlink:href="#DejaVuSans-Bold-54" transform="translate(673.150391 0)"/>
    </g>
   </g>
   <g id="text_22">
    <!-- LOW PROBABILITY -->
    <g style="fill: #2563eb; opacity: 0.5" transform="translate(186.099063 72.923737) scale(0.12 -0.12)">
     <defs>
      <path id="DejaVuSans-Bold-57" d="M 191 4666 
L 1344 4666 
L 2150 1275 
L 2950 4666 
L 4109 4666 
L 4909 1275 
L 5716 4666 
L 6859 4666 
L 5759 0 
L 4372 0 
L 3525 3547 
L 2688 0 
L 1300 0 
L 191 4666 
z
" transform="scale(0.015625)"/>
     </defs>
     <use xlink:href="#DejaVuSans-Bold-4c"/>
     <use xlink:href="#DejaVuSans-Bold-4f" transform="translate(60.095703 0)"/>
     <use xlink:href="#DejaVuSans-Bold-57" transform="translate(145.105469 0)"/>
     <use xlink:href="#DejaVuSans-Bold-20" transform="translate(255.408203 0)"/>
     <use xlink:href="#DejaVuSans-Bold-50" transform="translate(290.222656 0)"/>
     <use xlink:href="#DejaVuSans-Bold-52" transform="translate(363.513672 0)"/>
     <use xlink:href="#DejaVuSans-Bold-4f" transform="translate(440.515625 0)"/>
     <use xlink:href="#DejaVuSans-Bold-42" transform="translate(525.525391 0)"/>
     <use xlink:href="#DejaVuSans-Bold-41" transform="translate(601.746094 0)"/>
     <use xlink:href="#DejaVuSans-Bold-42" transform="translate(679.138672 0)"/>
     <use xlink:href="#DejaVuSans-Bold-49" transform="translate(755.359375 0)"/>
     <use xlink:href="#DejaVuSans-Bold-4c" transform="translate(792.566406 0)"/>
     <use xlink:href="#DejaVuSans-Bold-49" transform="translate(856.287109 0)"/>
     <use xlink:href="#DejaVuSans-Bold-54" transform="translate(893.494141 0)"/>
     <use xlink:href="#DejaVuSans-Bold-59" transform="translate(961.707031 0)"/>
    </g>
    <!-- HIGH IMPACT -->
    <g style="fill: #2563eb; opacity: 0.5" transform="translate(203.664063 86.361112) scale(0.12 -0.12)">
     <use xlink:href="#DejaVuSans-Bold-48"/>
     <use xlink:href="#DejaVuSans-Bold-49" transform="translate(83.691406 0)"/>
     <use xlink:href="#DejaVuSans-Bold-47" transform="translate(120.898438 0)"/>
     <use xlink:href="#DejaVuSans-Bold-48" transform="translate(202.978516 0)"/>
     <use xlink:href="#DejaVuSans-Bold-20" transform="translate(286.669922 0)"/>
     <use xlink:href="#DejaVuSans-Bold-49" transform="translate(321.484375 0)"/>
     <use xlink:href="#DejaVuSans-Bold-4d" transform="translate(358.691406 0)"/>
     <use xlink:href="#DejaVuSans-Bold-50" transform="translate(458.203125 0)"/>
     <use xlink:href="#DejaVuSans-Bold-41" transform="translate(522.369141 0)"/>
     <use xlink:href="#DejaVuSans-Bold-43" transform="translate(599.761719 0)"/>
     <use xlink:href="#DejaVuSans-Bold-54" transform="translate(673.150391 0)"/>
    </g>
   </g>
   <g id="text_23">
    <!-- HIGH PROBABILITY -->
    <g style="fill: #f59e0b; opacity: 0.5" transform="translate(578.841563 503.714937) scale(0.12 -0.12)">
     <use xlink:href="#DejaVuSans-Bold-48"/>
     <use xlink:href="#DejaVuSans-Bold-49" transform="translate(83.691406 0)"/>
     <use xlink:href="#DejaVuSans-Bold-47" transform="translate(120.898438 0)"/>
     <use xlink:href="#DejaVuSans-Bold-48" transform="translate(202.978516 0)"/>
     <use xlink:href="#DejaVuSans-Bold-20" transform="translate(286.669922 0)"/>
     <use xlink:href="#DejaVuSans-Bold-50" transform="translate(321.484375 0)"/>
     <use xlink:href="#DejaVuSans-Bold-52" transform="translate(394.775391 0)"/>
     <use xlink:href="#DejaVuSans-Bold-4f" transform="translate(471.777344 0)"/>
     <use xlink:href="#DejaVuSans-Bold-42" transform="translate(556.787109 0)"/>
     <use xlink:href="#DejaVuSans-Bold-41" transform="translate(633.007812 0)"/>
     <use xlink:href="#DejaVuSans-Bold-42" transform="translate(710.400391 0)"/>
     <use xlink:href="#DejaVuSans-Bold-49" transform="translate(786.621094 0)"/>
     <use xlink:href="#DejaVuSans-Bold-4c" transform="translate(823.828125 0)"/>
     <use xlink:href="#DejaVuSans-Bold-49" transform="translate(887.548828 0)"/>
     <use xlink:href="#DejaVuSans-Bold-54" transform="translate(924.755859 0)"/>
     <use xlink:href="#DejaVuSans-Bold-59" transform="translate(992.96875 0)"/>
    </g>
    <!-- LOW IMPACT -->
    <g style="fill: #f59e0b; opacity: 0.5" transform="translate(600.156563 517.152312) scale(0.12 -0.12)">
     <use xlink:href="#DejaVuSans-Bold-4c"/>
     <use xlink:href="#DejaVuSans-Bold-4f" transform="translate(60.095703 0)"/>
     <use xlink:href="#DejaVuSans-Bold-57" transform="translate(145.105469 0)"/>
     <use xlink:href="#DejaVuSans-Bold-20" transform="translate(255.408203 0)"/>
     <use xlink:href="#DejaVuSans-Bold-49" transform="translate(290.222656 0)"/>
     <use xlink:href="#DejaVuSans-Bold-4d" transform="translate(327.429688 0)"/>
     <use xlink:href="#DejaVuSans-Bold-50" transform="translate(426.941406 0)"/>
     <use xlink:href="#DejaVuSans-Bold-41" transform="translate(491.107422 0)"/>
     <use xlink:href="#DejaVuSans-Bold-43" transform="translate(568.5 0)"/>
     <use xlink:href="#DejaVuSans-Bold-54" transform="translate(641.888672 0)"/>
    </g>
   </g>
   <g id="text_24">
    <!-- LOW PROBABILITY -->
    <g style="fill: #16a34a; opacity: 0.5" transform="translate(186.099063 503.714937) scale(0.12 -0.12)">
     <use xlink:href="#DejaVuSans-Bold-4c"/>
     <use xlink:href="#DejaVuSans-Bold-4f" transform="translate(60.095703 0)"/>
     <use xlink:href="#DejaVuSans-Bold-57" transform="translate(145.105469 0)"/>
     <use xlink:href="#DejaVuSans-Bold-20" transform="translate(255.408203 0)"/>
     <use xlink:href="#DejaVuSans-Bold-50" transform="translate(290.222656 0)"/>
     <use xlink:href="#DejaVuSans-Bold-52" transform="translate(363.513672 0)"/>
     <use xlink:href="#DejaVuSans-Bold-4f" transform="translate(440.515625 0)"/>
     <use xlink:href="#DejaVuSans-Bold-42" transform="translate(525.525391 0)"/>
     <use xlink:href="#DejaVuSans-Bold-41" transform="translate(601.746094 0)"/>
     <use xlink:href="#DejaVuSans-Bold-42" transform="translate(679.138672 0)"/>
     <use xlink:href="#DejaVuSans-Bold-49" transform="translate(755.359375 0)"/>
     <use xlink:href="#DejaVuSans-Bold-4c" transform="translate(792.566406 0)"/>
     <use xlink:href="#DejaVuSans-Bold-49" transform="translate(856.287109 0)"/>
     <use xlink:href="#DejaVuSans-Bold-54" transform="translate(893.494141 0)"/>
     <use xlink:href="#DejaVuSans-Bold-59" transform="translate(961.707031 0)"/>
    </g>
    <!-- LOW IMPACT -->
    <g style="fill: #16a34a; opacity: 0.5" transform="translate(205.539063 517.152312) scale(0.12 -0.12)">
     <use xlink:href="#DejaVuSans-Bold-4c"/>
     <use xlink:href="#DejaVuSans-Bold-4f" transform="translate(60.095703 0)"/>
     <use xlink:href="#DejaVuSans-Bold-57" transform="translate(145.105469 0)"/>
     <use xlink:href="#DejaVuSans-Bold-20" transform="translate(255.408203 0)"/>
     <use xlink:href="#DejaVuSans-Bold-49" transform="translate(290.222656 0)"/>
     <use xlink:href="#DejaVuSans-Bold-4d" transform="translate(327.429688 0)"/>
     <use xlink:href="#DejaVuSans-Bold-50" transform="translate(426.941406 0)"/>
     <use xlink:href="#DejaVuSans-Bold-41" transform="translate(491.107422 0)"/>
     <use xlink:href="#DejaVuSans-Bold-43" transform="translate(568.5 0)"/>
     <use xlink:href="#DejaVuSans-Bold-54" transform="translate(641.888672 0)"/>
    </g>
   </g>
   <g id="text_25">
    <!-- GitLab (GTLB) Risk Assessment: Probability vs. Impact -->
    <g transform="translate(214.807109 18.597656) scale(0.15 -0.15)">
     <defs>
      <path id="DejaVuSans-Bold-3a" d="M 716 3500 
L 1844 3500 
L 1844 2291 
L 716 2291 
L 716 3500 
z
M 716 1209 
L 1844 1209 
L 1844 0 
L 716 0 
L 716 1209 
z
" transform="scale(0.015625)"/>
      <path id="DejaVuSans-Bold-76" d="M 97 3500 
L 1216 3500 
L 2088 1081 
L 2956 3500 
L 4078 3500 
L 2700 0 
L 1472 0 
L 97 3500 
z
" transform="scale(0.015625)"/>
      <path id="DejaVuSans-Bold-2e" d="M 653 1209 
L 1778 1209 
L 1778 0 
L 653 0 
L 653 1209 
z
" transform="scale(0.015625)"/>
     </defs>
     <use xlink:href="#DejaVuSans-Bold-47"/>
     <use xlink:href="#DejaVuSans-Bold-69" transform="translate(82.080078 0)"/>
     <use xlink:href="#DejaVuSans-Bold-74" transform="translate(116.357422 0)"/>
     <use xlink:href="#DejaVuSans-Bold-4c" transform="translate(164.160156 0)"/>
     <use xlink:href="#DejaVuSans-Bold-61" transform="translate(227.880859 0)"/>
     <use xlink:href="#DejaVuSans-Bold-62" transform="translate(295.361328 0)"/>
     <use xlink:href="#DejaVuSans-Bold-20" transform="translate(366.943359 0)"/>
     <use xlink:href="#DejaVuSans-Bold-28" transform="translate(401.757812 0)"/>
     <use xlink:href="#DejaVuSans-Bold-47" transform="translate(447.460938 0)"/>
     <use xlink:href="#DejaVuSans-Bold-54" transform="translate(527.791016 0)"/>
     <use xlink:href="#DejaVuSans-Bold-4c" transform="translate(596.003906 0)"/>
     <use xlink:href="#DejaVuSans-Bold-42" transform="translate(659.724609 0)"/>
     <use xlink:href="#DejaVuSans-Bold-29" transform="translate(735.945312 0)"/>
     <use xlink:href="#DejaVuSans-Bold-20" transform="translate(781.648438 0)"/>
     <use xlink:href="#DejaVuSans-Bold-52" transform="translate(816.462891 0)"/>
     <use xlink:href="#DejaVuSans-Bold-69" transform="translate(893.464844 0)"/>
     <use xlink:href="#DejaVuSans-Bold-73" transform="translate(927.742188 0)"/>
     <use xlink:href="#DejaVuSans-Bold-6b" transform="translate(987.263672 0)"/>
     <use xlink:href="#DejaVuSans-Bold-20" transform="translate(1053.767578 0)"/>
     <use xlink:href="#DejaVuSans-Bold-41" transform="translate(1088.582031 0)"/>
     <use xlink:href="#DejaVuSans-Bold-73" transform="translate(1165.974609 0)"/>
     <use xlink:href="#DejaVuSans-Bold-73" transform="translate(1225.496094 0)"/>
     <use xlink:href="#DejaVuSans-Bold-65" transform="translate(1285.017578 0)"/>
     <use xlink:href="#DejaVuSans-Bold-73" transform="translate(1352.839844 0)"/>
     <use xlink:href="#DejaVuSans-Bold-73" transform="translate(1412.361328 0)"/>
     <use xlink:href="#DejaVuSans-Bold-6d" transform="translate(1471.882812 0)"/>
     <use xlink:href="#DejaVuSans-Bold-65" transform="translate(1576.082031 0)"/>
     <use xlink:href="#DejaVuSans-Bold-6e" transform="translate(1643.904297 0)"/>
     <use xlink:href="#DejaVuSans-Bold-74" transform="translate(1715.095703 0)"/>
     <use xlink:href="#DejaVuSans-Bold-3a" transform="translate(1762.898438 0)"/>
     <use xlink:href="#DejaVuSans-Bold-20" transform="translate(1802.888672 0)"/>
     <use xlink:href="#DejaVuSans-Bold-50" transform="translate(1837.703125 0)"/>
     <use xlink:href="#DejaVuSans-Bold-72" transform="translate(1910.994141 0)"/>
     <use xlink:href="#DejaVuSans-Bold-6f" transform="translate(1960.310547 0)"/>
     <use xlink:href="#DejaVuSans-Bold-62" transform="translate(2029.011719 0)"/>
     <use xlink:href="#DejaVuSans-Bold-61" transform="translate(2100.59375 0)"/>
     <use xlink:href="#DejaVuSans-Bold-62" transform="translate(2168.074219 0)"/>
     <use xlink:href="#DejaVuSans-Bold-69" transform="translate(2239.65625 0)"/>
     <use xlink:href="#DejaVuSans-Bold-6c" transform="translate(2273.933594 0)"/>
     <use xlink:href="#DejaVuSans-Bold-69" transform="translate(2308.210938 0)"/>
     <use xlink:href="#DejaVuSans-Bold-74" transform="translate(2342.488281 0)"/>
     <use xlink:href="#DejaVuSans-Bold-79" transform="translate(2390.291016 0)"/>
     <use xlink:href="#DejaVuSans-Bold-20" transform="translate(2455.476562 0)"/>
     <use xlink:href="#DejaVuSans-Bold-76" transform="translate(2490.291016 0)"/>
     <use xlink:href="#DejaVuSans-Bold-73" transform="translate(2555.476562 0)"/>
     <use xlink:href="#DejaVuSans-Bold-2e" transform="translate(2614.998047 0)"/>
     <use xlink:href="#DejaVuSans-Bold-20" transform="translate(2652.986328 0)"/>
     <use xlink:href="#DejaVuSans-Bold-49" transform="translate(2687.800781 0)"/>
     <use xlink:href="#DejaVuSans-Bold-6d" transform="translate(2725.007812 0)"/>
     <use xlink:href="#DejaVuSans-Bold-70" transform="translate(2829.207031 0)"/>
     <use xlink:href="#DejaVuSans-Bold-61" transform="translate(2900.789062 0)"/>
     <use xlink:href="#DejaVuSans-Bold-63" transform="translate(2968.269531 0)"/>
     <use xlink:href="#DejaVuSans-Bold-74" transform="translate(3027.546875 0)"/>
    </g>
    <!-- Bubble size = overall risk score | Color = risk category -->
    <g transform="translate(215.410625 35.590312) scale(0.15 -0.15)">
     <defs>
      <path id="DejaVuSans-Bold-3d" d="M 678 3084 
L 4684 3084 
L 4684 2350 
L 678 2350 
L 678 3084 
z
M 678 1663 
L 4684 1663 
L 4684 922 
L 678 922 
L 678 1663 
z
" transform="scale(0.015625)"/>
      <path id="DejaVuSans-Bold-7c" d="M 1522 4891 
L 1522 -1509 
L 813 -1509 
L 813 4891 
L 1522 4891 
z
" transform="scale(0.015625)"/>
      <path id="DejaVuSans-Bold-67" d="M 2919 594 
Q 2688 288 2409 144 
Q 2131 0 1766 0 
Q 1125 0 706 504 
Q 288 1009 288 1791 
Q 288 2575 706 3076 
Q 1125 3578 1766 3578 
Q 2131 3578 2409 3434 
Q 2688 3291 2919 2981 
L 2919 3500 
L 4044 3500 
L 4044 353 
Q 4044 -491 3511 -936 
Q 2978 -1381 1966 -1381 
Q 1638 -1381 1331 -1331 
Q 1025 -1281 716 -1178 
L 716 -306 
Q 1009 -475 1290 -558 
Q 1572 -641 1856 -641 
Q 2406 -641 2662 -400 
Q 2919 -159 2919 353 
L 2919 594 
z
M 2181 2772 
Q 1834 2772 1640 2515 
Q 1447 2259 1447 1791 
Q 1447 1309 1634 1061 
Q 1822 813 2181 813 
Q 2531 813 2725 1069 
Q 2919 1325 2919 1791 
Q 2919 2259 2725 2515 
Q 2531 2772 2181 2772 
z
" transform="scale(0.015625)"/>
     </defs>
     <use xlink:href="#DejaVuSans-Bold-42"/>
     <use xlink:href="#DejaVuSans-Bold-75" transform="translate(76.220703 0)"/>
     <use xlink:href="#DejaVuSans-Bold-62" transform="translate(147.412109 0)"/>
     <use xlink:href="#DejaVuSans-Bold-62" transform="translate(218.994141 0)"/>
     <use xlink:href="#DejaVuSans-Bold-6c" transform="translate(290.576172 0)"/>
     <use xlink:href="#DejaVuSans-Bold-65" transform="translate(324.853516 0)"/>
     <use xlink:href="#DejaVuSans-Bold-20" transform="translate(392.675781 0)"/>
     <use xlink:href="#DejaVuSans-Bold-73" transform="translate(427.490234 0)"/>
     <use xlink:href="#DejaVuSans-Bold-69" transform="translate(487.011719 0)"/>
     <use xlink:href="#DejaVuSans-Bold-7a" transform="translate(521.289062 0)"/>
     <use xlink:href="#DejaVuSans-Bold-65" transform="translate(579.492188 0)"/>
     <use xlink:href="#DejaVuSans-Bold-20" transform="translate(647.314453 0)"/>
     <use xlink:href="#DejaVuSans-Bold-3d" transform="translate(682.128906 0)"/>
     <use xlink:href="#DejaVuSans-Bold-20" transform="translate(765.917969 0)"/>
     <use xlink:href="#DejaVuSans-Bold-6f" transform="translate(800.732422 0)"/>
     <use xlink:href="#DejaVuSans-Bold-76" transform="translate(869.433594 0)"/>
     <use xlink:href="#DejaVuSans-Bold-65" transform="translate(934.619141 0)"/>
     <use xlink:href="#DejaVuSans-Bold-72" transform="translate(1002.441406 0)"/>
     <use xlink:href="#DejaVuSans-Bold-61" transform="translate(1051.757812 0)"/>
     <use xlink:href="#DejaVuSans-Bold-6c" transform="translate(1119.238281 0)"/>
     <use xlink:href="#DejaVuSans-Bold-6c" transform="translate(1153.515625 0)"/>
     <use xlink:href="#DejaVuSans-Bold-20" transform="translate(1187.792969 0)"/>
     <use xlink:href="#DejaVuSans-Bold-72" transform="translate(1222.607422 0)"/>
     <use xlink:href="#DejaVuSans-Bold-69" transform="translate(1271.923828 0)"/>
     <use xlink:href="#DejaVuSans-Bold-73" transform="translate(1306.201172 0)"/>
     <use xlink:href="#DejaVuSans-Bold-6b" transform="translate(1365.722656 0)"/>
     <use xlink:href="#DejaVuSans-Bold-20" transform="translate(1432.226562 0)"/>
     <use xlink:href="#DejaVuSans-Bold-73" transform="translate(1467.041016 0)"/>
     <use xlink:href="#DejaVuSans-Bold-63" transform="translate(1526.5625 0)"/>
     <use xlink:href="#DejaVuSans-Bold-6f" transform="translate(1585.839844 0)"/>
     <use xlink:href="#DejaVuSans-Bold-72" transform="translate(1654.541016 0)"/>
     <use xlink:href="#DejaVuSans-Bold-65" transform="translate(1703.857422 0)"/>
     <use xlink:href="#DejaVuSans-Bold-20" transform="translate(1771.679688 0)"/>
     <use xlink:href="#DejaVuSans-Bold-7c" transform="translate(1806.494141 0)"/>
     <use xlink:href="#DejaVuSans-Bold-20" transform="translate(1843.017578 0)"/>
     <use xlink:href="#DejaVuSans-Bold-43" transform="translate(1877.832031 0)"/>
     <use xlink:href="#DejaVuSans-Bold-6f" transform="translate(1951.220703 0)"/>
     <use xlink:href="#DejaVuSans-Bold-6c" transform="translate(2019.921875 0)"/>
     <use xlink:href="#DejaVuSans-Bold-6f" transform="translate(2054.199219 0)"/>
     <use xlink:href="#DejaVuSans-Bold-72" transform="translate(2122.900391 0)"/>
     <use xlink:href="#DejaVuSans-Bold-20" transform="translate(2172.216797 0)"/>
     <use xlink:href="#DejaVuSans-Bold-3d" transform="translate(2207.03125 0)"/>
     <use xlink:href="#DejaVuSans-Bold-20" transform="translate(2290.820312 0)"/>
     <use xlink:href="#DejaVuSans-Bold-72" transform="translate(2325.634766 0)"/>
     <use xlink:href="#DejaVuSans-Bold-69" transform="translate(2374.951172 0)"/>
     <use xlink:href="#DejaVuSans-Bold-73" transform="translate(2409.228516 0)"/>
     <use xlink:href="#DejaVuSans-Bold-6b" transform="translate(2468.75 0)"/>
     <use xlink:href="#DejaVuSans-Bold-20" transform="translate(2535.253906 0)"/>
     <use xlink:href="#DejaVuSans-Bold-63" transform="translate(2570.068359 0)"/>
     <use xlink:href="#DejaVuSans-Bold-61" transform="translate(2629.345703 0)"/>
     <use xlink:href="#DejaVuSans-Bold-74" transform="translate(2696.826172 0)"/>
     <use xlink:href="#DejaVuSans-Bold-65" transform="translate(2744.628906 0)"/>
     <use xlink:href="#DejaVuSans-Bold-67" transform="translate(2812.451172 0)"/>
     <use xlink:href="#DejaVuSans-Bold-6f" transform="translate(2884.033203 0)"/>
     <use xlink:href="#DejaVuSans-Bold-72" transform="translate(2952.734375 0)"/>
     <use xlink:href="#DejaVuSans-Bold-79" transform="translate(3002.050781 0)"/>
    </g>
   </g>
   <g id="PathCollection_1">
    <defs>
     <path id="ma2643b410f" d="M 0 21.213203 
C 5.625807 21.213203 11.021954 18.978047 15 15 
C 18.978047 11.021954 21.213203 5.625807 21.213203 0 
C 21.213203 -5.625807 18.978047 -11.021954 15 -15 
C 11.021954 -18.978047 5.625807 -21.213203 0 -21.213203 
C -5.625807 -21.213203 -11.021954 -18.978047 -15 -15 
C -18.978047 -11.021954 -21.213203 -5.625807 -21.213203 0 
C -21.213203 5.625807 -18.978047 11.021954 -15 15 
C -11.021954 18.978047 -5.625807 21.213203 0 21.213203 
z
" style="stroke: #ffffff; stroke-opacity: 0.6; stroke-width: 2"/>
    </defs>
    <g clip-path="url(#pa3695b6c36)">
     <use xlink:href="#ma2643b410f" x="603.301375" y="117.131912" style="fill: #dc2626; fill-opacity: 0.6; stroke: #ffffff; stroke-opacity: 0.6; stroke-width: 2"/>
    </g>
   </g>
   <g id="PathCollection_2">
    <defs>
     <path id="maaeef5e627" d="M 0 20 
C 5.304062 20 10.391597 17.892674 14.142136 14.142136 
C 17.892674 10.391597 20 5.304062 20 0 
C 20 -5.304062 17.892674 -10.391597 14.142136 -14.142136 
C 10.391597 -17.892674 5.304062 -20 0 -20 
C -5.304062 -20 -10.391597 -17.892674 -14.142136 -14.142136 
C -17.892674 -10.391597 -20 -5.304062 -20 0 
C -20 5.304062 -17.892674 10.391597 -14.142136 14.142136 
C -10.391597 17.892674 -5.304062 20 0 20 
z
" style="stroke: #ffffff; stroke-opacity: 0.6; stroke-width: 2"/>
    </defs>
    <g clip-path="url(#pa3695b6c36)">
     <use xlink:href="#maaeef5e627" x="524.377875" y="178.673512" style="fill: #f59e0b; fill-opacity: 0.6; stroke: #ffffff; stroke-opacity: 0.6; stroke-width: 2"/>
    </g>
   </g>
   <g id="PathCollection_3">
    <defs>
     <path id="medceb97968" d="M 0 18.708287 
C 4.961496 18.708287 9.720449 16.737064 13.228757 13.228757 
C 16.737064 9.720449 18.708287 4.961496 18.708287 0 
C 18.708287 -4.961496 16.737064 -9.720449 13.228757 -13.228757 
C 9.720449 -16.737064 4.961496 -18.708287 0 -18.708287 
C -4.961496 -18.708287 -9.720449 -16.737064 -13.228757 -13.228757 
C -16.737064 -9.720449 -18.708287 -4.961496 -18.708287 0 
C -18.708287 4.961496 -16.737064 9.720449 -13.228757 13.228757 
C -9.720449 16.737064 -4.961496 18.708287 0 18.708287 
z
" style="stroke: #ffffff; stroke-opacity: 0.6; stroke-width: 2"/>
    </defs>
    <g clip-path="url(#pa3695b6c36)">
     <use xlink:href="#medceb97968" x="445.454375" y="178.673512" style="fill: #eab308; fill-opacity: 0.6; stroke: #ffffff; stroke-opacity: 0.6; stroke-width: 2"/>
    </g>
   </g>
   <g id="PathCollection_4">
    <defs>
     <path id="macf5e9fa23" d="M 0 17.320508 
C 4.593452 17.320508 8.999387 15.49551 12.247449 12.247449 
C 15.49551 8.999387 17.320508 4.593452 17.320508 0 
C 17.320508 -4.593452 15.49551 -8.999387 12.247449 -12.247449 
C 8.999387 -15.49551 4.593452 -17.320508 0 -17.320508 
C -4.593452 -17.320508 -8.999387 -15.49551 -12.247449 -12.247449 
C -15.49551 -8.999387 -17.320508 -4.593452 -17.320508 0 
C -17.320508 4.593452 -15.49551 8.999387 -12.247449 12.247449 
C -8.999387 15.49551 -4.593452 17.320508 0 17.320508 
z
" style="stroke: #ffffff; stroke-opacity: 0.6; stroke-width: 2"/>
    </defs>
    <g clip-path="url(#pa3695b6c36)">
     <use xlink:href="#macf5e9fa23" x="366.530875" y="240.215112" style="fill: #eab308; fill-opacity: 0.6; stroke: #ffffff; stroke-opacity: 0.6; stroke-width: 2"/>
    </g>
   </g>
   <g id="PathCollection_5">
    <defs>
     <path id="md575b92c66" d="M 0 15.811388 
C 4.193229 15.811388 8.215279 14.145401 11.18034 11.18034 
C 14.145401 8.215279 15.811388 4.193229 15.811388 0 
C 15.811388 -4.193229 14.145401 -8.215279 11.18034 -11.18034 
C 8.215279 -14.145401 4.193229 -15.811388 0 -15.811388 
C -4.193229 -15.811388 -8.215279 -14.145401 -11.18034 -11.18034 
C -14.145401 -8.215279 -15.811388 -4.193229 -15.811388 0 
C -15.811388 4.193229 -14.145401 8.215279 -11.18034 11.18034 
C -8.215279 14.145401 -4.193229 15.811388 0 15.811388 
z
" style="stroke: #ffffff; stroke-opacity: 0.6; stroke-width: 2"/>
    </defs>
    <g clip-path="url(#pa3695b6c36)">
     <use xlink:href="#md575b92c66" x="287.607375" y="301.756712" style="fill: #2563eb; fill-opacity: 0.6; stroke: #ffffff; stroke-opacity: 0.6; stroke-width: 2"/>
    </g>
   </g>
   <g id="PathCollection_6">
    <defs>
     <path id="mfbf5bc19b0" d="M 0 14.142136 
C 3.750538 14.142136 7.347969 12.652031 10 10 
C 12.652031 7.347969 14.142136 3.750538 14.142136 0 
C 14.142136 -3.750538 12.652031 -7.347969 10 -10 
C 7.347969 -12.652031 3.750538 -14.142136 0 -14.142136 
C -3.750538 -14.142136 -7.347969 -12.652031 -10 -10 
C -12.652031 -7.347969 -14.142136 -3.750538 -14.142136 0 
C -14.142136 3.750538 -12.652031 7.347969 -10 10 
C -7.347969 12.652031 -3.750538 14.142136 0 14.142136 
z
" style="stroke: #ffffff; stroke-opacity: 0.6; stroke-width: 2"/>
    </defs>
    <g clip-path="url(#pa3695b6c36)">
     <use xlink:href="#mfbf5bc19b0" x="208.683875" y="363.298312" style="fill: #16a34a; fill-opacity: 0.6; stroke: #ffffff; stroke-opacity: 0.6; stroke-width: 2"/>
    </g>
   </g>
  </g>
 </g>
 <defs>
  <clipPath id="pa3695b6c36">
   <rect x="50.836875" y="55.590312" width="789.235" height="615.416"/>
  </clipPath>
 </defs>
</svg>
