<?xml version="1.0" encoding="utf-8" standalone="no"?>
<!DOCTYPE svg PUBLIC "-//W3C//DTD SVG 1.1//EN"
  "http://www.w3.org/Graphics/SVG/1.1/DTD/svg11.dtd">
<svg xmlns:xlink="http://www.w3.org/1999/xlink" width="1144.8pt" height="860.1125pt" viewBox="0 0 1144.8 860.1125" xmlns="http://www.w3.org/2000/svg" version="1.1">
 <metadata>
  <rdf:RDF xmlns:dc="http://purl.org/dc/elements/1.1/" xmlns:cc="http://creativecommons.org/ns#" xmlns:rdf="http://www.w3.org/1999/02/22-rdf-syntax-ns#">
   <cc:Work>
    <dc:type rdf:resource="http://purl.org/dc/dcmitype/StillImage"/>
    <dc:date>2026-04-26T22:50:52.330721</dc:date>
    <dc:format>image/svg+xml</dc:format>
    <dc:creator>
     <cc:Agent>
      <dc:title>Matplotlib v3.10.9, https://matplotlib.org/</dc:title>
     </cc:Agent>
    </dc:creator>
   </cc:Work>
  </rdf:RDF>
 </metadata>
 <defs>
  <style type="text/css">*{stroke-linejoin: round; stroke-linecap: butt}</style>
 </defs>
 <g id="figure_1">
  <g id="patch_1">
   <path d="M 0 860.1125 
L 1144.8 860.1125 
L 1144.8 0 
L 0 0 
z
" style="fill: #ffffff"/>
  </g>
  <g id="axes_1">
   <g id="patch_2">
    <path d="M 133.059111 307.379512 
Q 176.759125 269.809253 219.187454 233.3323 
" style="fill: none; opacity: 0.6; stroke: #808080; stroke-width: 1.5; stroke-linecap: round"/>
    <path d="M 214.850465 234.423416 
L 219.187454 233.3323 
L 217.458154 237.45656 
" style="fill: none; opacity: 0.6; stroke: #808080; stroke-width: 1.5; stroke-linecap: round"/>
   </g>
   <g id="patch_3">
    <path d="M 133.059111 309.984688 
Q 176.759125 347.554947 219.187454 384.0319 
" style="fill: none; opacity: 0.6; stroke: #808080; stroke-width: 1.5; stroke-linecap: round"/>
    <path d="M 217.458154 379.90764 
L 219.187454 384.0319 
L 214.850465 382.940784 
" style="fill: none; opacity: 0.6; stroke: #808080; stroke-width: 1.5; stroke-linecap: round"/>
   </g>
   <g id="patch_4">
    <path d="M 133.059111 465.479088 
Q 176.759125 503.049347 219.187454 539.5263 
" style="fill: none; opacity: 0.6; stroke: #808080; stroke-width: 1.5; stroke-linecap: round"/>
    <path d="M 217.458154 535.40204 
L 219.187454 539.5263 
L 214.850465 538.435184 
" style="fill: none; opacity: 0.6; stroke: #808080; stroke-width: 1.5; stroke-linecap: round"/>
   </g>
   <g id="patch_5">
    <path d="M 133.059111 620.973488 
Q 176.759125 658.543747 219.187454 695.0207 
" style="fill: none; opacity: 0.6; stroke: #808080; stroke-width: 1.5; stroke-linecap: round"/>
    <path d="M 217.458154 690.89644 
L 219.187454 695.0207 
L 214.850465 693.929584 
" style="fill: none; opacity: 0.6; stroke: #808080; stroke-width: 1.5; stroke-linecap: round"/>
   </g>
   <g id="patch_6">
    <path d="M 133.059111 773.862712 
Q 176.759125 736.292453 219.187454 699.8155 
" style="fill: none; opacity: 0.6; stroke: #808080; stroke-width: 1.5; stroke-linecap: round"/>
    <path d="M 214.850465 700.906616 
L 219.187454 699.8155 
L 217.458154 703.93976 
" style="fill: none; opacity: 0.6; stroke: #808080; stroke-width: 1.5; stroke-linecap: round"/>
   </g>
   <g id="patch_7">
    <path d="M 359.459244 230.145992 
Q 402.839696 211.498231 444.679418 193.512776 
" style="fill: none; opacity: 0.6; stroke: #808080; stroke-width: 1.5; stroke-linecap: round"/>
    <path d="M 440.214715 193.255042 
L 444.679418 193.512776 
L 441.794409 196.929898 
" style="fill: none; opacity: 0.6; stroke: #808080; stroke-width: 1.5; stroke-linecap: round"/>
   </g>
   <g id="patch_8">
    <path d="M 358.124208 695.482902 
Q 402.840011 522.486857 447.136126 351.114499 
" style="fill: none; opacity: 0.6; stroke: #808080; stroke-width: 1.5; stroke-linecap: round"/>
    <path d="M 444.19875 354.486712 
L 447.136126 351.114499 
L 448.07147 355.487728 
" style="fill: none; opacity: 0.6; stroke: #808080; stroke-width: 1.5; stroke-linecap: round"/>
   </g>
   <g id="patch_9">
    <path d="M 358.852096 388.013048 
Q 402.840172 444.739922 445.800573 500.14151 
" style="fill: none; opacity: 0.6; stroke: #808080; stroke-width: 1.5; stroke-linecap: round"/>
    <path d="M 444.929921 495.754943 
L 445.800573 500.14151 
L 441.768929 498.206091 
" style="fill: none; opacity: 0.6; stroke: #808080; stroke-width: 1.5; stroke-linecap: round"/>
   </g>
   <g id="patch_10">
    <path d="M 585.219111 193.363888 
Q 628.919125 230.934147 671.347454 267.4111 
" style="fill: none; opacity: 0.6; stroke: #808080; stroke-width: 1.5; stroke-linecap: round"/>
    <path d="M 669.618154 263.28684 
L 671.347454 267.4111 
L 667.010465 266.319984 
" style="fill: none; opacity: 0.6; stroke: #808080; stroke-width: 1.5; stroke-linecap: round"/>
   </g>
   <g id="patch_11">
    <path d="M 584.425679 349.417049 
Q 628.918773 464.173335 672.805617 577.365985 
" style="fill: none; opacity: 0.6; stroke: #808080; stroke-width: 1.5; stroke-linecap: round"/>
    <path d="M 673.224371 572.913497 
L 672.805617 577.365985 
L 669.494879 574.359489 
" style="fill: none; opacity: 0.6; stroke: #808080; stroke-width: 1.5; stroke-linecap: round"/>
   </g>
   <g id="patch_12">
    <path d="M 585.219111 501.747512 
Q 628.919125 464.177253 671.347454 427.7003 
" style="fill: none; opacity: 0.6; stroke: #808080; stroke-width: 1.5; stroke-linecap: round"/>
    <path d="M 667.010465 428.791416 
L 671.347454 427.7003 
L 669.618154 431.82456 
" style="fill: none; opacity: 0.6; stroke: #808080; stroke-width: 1.5; stroke-linecap: round"/>
   </g>
   <g id="patch_13">
    <path d="M 808.469662 271.315137 
Q 741.959782 347.55595 676.552361 422.533006 
" style="fill: none; opacity: 0.6; stroke: #808080; stroke-width: 1.5; stroke-linecap: round"/>
    <path d="M 680.688999 420.833527 
L 676.552361 422.533006 
L 677.67476 418.204008 
" style="fill: none; opacity: 0.6; stroke: #808080; stroke-width: 1.5; stroke-linecap: round"/>
   </g>
   <g id="patch_14">
    <path d="M 809.226182 271.726793 
Q 741.959884 503.0505 675.161856 732.763859 
" style="fill: none; opacity: 0.6; stroke: #808080; stroke-width: 1.5; stroke-linecap: round"/>
    <path d="M 678.1992 729.481399 
L 675.161856 732.763859 
L 674.358295 728.364508 
" style="fill: none; opacity: 0.6; stroke: #808080; stroke-width: 1.5; stroke-linecap: round"/>
   </g>
   <g id="patch_15">
    <path d="M 808.984013 427.136963 
Q 741.959699 580.797991 675.605878 732.921833 
" style="fill: none; opacity: 0.6; stroke: #808080; stroke-width: 1.5; stroke-linecap: round"/>
    <path d="M 679.0383 730.055044 
L 675.605878 732.921833 
L 675.371899 728.455822 
" style="fill: none; opacity: 0.6; stroke: #808080; stroke-width: 1.5; stroke-linecap: round"/>
   </g>
   <g id="patch_16">
    <path d="M 808.469662 582.303937 
Q 741.959782 658.54475 676.552361 733.521806 
" style="fill: none; opacity: 0.6; stroke: #808080; stroke-width: 1.5; stroke-linecap: round"/>
    <path d="M 680.688999 731.822327 
L 676.552361 733.521806 
L 677.67476 729.192808 
" style="fill: none; opacity: 0.6; stroke: #808080; stroke-width: 1.5; stroke-linecap: round"/>
   </g>
   <g id="patch_17">
    <path d="M 811.012096 423.719152 
Q 855.000172 366.992278 897.960573 311.59069 
" style="fill: none; opacity: 0.6; stroke: #808080; stroke-width: 1.5; stroke-linecap: round"/>
    <path d="M 893.928929 313.526109 
L 897.960573 311.59069 
L 897.089921 315.977257 
" style="fill: none; opacity: 0.6; stroke: #808080; stroke-width: 1.5; stroke-linecap: round"/>
   </g>
   <g id="patch_18">
    <path d="M 810.414606 578.899768 
Q 854.999458 444.74133 899.055417 312.174361 
" style="fill: none; opacity: 0.6; stroke: #808080; stroke-width: 1.5; stroke-linecap: round"/>
    <path d="M 895.895998 315.339495 
L 899.055417 312.174361 
L 899.691872 316.600977 
" style="fill: none; opacity: 0.6; stroke: #808080; stroke-width: 1.5; stroke-linecap: round"/>
   </g>
   <g id="patch_19">
    <path d="M 810.197275 734.337521 
Q 854.999571 522.48893 899.454874 312.281099 
" style="fill: none; opacity: 0.6; stroke: #808080; stroke-width: 1.5; stroke-linecap: round"/>
    <path d="M 896.670527 315.78073 
L 899.454874 312.281099 
L 900.583971 316.608355 
" style="fill: none; opacity: 0.6; stroke: #808080; stroke-width: 1.5; stroke-linecap: round"/>
   </g>
   <g id="patch_20">
    <path d="M 359.457864 541.135385 
Q 628.918973 425.303341 896.839352 310.133604 
" style="fill: none; opacity: 0.6; stroke: #808080; stroke-width: 1.5; stroke-linecap: round"/>
    <path d="M 892.374649 309.87587 
L 896.839352 310.133604 
L 893.954343 313.550726 
" style="fill: none; opacity: 0.6; stroke: #808080; stroke-width: 1.5; stroke-linecap: round"/>
   </g>
   <g id="patch_21">
    <path d="M 132.450755 154.969565 
Q 289.800095 464.176687 446.388835 771.889155 
" style="fill: none; opacity: 0.6; stroke: #808080; stroke-width: 1.5; stroke-linecap: round"/>
    <path d="M 446.357178 767.417131 
L 446.388835 771.889155 
L 442.792222 769.231266 
" style="fill: none; opacity: 0.6; stroke: #808080; stroke-width: 1.5; stroke-linecap: round"/>
   </g>
   <g id="patch_22">
    <path d="M 131.815492 155.171685 
Q 176.760064 483.613765 221.477264 810.394278 
" style="fill: none; opacity: 0.6; stroke: #808080; stroke-width: 1.5; stroke-linecap: round"/>
    <path d="M 222.916484 806.160055 
L 221.477264 810.394278 
L 218.953418 806.702368 
" style="fill: none; opacity: 0.6; stroke: #808080; stroke-width: 1.5; stroke-linecap: round"/>
   </g>
   <g id="patch_23">
    <path d="M 133.228837 465.26288 
Q 402.842616 639.109387 671.046941 812.04708 
" style="fill: none; opacity: 0.6; stroke: #808080; stroke-width: 1.5; stroke-linecap: round"/>
    <path d="M 668.769022 808.198563 
L 671.046941 812.04708 
L 666.601376 811.560306 
" style="fill: none; opacity: 0.6; stroke: #808080; stroke-width: 1.5; stroke-linecap: round"/>
   </g>
   <g id="patch_24">
    <path d="M -4.104 184.28658 
L 131.544 184.28658 
L 131.544 122.08882 
L -4.104 122.08882 
z
" clip-path="url(#pc6b5409795)" style="fill: #fee2e2; stroke: #000000; stroke-width: 1.5; stroke-linejoin: miter"/>
   </g>
   <g id="patch_25">
    <path d="M -4.104 339.78098 
L 131.544 339.78098 
L 131.544 277.58322 
L -4.104 277.58322 
z
" clip-path="url(#pc6b5409795)" style="fill: #dbeafe; stroke: #000000; stroke-width: 1.5; stroke-linejoin: miter"/>
   </g>
   <g id="patch_26">
    <path d="M -4.104 495.27538 
L 131.544 495.27538 
L 131.544 433.07762 
L -4.104 433.07762 
z
" clip-path="url(#pc6b5409795)" style="fill: #d1fae5; stroke: #000000; stroke-width: 1.5; stroke-linejoin: miter"/>
   </g>
   <g id="patch_27">
    <path d="M -4.104 650.76978 
L 131.544 650.76978 
L 131.544 588.57202 
L -4.104 588.57202 
z
" clip-path="url(#pc6b5409795)" style="fill: #fef3c7; stroke: #000000; stroke-width: 1.5; stroke-linejoin: miter"/>
   </g>
   <g id="patch_28">
    <path d="M -4.104 806.26418 
L 131.544 806.26418 
L 131.544 744.06642 
L -4.104 744.06642 
z
" clip-path="url(#pc6b5409795)" style="fill: #dbeafe; stroke: #000000; stroke-width: 1.5; stroke-linejoin: miter"/>
   </g>
   <g id="patch_29">
    <path d="M 221.976 262.03378 
L 357.624 262.03378 
L 357.624 199.83602 
L 221.976 199.83602 
z
" clip-path="url(#pc6b5409795)" style="fill: #dbeafe; stroke: #000000; stroke-width: 1.5; stroke-linejoin: miter"/>
   </g>
   <g id="patch_30">
    <path d="M 221.976 417.52818 
L 357.624 417.52818 
L 357.624 355.33042 
L 221.976 355.33042 
z
" clip-path="url(#pc6b5409795)" style="fill: #dbeafe; stroke: #000000; stroke-width: 1.5; stroke-linejoin: miter"/>
   </g>
   <g id="patch_31">
    <path d="M 221.976 573.02258 
L 357.624 573.02258 
L 357.624 510.82482 
L 221.976 510.82482 
z
" clip-path="url(#pc6b5409795)" style="fill: #d1fae5; stroke: #000000; stroke-width: 1.5; stroke-linejoin: miter"/>
   </g>
   <g id="patch_32">
    <path d="M 221.976 728.51698 
L 357.624 728.51698 
L 357.624 666.31922 
L 221.976 666.31922 
z
" clip-path="url(#pc6b5409795)" style="fill: #fef3c7; stroke: #000000; stroke-width: 1.5; stroke-linejoin: miter"/>
   </g>
   <g id="patch_33">
    <path d="M 448.056 223.16018 
L 583.704 223.16018 
L 583.704 160.96242 
L 448.056 160.96242 
z
" clip-path="url(#pc6b5409795)" style="fill: #d1fae5; stroke: #000000; stroke-width: 1.5; stroke-linejoin: miter"/>
   </g>
   <g id="patch_34">
    <path d="M 448.056 378.65458 
L 583.704 378.65458 
L 583.704 316.45682 
L 448.056 316.45682 
z
" clip-path="url(#pc6b5409795)" style="fill: #fef3c7; stroke: #000000; stroke-width: 1.5; stroke-linejoin: miter"/>
   </g>
   <g id="patch_35">
    <path d="M 448.056 534.14898 
L 583.704 534.14898 
L 583.704 471.95122 
L 448.056 471.95122 
z
" clip-path="url(#pc6b5409795)" style="fill: #dbeafe; stroke: #000000; stroke-width: 1.5; stroke-linejoin: miter"/>
   </g>
   <g id="patch_36">
    <path d="M 674.136 300.90738 
L 809.784 300.90738 
L 809.784 238.70962 
L 674.136 238.70962 
z
" clip-path="url(#pc6b5409795)" style="fill: #dbeafe; stroke: #000000; stroke-width: 1.5; stroke-linejoin: miter"/>
   </g>
   <g id="patch_37">
    <path d="M 674.136 456.40178 
L 809.784 456.40178 
L 809.784 394.20402 
L 674.136 394.20402 
z
" clip-path="url(#pc6b5409795)" style="fill: #d1fae5; stroke: #000000; stroke-width: 1.5; stroke-linejoin: miter"/>
   </g>
   <g id="patch_38">
    <path d="M 674.136 611.89618 
L 809.784 611.89618 
L 809.784 549.69842 
L 674.136 549.69842 
z
" clip-path="url(#pc6b5409795)" style="fill: #fef3c7; stroke: #000000; stroke-width: 1.5; stroke-linejoin: miter"/>
   </g>
   <g id="patch_39">
    <path d="M 674.136 767.39058 
L 809.784 767.39058 
L 809.784 705.19282 
L 674.136 705.19282 
z
" clip-path="url(#pc6b5409795)" style="fill: #dbeafe; stroke: #000000; stroke-width: 1.5; stroke-linejoin: miter"/>
   </g>
   <g id="patch_40">
    <path d="M 448.056 806.26418 
L 583.704 806.26418 
L 583.704 744.06642 
L 448.056 744.06642 
z
" clip-path="url(#pc6b5409795)" style="fill: #fee2e2; stroke: #000000; stroke-width: 1.5; stroke-linejoin: miter"/>
   </g>
   <g id="patch_41">
    <path d="M 221.976 845.13778 
L 357.624 845.13778 
L 357.624 782.94002 
L 221.976 782.94002 
z
" clip-path="url(#pc6b5409795)" style="fill: #fee2e2; stroke: #000000; stroke-width: 1.5; stroke-linejoin: miter"/>
   </g>
   <g id="patch_42">
    <path d="M 674.136 845.13778 
L 809.784 845.13778 
L 809.784 782.94002 
L 674.136 782.94002 
z
" clip-path="url(#pc6b5409795)" style="fill: #fee2e2; stroke: #000000; stroke-width: 1.5; stroke-linejoin: miter"/>
   </g>
   <g id="patch_43">
    <path d="M 900.216 339.78098 
L 1035.864 339.78098 
L 1035.864 277.58322 
L 900.216 277.58322 
z
" clip-path="url(#pc6b5409795)" style="fill: #d1fae5; stroke: #000000; stroke-width: 1.5; stroke-linejoin: miter"/>
   </g>
   <g id="patch_44">
    <path d="M 1013.256 495.27538 
L 1148.904 495.27538 
L 1148.904 433.07762 
L 1013.256 433.07762 
z
" clip-path="url(#pc6b5409795)" style="fill: #d1fae5; stroke: #000000; stroke-width: 1.5; stroke-linejoin: miter"/>
   </g>
   <g id="text_1">
    <!-- Agent Reasoning Trail: From Data Sources to Investment Recommendation -->
    <g transform="translate(234.72875 19.3575) scale(0.16 -0.16)">
     <defs>
      <path id="DejaVuSans-Bold-41" d="M 3419 850 
L 1538 850 
L 1241 0 
L 31 0 
L 1759 4666 
L 3194 4666 
L 4922 0 
L 3713 0 
L 3419 850 
z
M 1838 1716 
L 3116 1716 
L 2478 3572 
L 1838 1716 
z
" transform="scale(0.015625)"/>
      <path id="DejaVuSans-Bold-67" d="M 2919 594 
Q 2688 288 2409 144 
Q 2131 0 1766 0 
Q 1125 0 706 504 
Q 288 1009 288 1791 
Q 288 2575 706 3076 
Q 1125 3578 1766 3578 
Q 2131 3578 2409 3434 
Q 2688 3291 2919 2981 
L 2919 3500 
L 4044 3500 
L 4044 353 
Q 4044 -491 3511 -936 
Q 2978 -1381 1966 -1381 
Q 1638 -1381 1331 -1331 
Q 1025 -1281 716 -1178 
L 716 -306 
Q 1009 -475 1290 -558 
Q 1572 -641 1856 -641 
Q 2406 -641 2662 -400 
Q 2919 -159 2919 353 
L 2919 594 
z
M 2181 2772 
Q 1834 2772 1640 2515 
Q 1447 2259 1447 1791 
Q 1447 1309 1634 1061 
Q 1822 813 2181 813 
Q 2531 813 2725 1069 
Q 2919 1325 2919 1791 
Q 2919 2259 2725 2515 
Q 2531 2772 2181 2772 
z
" transform="scale(0.015625)"/>
      <path id="DejaVuSans-Bold-65" d="M 4031 1759 
L 4031 1441 
L 1416 1441 
Q 1456 1047 1700 850 
Q 1944 653 2381 653 
Q 2734 653 3104 758 
Q 3475 863 3866 1075 
L 3866 213 
Q 3469 63 3072 -14 
Q 2675 -91 2278 -91 
Q 1328 -91 801 392 
Q 275 875 275 1747 
Q 275 2603 792 3093 
Q 1309 3584 2216 3584 
Q 3041 3584 3536 3087 
Q 4031 2591 4031 1759 
z
M 2881 2131 
Q 2881 2450 2695 2645 
Q 2509 2841 2209 2841 
Q 1884 2841 1681 2658 
Q 1478 2475 1428 2131 
L 2881 2131 
z
" transform="scale(0.015625)"/>
      <path id="DejaVuSans-Bold-6e" d="M 4056 2131 
L 4056 0 
L 2931 0 
L 2931 347 
L 2931 1631 
Q 2931 2084 2911 2256 
Q 2891 2428 2841 2509 
Q 2775 2619 2662 2680 
Q 2550 2741 2406 2741 
Q 2056 2741 1856 2470 
Q 1656 2200 1656 1722 
L 1656 0 
L 538 0 
L 538 3500 
L 1656 3500 
L 1656 2988 
Q 1909 3294 2193 3439 
Q 2478 3584 2822 3584 
Q 3428 3584 3742 3212 
Q 4056 2841 4056 2131 
z
" transform="scale(0.015625)"/>
      <path id="DejaVuSans-Bold-74" d="M 1759 4494 
L 1759 3500 
L 2913 3500 
L 2913 2700 
L 1759 2700 
L 1759 1216 
Q 1759 972 1856 886 
Q 1953 800 2241 800 
L 2816 800 
L 2816 0 
L 1856 0 
Q 1194 0 917 276 
Q 641 553 641 1216 
L 641 2700 
L 84 2700 
L 84 3500 
L 641 3500 
L 641 4494 
L 1759 4494 
z
" transform="scale(0.015625)"/>
      <path id="DejaVuSans-Bold-20" transform="scale(0.015625)"/>
      <path id="DejaVuSans-Bold-52" d="M 2297 2597 
Q 2675 2597 2839 2737 
Q 3003 2878 3003 3200 
Q 3003 3519 2839 3656 
Q 2675 3794 2297 3794 
L 1791 3794 
L 1791 2597 
L 2297 2597 
z
M 1791 1766 
L 1791 0 
L 588 0 
L 588 4666 
L 2425 4666 
Q 3347 4666 3776 4356 
Q 4206 4047 4206 3378 
Q 4206 2916 3982 2619 
Q 3759 2322 3309 2181 
Q 3556 2125 3751 1926 
Q 3947 1728 4147 1325 
L 4800 0 
L 3519 0 
L 2950 1159 
Q 2778 1509 2601 1637 
Q 2425 1766 2131 1766 
L 1791 1766 
z
" transform="scale(0.015625)"/>
      <path id="DejaVuSans-Bold-61" d="M 2106 1575 
Q 1756 1575 1579 1456 
Q 1403 1338 1403 1106 
Q 1403 894 1545 773 
Q 1688 653 1941 653 
Q 2256 653 2472 879 
Q 2688 1106 2688 1447 
L 2688 1575 
L 2106 1575 
z
M 3816 1997 
L 3816 0 
L 2688 0 
L 2688 519 
Q 2463 200 2181 54 
Q 1900 -91 1497 -91 
Q 953 -91 614 226 
Q 275 544 275 1050 
Q 275 1666 698 1953 
Q 1122 2241 2028 2241 
L 2688 2241 
L 2688 2328 
Q 2688 2594 2478 2717 
Q 2269 2841 1825 2841 
Q 1466 2841 1156 2769 
Q 847 2697 581 2553 
L 581 3406 
Q 941 3494 1303 3539 
Q 1666 3584 2028 3584 
Q 2975 3584 3395 3211 
Q 3816 2838 3816 1997 
z
" transform="scale(0.015625)"/>
      <path id="DejaVuSans-Bold-73" d="M 3272 3391 
L 3272 2541 
Q 2913 2691 2578 2766 
Q 2244 2841 1947 2841 
Q 1628 2841 1473 2761 
Q 1319 2681 1319 2516 
Q 1319 2381 1436 2309 
Q 1553 2238 1856 2203 
L 2053 2175 
Q 2913 2066 3209 1816 
Q 3506 1566 3506 1031 
Q 3506 472 3093 190 
Q 2681 -91 1863 -91 
Q 1516 -91 1145 -36 
Q 775 19 384 128 
L 384 978 
Q 719 816 1070 734 
Q 1422 653 1784 653 
Q 2113 653 2278 743 
Q 2444 834 2444 1013 
Q 2444 1163 2330 1236 
Q 2216 1309 1875 1350 
L 1678 1375 
Q 931 1469 631 1722 
Q 331 1975 331 2491 
Q 331 3047 712 3315 
Q 1094 3584 1881 3584 
Q 2191 3584 2531 3537 
Q 2872 3491 3272 3391 
z
" transform="scale(0.015625)"/>
      <path id="DejaVuSans-Bold-6f" d="M 2203 2784 
Q 1831 2784 1636 2517 
Q 1441 2250 1441 1747 
Q 1441 1244 1636 976 
Q 1831 709 2203 709 
Q 2569 709 2762 976 
Q 2956 1244 2956 1747 
Q 2956 2250 2762 2517 
Q 2569 2784 2203 2784 
z
M 2203 3584 
Q 3106 3584 3614 3096 
Q 4122 2609 4122 1747 
Q 4122 884 3614 396 
Q 3106 -91 2203 -91 
Q 1297 -91 786 396 
Q 275 884 275 1747 
Q 275 2609 786 3096 
Q 1297 3584 2203 3584 
z
" transform="scale(0.015625)"/>
      <path id="DejaVuSans-Bold-69" d="M 538 3500 
L 1656 3500 
L 1656 0 
L 538 0 
L 538 3500 
z
M 538 4863 
L 1656 4863 
L 1656 3950 
L 538 3950 
L 538 4863 
z
" transform="scale(0.015625)"/>
      <path id="DejaVuSans-Bold-54" d="M 31 4666 
L 4331 4666 
L 4331 3756 
L 2784 3756 
L 2784 0 
L 1581 0 
L 1581 3756 
L 31 3756 
L 31 4666 
z
" transform="scale(0.015625)"/>
      <path id="DejaVuSans-Bold-72" d="M 3138 2547 
Q 2991 2616 2845 2648 
Q 2700 2681 2553 2681 
Q 2122 2681 1889 2404 
Q 1656 2128 1656 1613 
L 1656 0 
L 538 0 
L 538 3500 
L 1656 3500 
L 1656 2925 
Q 1872 3269 2151 3426 
Q 2431 3584 2822 3584 
Q 2878 3584 2943 3579 
Q 3009 3575 3134 3559 
L 3138 2547 
z
" transform="scale(0.015625)"/>
      <path id="DejaVuSans-Bold-6c" d="M 538 4863 
L 1656 4863 
L 1656 0 
L 538 0 
L 538 4863 
z
" transform="scale(0.015625)"/>
      <path id="DejaVuSans-Bold-3a" d="M 716 3500 
L 1844 3500 
L 1844 2291 
L 716 2291 
L 716 3500 
z
M 716 1209 
L 1844 1209 
L 1844 0 
L 716 0 
L 716 1209 
z
" transform="scale(0.015625)"/>
      <path id="DejaVuSans-Bold-46" d="M 588 4666 
L 3834 4666 
L 3834 3756 
L 1791 3756 
L 1791 2888 
L 3713 2888 
L 3713 1978 
L 1791 1978 
L 1791 0 
L 588 0 
L 588 4666 
z
" transform="scale(0.015625)"/>
      <path id="DejaVuSans-Bold-6d" d="M 3781 2919 
Q 3994 3244 4286 3414 
Q 4578 3584 4928 3584 
Q 5531 3584 5847 3212 
Q 6163 2841 6163 2131 
L 6163 0 
L 5038 0 
L 5038 1825 
Q 5041 1866 5042 1909 
Q 5044 1953 5044 2034 
Q 5044 2406 4934 2573 
Q 4825 2741 4581 2741 
Q 4263 2741 4089 2478 
Q 3916 2216 3909 1719 
L 3909 0 
L 2784 0 
L 2784 1825 
Q 2784 2406 2684 2573 
Q 2584 2741 2328 2741 
Q 2006 2741 1831 2477 
Q 1656 2213 1656 1722 
L 1656 0 
L 531 0 
L 531 3500 
L 1656 3500 
L 1656 2988 
Q 1863 3284 2130 3434 
Q 2397 3584 2719 3584 
Q 3081 3584 3359 3409 
Q 3638 3234 3781 2919 
z
" transform="scale(0.015625)"/>
      <path id="DejaVuSans-Bold-44" d="M 1791 3756 
L 1791 909 
L 2222 909 
Q 2959 909 3348 1275 
Q 3738 1641 3738 2338 
Q 3738 3031 3350 3393 
Q 2963 3756 2222 3756 
L 1791 3756 
z
M 588 4666 
L 1856 4666 
Q 2919 4666 3439 4514 
Q 3959 4363 4331 4000 
Q 4659 3684 4818 3271 
Q 4978 2859 4978 2338 
Q 4978 1809 4818 1395 
Q 4659 981 4331 666 
Q 3956 303 3431 151 
Q 2906 0 1856 0 
L 588 0 
L 588 4666 
z
" transform="scale(0.015625)"/>
      <path id="DejaVuSans-Bold-53" d="M 3834 4519 
L 3834 3531 
Q 3450 3703 3084 3790 
Q 2719 3878 2394 3878 
Q 1963 3878 1756 3759 
Q 1550 3641 1550 3391 
Q 1550 3203 1689 3098 
Q 1828 2994 2194 2919 
L 2706 2816 
Q 3484 2659 3812 2340 
Q 4141 2022 4141 1434 
Q 4141 663 3683 286 
Q 3225 -91 2284 -91 
Q 1841 -91 1394 -6 
Q 947 78 500 244 
L 500 1259 
Q 947 1022 1364 901 
Q 1781 781 2169 781 
Q 2563 781 2772 912 
Q 2981 1044 2981 1288 
Q 2981 1506 2839 1625 
Q 2697 1744 2272 1838 
L 1806 1941 
Q 1106 2091 782 2419 
Q 459 2747 459 3303 
Q 459 4000 909 4375 
Q 1359 4750 2203 4750 
Q 2588 4750 2994 4692 
Q 3400 4634 3834 4519 
z
" transform="scale(0.015625)"/>
      <path id="DejaVuSans-Bold-75" d="M 500 1363 
L 500 3500 
L 1625 3500 
L 1625 3150 
Q 1625 2866 1622 2436 
Q 1619 2006 1619 1863 
Q 1619 1441 1641 1255 
Q 1663 1069 1716 984 
Q 1784 875 1895 815 
Q 2006 756 2150 756 
Q 2500 756 2700 1025 
Q 2900 1294 2900 1772 
L 2900 3500 
L 4019 3500 
L 4019 0 
L 2900 0 
L 2900 506 
Q 2647 200 2364 54 
Q 2081 -91 1741 -91 
Q 1134 -91 817 281 
Q 500 653 500 1363 
z
" transform="scale(0.015625)"/>
      <path id="DejaVuSans-Bold-63" d="M 3366 3391 
L 3366 2478 
Q 3138 2634 2908 2709 
Q 2678 2784 2431 2784 
Q 1963 2784 1702 2511 
Q 1441 2238 1441 1747 
Q 1441 1256 1702 982 
Q 1963 709 2431 709 
Q 2694 709 2930 787 
Q 3166 866 3366 1019 
L 3366 103 
Q 3103 6 2833 -42 
Q 2563 -91 2291 -91 
Q 1344 -91 809 395 
Q 275 881 275 1747 
Q 275 2613 809 3098 
Q 1344 3584 2291 3584 
Q 2566 3584 2833 3536 
Q 3100 3488 3366 3391 
z
" transform="scale(0.015625)"/>
      <path id="DejaVuSans-Bold-49" d="M 588 4666 
L 1791 4666 
L 1791 0 
L 588 0 
L 588 4666 
z
" transform="scale(0.015625)"/>
      <path id="DejaVuSans-Bold-76" d="M 97 3500 
L 1216 3500 
L 2088 1081 
L 2956 3500 
L 4078 3500 
L 2700 0 
L 1472 0 
L 97 3500 
z
" transform="scale(0.015625)"/>
      <path id="DejaVuSans-Bold-64" d="M 2919 2988 
L 2919 4863 
L 4044 4863 
L 4044 0 
L 2919 0 
L 2919 506 
Q 2688 197 2409 53 
Q 2131 -91 1766 -91 
Q 1119 -91 703 423 
Q 288 938 288 1747 
Q 288 2556 703 3070 
Q 1119 3584 1766 3584 
Q 2128 3584 2408 3439 
Q 2688 3294 2919 2988 
z
M 2181 722 
Q 2541 722 2730 984 
Q 2919 1247 2919 1747 
Q 2919 2247 2730 2509 
Q 2541 2772 2181 2772 
Q 1825 2772 1636 2509 
Q 1447 2247 1447 1747 
Q 1447 1247 1636 984 
Q 1825 722 2181 722 
z
" transform="scale(0.015625)"/>
     </defs>
     <use xlink:href="#DejaVuSans-Bold-41"/>
     <use xlink:href="#DejaVuSans-Bold-67" transform="translate(77.392578 0)"/>
     <use xlink:href="#DejaVuSans-Bold-65" transform="translate(148.974609 0)"/>
     <use xlink:href="#DejaVuSans-Bold-6e" transform="translate(216.796875 0)"/>
     <use xlink:href="#DejaVuSans-Bold-74" transform="translate(287.988281 0)"/>
     <use xlink:href="#DejaVuSans-Bold-20" transform="translate(335.791016 0)"/>
     <use xlink:href="#DejaVuSans-Bold-52" transform="translate(370.605469 0)"/>
     <use xlink:href="#DejaVuSans-Bold-65" transform="translate(447.607422 0)"/>
     <use xlink:href="#DejaVuSans-Bold-61" transform="translate(515.429688 0)"/>
     <use xlink:href="#DejaVuSans-Bold-73" transform="translate(582.910156 0)"/>
     <use xlink:href="#DejaVuSans-Bold-6f" transform="translate(642.431641 0)"/>
     <use xlink:href="#DejaVuSans-Bold-6e" transform="translate(711.132812 0)"/>
     <use xlink:href="#DejaVuSans-Bold-69" transform="translate(782.324219 0)"/>
     <use xlink:href="#DejaVuSans-Bold-6e" transform="translate(816.601562 0)"/>
     <use xlink:href="#DejaVuSans-Bold-67" transform="translate(887.792969 0)"/>
     <use xlink:href="#DejaVuSans-Bold-20" transform="translate(959.375 0)"/>
     <use xlink:href="#DejaVuSans-Bold-54" transform="translate(994.189453 0)"/>
     <use xlink:href="#DejaVuSans-Bold-72" transform="translate(1051.402344 0)"/>
     <use xlink:href="#DejaVuSans-Bold-61" transform="translate(1100.71875 0)"/>
     <use xlink:href="#DejaVuSans-Bold-69" transform="translate(1168.199219 0)"/>
     <use xlink:href="#DejaVuSans-Bold-6c" transform="translate(1202.476562 0)"/>
     <use xlink:href="#DejaVuSans-Bold-3a" transform="translate(1236.753906 0)"/>
     <use xlink:href="#DejaVuSans-Bold-20" transform="translate(1276.744141 0)"/>
     <use xlink:href="#DejaVuSans-Bold-46" transform="translate(1311.558594 0)"/>
     <use xlink:href="#DejaVuSans-Bold-72" transform="translate(1373.494141 0)"/>
     <use xlink:href="#DejaVuSans-Bold-6f" transform="translate(1422.810547 0)"/>
     <use xlink:href="#DejaVuSans-Bold-6d" transform="translate(1491.511719 0)"/>
     <use xlink:href="#DejaVuSans-Bold-20" transform="translate(1595.710938 0)"/>
     <use xlink:href="#DejaVuSans-Bold-44" transform="translate(1630.525391 0)"/>
     <use xlink:href="#DejaVuSans-Bold-61" transform="translate(1713.533203 0)"/>
     <use xlink:href="#DejaVuSans-Bold-74" transform="translate(1781.013672 0)"/>
     <use xlink:href="#DejaVuSans-Bold-61" transform="translate(1828.816406 0)"/>
     <use xlink:href="#DejaVuSans-Bold-20" transform="translate(1896.296875 0)"/>
     <use xlink:href="#DejaVuSans-Bold-53" transform="translate(1931.111328 0)"/>
     <use xlink:href="#DejaVuSans-Bold-6f" transform="translate(2003.132812 0)"/>
     <use xlink:href="#DejaVuSans-Bold-75" transform="translate(2071.833984 0)"/>
     <use xlink:href="#DejaVuSans-Bold-72" transform="translate(2143.025391 0)"/>
     <use xlink:href="#DejaVuSans-Bold-63" transform="translate(2192.341797 0)"/>
     <use xlink:href="#DejaVuSans-Bold-65" transform="translate(2251.619141 0)"/>
     <use xlink:href="#DejaVuSans-Bold-73" transform="translate(2319.441406 0)"/>
     <use xlink:href="#DejaVuSans-Bold-20" transform="translate(2378.962891 0)"/>
     <use xlink:href="#DejaVuSans-Bold-74" transform="translate(2413.777344 0)"/>
     <use xlink:href="#DejaVuSans-Bold-6f" transform="translate(2461.580078 0)"/>
     <use xlink:href="#DejaVuSans-Bold-20" transform="translate(2530.28125 0)"/>
     <use xlink:href="#DejaVuSans-Bold-49" transform="translate(2565.095703 0)"/>
     <use xlink:href="#DejaVuSans-Bold-6e" transform="translate(2602.302734 0)"/>
     <use xlink:href="#DejaVuSans-Bold-76" transform="translate(2673.494141 0)"/>
     <use xlink:href="#DejaVuSans-Bold-65" transform="translate(2738.679688 0)"/>
     <use xlink:href="#DejaVuSans-Bold-73" transform="translate(2806.501953 0)"/>
     <use xlink:href="#DejaVuSans-Bold-74" transform="translate(2866.023438 0)"/>
     <use xlink:href="#DejaVuSans-Bold-6d" transform="translate(2913.826172 0)"/>
     <use xlink:href="#DejaVuSans-Bold-65" transform="translate(3018.025391 0)"/>
     <use xlink:href="#DejaVuSans-Bold-6e" transform="translate(3085.847656 0)"/>
     <use xlink:href="#DejaVuSans-Bold-74" transform="translate(3157.039062 0)"/>
     <use xlink:href="#DejaVuSans-Bold-20" transform="translate(3204.841797 0)"/>
     <use xlink:href="#DejaVuSans-Bold-52" transform="translate(3239.65625 0)"/>
     <use xlink:href="#DejaVuSans-Bold-65" transform="translate(3316.658203 0)"/>
     <use xlink:href="#DejaVuSans-Bold-63" transform="translate(3384.480469 0)"/>
     <use xlink:href="#DejaVuSans-Bold-6f" transform="translate(3443.757812 0)"/>
     <use xlink:href="#DejaVuSans-Bold-6d" transform="translate(3512.458984 0)"/>
     <use xlink:href="#DejaVuSans-Bold-6d" transform="translate(3616.658203 0)"/>
     <use xlink:href="#DejaVuSans-Bold-65" transform="translate(3720.857422 0)"/>
     <use xlink:href="#DejaVuSans-Bold-6e" transform="translate(3788.679688 0)"/>
     <use xlink:href="#DejaVuSans-Bold-64" transform="translate(3859.871094 0)"/>
     <use xlink:href="#DejaVuSans-Bold-61" transform="translate(3931.453125 0)"/>
     <use xlink:href="#DejaVuSans-Bold-74" transform="translate(3998.933594 0)"/>
     <use xlink:href="#DejaVuSans-Bold-69" transform="translate(4046.736328 0)"/>
     <use xlink:href="#DejaVuSans-Bold-6f" transform="translate(4081.013672 0)"/>
     <use xlink:href="#DejaVuSans-Bold-6e" transform="translate(4149.714844 0)"/>
    </g>
    <!-- Each node represents a decision point or data artifact. Edges show data flow. -->
    <g transform="translate(221.56625 37.399) scale(0.16 -0.16)">
     <defs>
      <path id="DejaVuSans-Bold-45" d="M 588 4666 
L 3834 4666 
L 3834 3756 
L 1791 3756 
L 1791 2888 
L 3713 2888 
L 3713 1978 
L 1791 1978 
L 1791 909 
L 3903 909 
L 3903 0 
L 588 0 
L 588 4666 
z
" transform="scale(0.015625)"/>
      <path id="DejaVuSans-Bold-68" d="M 4056 2131 
L 4056 0 
L 2931 0 
L 2931 347 
L 2931 1625 
Q 2931 2084 2911 2256 
Q 2891 2428 2841 2509 
Q 2775 2619 2662 2680 
Q 2550 2741 2406 2741 
Q 2056 2741 1856 2470 
Q 1656 2200 1656 1722 
L 1656 0 
L 538 0 
L 538 4863 
L 1656 4863 
L 1656 2988 
Q 1909 3294 2193 3439 
Q 2478 3584 2822 3584 
Q 3428 3584 3742 3212 
Q 4056 2841 4056 2131 
z
" transform="scale(0.015625)"/>
      <path id="DejaVuSans-Bold-70" d="M 1656 506 
L 1656 -1331 
L 538 -1331 
L 538 3500 
L 1656 3500 
L 1656 2988 
Q 1888 3294 2169 3439 
Q 2450 3584 2816 3584 
Q 3463 3584 3878 3070 
Q 4294 2556 4294 1747 
Q 4294 938 3878 423 
Q 3463 -91 2816 -91 
Q 2450 -91 2169 54 
Q 1888 200 1656 506 
z
M 2400 2772 
Q 2041 2772 1848 2508 
Q 1656 2244 1656 1747 
Q 1656 1250 1848 986 
Q 2041 722 2400 722 
Q 2759 722 2948 984 
Q 3138 1247 3138 1747 
Q 3138 2247 2948 2509 
Q 2759 2772 2400 2772 
z
" transform="scale(0.015625)"/>
      <path id="DejaVuSans-Bold-66" d="M 2841 4863 
L 2841 4128 
L 2222 4128 
Q 1984 4128 1890 4042 
Q 1797 3956 1797 3744 
L 1797 3500 
L 2753 3500 
L 2753 2700 
L 1797 2700 
L 1797 0 
L 678 0 
L 678 2700 
L 122 2700 
L 122 3500 
L 678 3500 
L 678 3744 
Q 678 4316 997 4589 
Q 1316 4863 1984 4863 
L 2841 4863 
z
" transform="scale(0.015625)"/>
      <path id="DejaVuSans-Bold-2e" d="M 653 1209 
L 1778 1209 
L 1778 0 
L 653 0 
L 653 1209 
z
" transform="scale(0.015625)"/>
      <path id="DejaVuSans-Bold-77" d="M 225 3500 
L 1313 3500 
L 1900 1088 
L 2491 3500 
L 3425 3500 
L 4013 1113 
L 4603 3500 
L 5691 3500 
L 4769 0 
L 3547 0 
L 2956 2406 
L 2369 0 
L 1147 0 
L 225 3500 
z
" transform="scale(0.015625)"/>
     </defs>
     <use xlink:href="#DejaVuSans-Bold-45"/>
     <use xlink:href="#DejaVuSans-Bold-61" transform="translate(68.310547 0)"/>
     <use xlink:href="#DejaVuSans-Bold-63" transform="translate(135.791016 0)"/>
     <use xlink:href="#DejaVuSans-Bold-68" transform="translate(195.068359 0)"/>
     <use xlink:href="#DejaVuSans-Bold-20" transform="translate(266.259766 0)"/>
     <use xlink:href="#DejaVuSans-Bold-6e" transform="translate(301.074219 0)"/>
     <use xlink:href="#DejaVuSans-Bold-6f" transform="translate(372.265625 0)"/>
     <use xlink:href="#DejaVuSans-Bold-64" transform="translate(440.966797 0)"/>
     <use xlink:href="#DejaVuSans-Bold-65" transform="translate(512.548828 0)"/>
     <use xlink:href="#DejaVuSans-Bold-20" transform="translate(580.371094 0)"/>
     <use xlink:href="#DejaVuSans-Bold-72" transform="translate(615.185547 0)"/>
     <use xlink:href="#DejaVuSans-Bold-65" transform="translate(664.501953 0)"/>
     <use xlink:href="#DejaVuSans-Bold-70" transform="translate(732.324219 0)"/>
     <use xlink:href="#DejaVuSans-Bold-72" transform="translate(803.90625 0)"/>
     <use xlink:href="#DejaVuSans-Bold-65" transform="translate(853.222656 0)"/>
     <use xlink:href="#DejaVuSans-Bold-73" transform="translate(921.044922 0)"/>
     <use xlink:href="#DejaVuSans-Bold-65" transform="translate(980.566406 0)"/>
     <use xlink:href="#DejaVuSans-Bold-6e" transform="translate(1048.388672 0)"/>
     <use xlink:href="#DejaVuSans-Bold-74" transform="translate(1119.580078 0)"/>
     <use xlink:href="#DejaVuSans-Bold-73" transform="translate(1167.382812 0)"/>
     <use xlink:href="#DejaVuSans-Bold-20" transform="translate(1226.904297 0)"/>
     <use xlink:href="#DejaVuSans-Bold-61" transform="translate(1261.71875 0)"/>
     <use xlink:href="#DejaVuSans-Bold-20" transform="translate(1329.199219 0)"/>
     <use xlink:href="#DejaVuSans-Bold-64" transform="translate(1364.013672 0)"/>
     <use xlink:href="#DejaVuSans-Bold-65" transform="translate(1435.595703 0)"/>
     <use xlink:href="#DejaVuSans-Bold-63" transform="translate(1503.417969 0)"/>
     <use xlink:href="#DejaVuSans-Bold-69" transform="translate(1562.695312 0)"/>
     <use xlink:href="#DejaVuSans-Bold-73" transform="translate(1596.972656 0)"/>
     <use xlink:href="#DejaVuSans-Bold-69" transform="translate(1656.494141 0)"/>
     <use xlink:href="#DejaVuSans-Bold-6f" transform="translate(1690.771484 0)"/>
     <use xlink:href="#DejaVuSans-Bold-6e" transform="translate(1759.472656 0)"/>
     <use xlink:href="#DejaVuSans-Bold-20" transform="translate(1830.664062 0)"/>
     <use xlink:href="#DejaVuSans-Bold-70" transform="translate(1865.478516 0)"/>
     <use xlink:href="#DejaVuSans-Bold-6f" transform="translate(1937.060547 0)"/>
     <use xlink:href="#DejaVuSans-Bold-69" transform="translate(2005.761719 0)"/>
     <use xlink:href="#DejaVuSans-Bold-6e" transform="translate(2040.039062 0)"/>
     <use xlink:href="#DejaVuSans-Bold-74" transform="translate(2111.230469 0)"/>
     <use xlink:href="#DejaVuSans-Bold-20" transform="translate(2159.033203 0)"/>
     <use xlink:href="#DejaVuSans-Bold-6f" transform="translate(2193.847656 0)"/>
     <use xlink:href="#DejaVuSans-Bold-72" transform="translate(2262.548828 0)"/>
     <use xlink:href="#DejaVuSans-Bold-20" transform="translate(2311.865234 0)"/>
     <use xlink:href="#DejaVuSans-Bold-64" transform="translate(2346.679688 0)"/>
     <use xlink:href="#DejaVuSans-Bold-61" transform="translate(2418.261719 0)"/>
     <use xlink:href="#DejaVuSans-Bold-74" transform="translate(2485.742188 0)"/>
     <use xlink:href="#DejaVuSans-Bold-61" transform="translate(2533.544922 0)"/>
     <use xlink:href="#DejaVuSans-Bold-20" transform="translate(2601.025391 0)"/>
     <use xlink:href="#DejaVuSans-Bold-61" transform="translate(2635.839844 0)"/>
     <use xlink:href="#DejaVuSans-Bold-72" transform="translate(2703.320312 0)"/>
     <use xlink:href="#DejaVuSans-Bold-74" transform="translate(2752.636719 0)"/>
     <use xlink:href="#DejaVuSans-Bold-69" transform="translate(2800.439453 0)"/>
     <use xlink:href="#DejaVuSans-Bold-66" transform="translate(2834.716797 0)"/>
     <use xlink:href="#DejaVuSans-Bold-61" transform="translate(2878.222656 0)"/>
     <use xlink:href="#DejaVuSans-Bold-63" transform="translate(2945.703125 0)"/>
     <use xlink:href="#DejaVuSans-Bold-74" transform="translate(3004.980469 0)"/>
     <use xlink:href="#DejaVuSans-Bold-2e" transform="translate(3052.783203 0)"/>
     <use xlink:href="#DejaVuSans-Bold-20" transform="translate(3090.771484 0)"/>
     <use xlink:href="#DejaVuSans-Bold-45" transform="translate(3125.585938 0)"/>
     <use xlink:href="#DejaVuSans-Bold-64" transform="translate(3193.896484 0)"/>
     <use xlink:href="#DejaVuSans-Bold-67" transform="translate(3265.478516 0)"/>
     <use xlink:href="#DejaVuSans-Bold-65" transform="translate(3337.060547 0)"/>
     <use xlink:href="#DejaVuSans-Bold-73" transform="translate(3404.882812 0)"/>
     <use xlink:href="#DejaVuSans-Bold-20" transform="translate(3464.404297 0)"/>
     <use xlink:href="#DejaVuSans-Bold-73" transform="translate(3499.21875 0)"/>
     <use xlink:href="#DejaVuSans-Bold-68" transform="translate(3558.740234 0)"/>
     <use xlink:href="#DejaVuSans-Bold-6f" transform="translate(3629.931641 0)"/>
     <use xlink:href="#DejaVuSans-Bold-77" transform="translate(3698.632812 0)"/>
     <use xlink:href="#DejaVuSans-Bold-20" transform="translate(3791.015625 0)"/>
     <use xlink:href="#DejaVuSans-Bold-64" transform="translate(3825.830078 0)"/>
     <use xlink:href="#DejaVuSans-Bold-61" transform="translate(3897.412109 0)"/>
     <use xlink:href="#DejaVuSans-Bold-74" transform="translate(3964.892578 0)"/>
     <use xlink:href="#DejaVuSans-Bold-61" transform="translate(4012.695312 0)"/>
     <use xlink:href="#DejaVuSans-Bold-20" transform="translate(4080.175781 0)"/>
     <use xlink:href="#DejaVuSans-Bold-66" transform="translate(4114.990234 0)"/>
     <use xlink:href="#DejaVuSans-Bold-6c" transform="translate(4158.496094 0)"/>
     <use xlink:href="#DejaVuSans-Bold-6f" transform="translate(4192.773438 0)"/>
     <use xlink:href="#DejaVuSans-Bold-77" transform="translate(4261.474609 0)"/>
     <use xlink:href="#DejaVuSans-Bold-2e" transform="translate(4347.482422 0)"/>
    </g>
    <!-- Source: /input/repo/decisions/, /input/repo/research/, /input/repo/memo/ -->
    <g transform="translate(246.775 55.4405) scale(0.16 -0.16)">
     <defs>
      <path id="DejaVuSans-Bold-2f" d="M 1644 4666 
L 2338 4666 
L 691 -594 
L 0 -594 
L 1644 4666 
z
" transform="scale(0.015625)"/>
      <path id="DejaVuSans-Bold-2c" d="M 653 1209 
L 1778 1209 
L 1778 256 
L 1006 -909 
L 341 -909 
L 653 256 
L 653 1209 
z
" transform="scale(0.015625)"/>
     </defs>
     <use xlink:href="#DejaVuSans-Bold-53"/>
     <use xlink:href="#DejaVuSans-Bold-6f" transform="translate(72.021484 0)"/>
     <use xlink:href="#DejaVuSans-Bold-75" transform="translate(140.722656 0)"/>
     <use xlink:href="#DejaVuSans-Bold-72" transform="translate(211.914062 0)"/>
     <use xlink:href="#DejaVuSans-Bold-63" transform="translate(261.230469 0)"/>
     <use xlink:href="#DejaVuSans-Bold-65" transform="translate(320.507812 0)"/>
     <use xlink:href="#DejaVuSans-Bold-3a" transform="translate(388.330078 0)"/>
     <use xlink:href="#DejaVuSans-Bold-20" transform="translate(428.320312 0)"/>
     <use xlink:href="#DejaVuSans-Bold-2f" transform="translate(463.134766 0)"/>
     <use xlink:href="#DejaVuSans-Bold-69" transform="translate(499.658203 0)"/>
     <use xlink:href="#DejaVuSans-Bold-6e" transform="translate(533.935547 0)"/>
     <use xlink:href="#DejaVuSans-Bold-70" transform="translate(605.126953 0)"/>
     <use xlink:href="#DejaVuSans-Bold-75" transform="translate(676.708984 0)"/>
     <use xlink:href="#DejaVuSans-Bold-74" transform="translate(747.900391 0)"/>
     <use xlink:href="#DejaVuSans-Bold-2f" transform="translate(795.703125 0)"/>
     <use xlink:href="#DejaVuSans-Bold-72" transform="translate(832.226562 0)"/>
     <use xlink:href="#DejaVuSans-Bold-65" transform="translate(881.542969 0)"/>
     <use xlink:href="#DejaVuSans-Bold-70" transform="translate(949.365234 0)"/>
     <use xlink:href="#DejaVuSans-Bold-6f" transform="translate(1020.947266 0)"/>
     <use xlink:href="#DejaVuSans-Bold-2f" transform="translate(1089.648438 0)"/>
     <use xlink:href="#DejaVuSans-Bold-64" transform="translate(1126.171875 0)"/>
     <use xlink:href="#DejaVuSans-Bold-65" transform="translate(1197.753906 0)"/>
     <use xlink:href="#DejaVuSans-Bold-63" transform="translate(1265.576172 0)"/>
     <use xlink:href="#DejaVuSans-Bold-69" transform="translate(1324.853516 0)"/>
     <use xlink:href="#DejaVuSans-Bold-73" transform="translate(1359.130859 0)"/>
     <use xlink:href="#DejaVuSans-Bold-69" transform="translate(1418.652344 0)"/>
     <use xlink:href="#DejaVuSans-Bold-6f" transform="translate(1452.929688 0)"/>
     <use xlink:href="#DejaVuSans-Bold-6e" transform="translate(1521.630859 0)"/>
     <use xlink:href="#DejaVuSans-Bold-73" transform="translate(1592.822266 0)"/>
     <use xlink:href="#DejaVuSans-Bold-2f" transform="translate(1652.34375 0)"/>
     <use xlink:href="#DejaVuSans-Bold-2c" transform="translate(1688.867188 0)"/>
     <use xlink:href="#DejaVuSans-Bold-20" transform="translate(1726.855469 0)"/>
     <use xlink:href="#DejaVuSans-Bold-2f" transform="translate(1761.669922 0)"/>
     <use xlink:href="#DejaVuSans-Bold-69" transform="translate(1798.193359 0)"/>
     <use xlink:href="#DejaVuSans-Bold-6e" transform="translate(1832.470703 0)"/>
     <use xlink:href="#DejaVuSans-Bold-70" transform="translate(1903.662109 0)"/>
     <use xlink:href="#DejaVuSans-Bold-75" transform="translate(1975.244141 0)"/>
     <use xlink:href="#DejaVuSans-Bold-74" transform="translate(2046.435547 0)"/>
     <use xlink:href="#DejaVuSans-Bold-2f" transform="translate(2094.238281 0)"/>
     <use xlink:href="#DejaVuSans-Bold-72" transform="translate(2130.761719 0)"/>
     <use xlink:href="#DejaVuSans-Bold-65" transform="translate(2180.078125 0)"/>
     <use xlink:href="#DejaVuSans-Bold-70" transform="translate(2247.900391 0)"/>
     <use xlink:href="#DejaVuSans-Bold-6f" transform="translate(2319.482422 0)"/>
     <use xlink:href="#DejaVuSans-Bold-2f" transform="translate(2388.183594 0)"/>
     <use xlink:href="#DejaVuSans-Bold-72" transform="translate(2424.707031 0)"/>
     <use xlink:href="#DejaVuSans-Bold-65" transform="translate(2474.023438 0)"/>
     <use xlink:href="#DejaVuSans-Bold-73" transform="translate(2541.845703 0)"/>
     <use xlink:href="#DejaVuSans-Bold-65" transform="translate(2601.367188 0)"/>
     <use xlink:href="#DejaVuSans-Bold-61" transform="translate(2669.189453 0)"/>
     <use xlink:href="#DejaVuSans-Bold-72" transform="translate(2736.669922 0)"/>
     <use xlink:href="#DejaVuSans-Bold-63" transform="translate(2785.986328 0)"/>
     <use xlink:href="#DejaVuSans-Bold-68" transform="translate(2845.263672 0)"/>
     <use xlink:href="#DejaVuSans-Bold-2f" transform="translate(2916.455078 0)"/>
     <use xlink:href="#DejaVuSans-Bold-2c" transform="translate(2952.978516 0)"/>
     <use xlink:href="#DejaVuSans-Bold-20" transform="translate(2990.966797 0)"/>
     <use xlink:href="#DejaVuSans-Bold-2f" transform="translate(3025.78125 0)"/>
     <use xlink:href="#DejaVuSans-Bold-69" transform="translate(3062.304688 0)"/>
     <use xlink:href="#DejaVuSans-Bold-6e" transform="translate(3096.582031 0)"/>
     <use xlink:href="#DejaVuSans-Bold-70" transform="translate(3167.773438 0)"/>
     <use xlink:href="#DejaVuSans-Bold-75" transform="translate(3239.355469 0)"/>
     <use xlink:href="#DejaVuSans-Bold-74" transform="translate(3310.546875 0)"/>
     <use xlink:href="#DejaVuSans-Bold-2f" transform="translate(3358.349609 0)"/>
     <use xlink:href="#DejaVuSans-Bold-72" transform="translate(3394.873047 0)"/>
     <use xlink:href="#DejaVuSans-Bold-65" transform="translate(3444.189453 0)"/>
     <use xlink:href="#DejaVuSans-Bold-70" transform="translate(3512.011719 0)"/>
     <use xlink:href="#DejaVuSans-Bold-6f" transform="translate(3583.59375 0)"/>
     <use xlink:href="#DejaVuSans-Bold-2f" transform="translate(3652.294922 0)"/>
     <use xlink:href="#DejaVuSans-Bold-6d" transform="translate(3688.818359 0)"/>
     <use xlink:href="#DejaVuSans-Bold-65" transform="translate(3793.017578 0)"/>
     <use xlink:href="#DejaVuSans-Bold-6d" transform="translate(3860.839844 0)"/>
     <use xlink:href="#DejaVuSans-Bold-6f" transform="translate(3965.039062 0)"/>
     <use xlink:href="#DejaVuSans-Bold-2f" transform="translate(4033.740234 0)"/>
    </g>
   </g>
   <g id="text_2">
    <!-- SEC Filings -->
    <g transform="translate(38.84125 150.884825) scale(0.08 -0.08)">
     <defs>
      <path id="DejaVuSans-Bold-43" d="M 4288 256 
Q 3956 84 3597 -3 
Q 3238 -91 2847 -91 
Q 1681 -91 1000 561 
Q 319 1213 319 2328 
Q 319 3447 1000 4098 
Q 1681 4750 2847 4750 
Q 3238 4750 3597 4662 
Q 3956 4575 4288 4403 
L 4288 3438 
Q 3953 3666 3628 3772 
Q 3303 3878 2944 3878 
Q 2300 3878 1931 3465 
Q 1563 3053 1563 2328 
Q 1563 1606 1931 1193 
Q 2300 781 2944 781 
Q 3303 781 3628 887 
Q 3953 994 4288 1222 
L 4288 256 
z
" transform="scale(0.015625)"/>
     </defs>
     <use xlink:href="#DejaVuSans-Bold-53"/>
     <use xlink:href="#DejaVuSans-Bold-45" transform="translate(72.021484 0)"/>
     <use xlink:href="#DejaVuSans-Bold-43" transform="translate(140.332031 0)"/>
     <use xlink:href="#DejaVuSans-Bold-20" transform="translate(213.720703 0)"/>
     <use xlink:href="#DejaVuSans-Bold-46" transform="translate(248.535156 0)"/>
     <use xlink:href="#DejaVuSans-Bold-69" transform="translate(316.845703 0)"/>
     <use xlink:href="#DejaVuSans-Bold-6c" transform="translate(351.123047 0)"/>
     <use xlink:href="#DejaVuSans-Bold-69" transform="translate(385.400391 0)"/>
     <use xlink:href="#DejaVuSans-Bold-6e" transform="translate(419.677734 0)"/>
     <use xlink:href="#DejaVuSans-Bold-67" transform="translate(490.869141 0)"/>
     <use xlink:href="#DejaVuSans-Bold-73" transform="translate(562.451172 0)"/>
    </g>
    <!-- (403 blocked) -->
    <g transform="translate(32.836875 159.905575) scale(0.08 -0.08)">
     <defs>
      <path id="DejaVuSans-Bold-28" d="M 2413 -844 
L 1484 -844 
Q 1006 -72 778 623 
Q 550 1319 550 2003 
Q 550 2688 779 3389 
Q 1009 4091 1484 4856 
L 2413 4856 
Q 2013 4116 1813 3408 
Q 1613 2700 1613 2009 
Q 1613 1319 1811 609 
Q 2009 -100 2413 -844 
z
" transform="scale(0.015625)"/>
      <path id="DejaVuSans-Bold-34" d="M 2356 3675 
L 1038 1722 
L 2356 1722 
L 2356 3675 
z
M 2156 4666 
L 3494 4666 
L 3494 1722 
L 4159 1722 
L 4159 850 
L 3494 850 
L 3494 0 
L 2356 0 
L 2356 850 
L 288 850 
L 288 1881 
L 2156 4666 
z
" transform="scale(0.015625)"/>
      <path id="DejaVuSans-Bold-30" d="M 2944 2338 
Q 2944 3213 2780 3570 
Q 2616 3928 2228 3928 
Q 1841 3928 1675 3570 
Q 1509 3213 1509 2338 
Q 1509 1453 1675 1090 
Q 1841 728 2228 728 
Q 2613 728 2778 1090 
Q 2944 1453 2944 2338 
z
M 4147 2328 
Q 4147 1169 3647 539 
Q 3147 -91 2228 -91 
Q 1306 -91 806 539 
Q 306 1169 306 2328 
Q 306 3491 806 4120 
Q 1306 4750 2228 4750 
Q 3147 4750 3647 4120 
Q 4147 3491 4147 2328 
z
" transform="scale(0.015625)"/>
      <path id="DejaVuSans-Bold-33" d="M 2981 2516 
Q 3453 2394 3698 2092 
Q 3944 1791 3944 1325 
Q 3944 631 3412 270 
Q 2881 -91 1863 -91 
Q 1503 -91 1142 -33 
Q 781 25 428 141 
L 428 1069 
Q 766 900 1098 814 
Q 1431 728 1753 728 
Q 2231 728 2486 893 
Q 2741 1059 2741 1369 
Q 2741 1688 2480 1852 
Q 2219 2016 1709 2016 
L 1228 2016 
L 1228 2791 
L 1734 2791 
Q 2188 2791 2409 2933 
Q 2631 3075 2631 3366 
Q 2631 3634 2415 3781 
Q 2200 3928 1806 3928 
Q 1516 3928 1219 3862 
Q 922 3797 628 3669 
L 628 4550 
Q 984 4650 1334 4700 
Q 1684 4750 2022 4750 
Q 2931 4750 3382 4451 
Q 3834 4153 3834 3553 
Q 3834 3144 3618 2883 
Q 3403 2622 2981 2516 
z
" transform="scale(0.015625)"/>
      <path id="DejaVuSans-Bold-62" d="M 2400 722 
Q 2759 722 2948 984 
Q 3138 1247 3138 1747 
Q 3138 2247 2948 2509 
Q 2759 2772 2400 2772 
Q 2041 2772 1848 2508 
Q 1656 2244 1656 1747 
Q 1656 1250 1848 986 
Q 2041 722 2400 722 
z
M 1656 2988 
Q 1888 3294 2169 3439 
Q 2450 3584 2816 3584 
Q 3463 3584 3878 3070 
Q 4294 2556 4294 1747 
Q 4294 938 3878 423 
Q 3463 -91 2816 -91 
Q 2450 -91 2169 54 
Q 1888 200 1656 506 
L 1656 0 
L 538 0 
L 538 4863 
L 1656 4863 
L 1656 2988 
z
" transform="scale(0.015625)"/>
      <path id="DejaVuSans-Bold-6b" d="M 538 4863 
L 1656 4863 
L 1656 2216 
L 2944 3500 
L 4244 3500 
L 2534 1894 
L 4378 0 
L 3022 0 
L 1656 1459 
L 1656 0 
L 538 0 
L 538 4863 
z
" transform="scale(0.015625)"/>
      <path id="DejaVuSans-Bold-29" d="M 513 -844 
Q 913 -100 1113 609 
Q 1313 1319 1313 2009 
Q 1313 2700 1113 3408 
Q 913 4116 513 4856 
L 1441 4856 
Q 1916 4091 2145 3389 
Q 2375 2688 2375 2003 
Q 2375 1319 2147 623 
Q 1919 -72 1441 -844 
L 513 -844 
z
" transform="scale(0.015625)"/>
     </defs>
     <use xlink:href="#DejaVuSans-Bold-28"/>
     <use xlink:href="#DejaVuSans-Bold-34" transform="translate(45.703125 0)"/>
     <use xlink:href="#DejaVuSans-Bold-30" transform="translate(115.283203 0)"/>
     <use xlink:href="#DejaVuSans-Bold-33" transform="translate(184.863281 0)"/>
     <use xlink:href="#DejaVuSans-Bold-20" transform="translate(254.443359 0)"/>
     <use xlink:href="#DejaVuSans-Bold-62" transform="translate(289.257812 0)"/>
     <use xlink:href="#DejaVuSans-Bold-6c" transform="translate(360.839844 0)"/>
     <use xlink:href="#DejaVuSans-Bold-6f" transform="translate(395.117188 0)"/>
     <use xlink:href="#DejaVuSans-Bold-63" transform="translate(463.818359 0)"/>
     <use xlink:href="#DejaVuSans-Bold-6b" transform="translate(523.095703 0)"/>
     <use xlink:href="#DejaVuSans-Bold-65" transform="translate(586.974609 0)"/>
     <use xlink:href="#DejaVuSans-Bold-64" transform="translate(654.796875 0)"/>
     <use xlink:href="#DejaVuSans-Bold-29" transform="translate(726.378906 0)"/>
    </g>
   </g>
   <g id="text_3">
    <!-- yfinance -->
    <g transform="translate(44.5225 306.379225) scale(0.08 -0.08)">
     <defs>
      <path id="DejaVuSans-Bold-79" d="M 78 3500 
L 1197 3500 
L 2138 1125 
L 2938 3500 
L 4056 3500 
L 2584 -331 
Q 2363 -916 2067 -1148 
Q 1772 -1381 1288 -1381 
L 641 -1381 
L 641 -647 
L 991 -647 
Q 1275 -647 1404 -556 
Q 1534 -466 1606 -231 
L 1638 -134 
L 78 3500 
z
" transform="scale(0.015625)"/>
     </defs>
     <use xlink:href="#DejaVuSans-Bold-79"/>
     <use xlink:href="#DejaVuSans-Bold-66" transform="translate(65.185547 0)"/>
     <use xlink:href="#DejaVuSans-Bold-69" transform="translate(108.691406 0)"/>
     <use xlink:href="#DejaVuSans-Bold-6e" transform="translate(142.96875 0)"/>
     <use xlink:href="#DejaVuSans-Bold-61" transform="translate(214.160156 0)"/>
     <use xlink:href="#DejaVuSans-Bold-6e" transform="translate(281.640625 0)"/>
     <use xlink:href="#DejaVuSans-Bold-63" transform="translate(352.832031 0)"/>
     <use xlink:href="#DejaVuSans-Bold-65" transform="translate(412.109375 0)"/>
    </g>
    <!-- Financial Data -->
    <g transform="translate(31.385 315.399975) scale(0.08 -0.08)">
     <use xlink:href="#DejaVuSans-Bold-46"/>
     <use xlink:href="#DejaVuSans-Bold-69" transform="translate(68.310547 0)"/>
     <use xlink:href="#DejaVuSans-Bold-6e" transform="translate(102.587891 0)"/>
     <use xlink:href="#DejaVuSans-Bold-61" transform="translate(173.779297 0)"/>
     <use xlink:href="#DejaVuSans-Bold-6e" transform="translate(241.259766 0)"/>
     <use xlink:href="#DejaVuSans-Bold-63" transform="translate(312.451172 0)"/>
     <use xlink:href="#DejaVuSans-Bold-69" transform="translate(371.728516 0)"/>
     <use xlink:href="#DejaVuSans-Bold-61" transform="translate(406.005859 0)"/>
     <use xlink:href="#DejaVuSans-Bold-6c" transform="translate(473.486328 0)"/>
     <use xlink:href="#DejaVuSans-Bold-20" transform="translate(507.763672 0)"/>
     <use xlink:href="#DejaVuSans-Bold-44" transform="translate(542.578125 0)"/>
     <use xlink:href="#DejaVuSans-Bold-61" transform="translate(625.585938 0)"/>
     <use xlink:href="#DejaVuSans-Bold-74" transform="translate(693.066406 0)"/>
     <use xlink:href="#DejaVuSans-Bold-61" transform="translate(740.869141 0)"/>
    </g>
   </g>
   <g id="text_4">
    <!-- Earnings Call -->
    <g transform="translate(34.235625 461.873625) scale(0.08 -0.08)">
     <use xlink:href="#DejaVuSans-Bold-45"/>
     <use xlink:href="#DejaVuSans-Bold-61" transform="translate(68.310547 0)"/>
     <use xlink:href="#DejaVuSans-Bold-72" transform="translate(135.791016 0)"/>
     <use xlink:href="#DejaVuSans-Bold-6e" transform="translate(185.107422 0)"/>
     <use xlink:href="#DejaVuSans-Bold-69" transform="translate(256.298828 0)"/>
     <use xlink:href="#DejaVuSans-Bold-6e" transform="translate(290.576172 0)"/>
     <use xlink:href="#DejaVuSans-Bold-67" transform="translate(361.767578 0)"/>
     <use xlink:href="#DejaVuSans-Bold-73" transform="translate(433.349609 0)"/>
     <use xlink:href="#DejaVuSans-Bold-20" transform="translate(492.871094 0)"/>
     <use xlink:href="#DejaVuSans-Bold-43" transform="translate(527.685547 0)"/>
     <use xlink:href="#DejaVuSans-Bold-61" transform="translate(601.074219 0)"/>
     <use xlink:href="#DejaVuSans-Bold-6c" transform="translate(668.554688 0)"/>
     <use xlink:href="#DejaVuSans-Bold-6c" transform="translate(702.832031 0)"/>
    </g>
    <!-- Transcripts -->
    <g transform="translate(38.660625 470.894375) scale(0.08 -0.08)">
     <use xlink:href="#DejaVuSans-Bold-54"/>
     <use xlink:href="#DejaVuSans-Bold-72" transform="translate(57.212891 0)"/>
     <use xlink:href="#DejaVuSans-Bold-61" transform="translate(106.529297 0)"/>
     <use xlink:href="#DejaVuSans-Bold-6e" transform="translate(174.009766 0)"/>
     <use xlink:href="#DejaVuSans-Bold-73" transform="translate(245.201172 0)"/>
     <use xlink:href="#DejaVuSans-Bold-63" transform="translate(304.722656 0)"/>
     <use xlink:href="#DejaVuSans-Bold-72" transform="translate(364 0)"/>
     <use xlink:href="#DejaVuSans-Bold-69" transform="translate(413.316406 0)"/>
     <use xlink:href="#DejaVuSans-Bold-70" transform="translate(447.59375 0)"/>
     <use xlink:href="#DejaVuSans-Bold-74" transform="translate(519.175781 0)"/>
     <use xlink:href="#DejaVuSans-Bold-73" transform="translate(566.978516 0)"/>
    </g>
   </g>
   <g id="text_5">
    <!-- Competitor -->
    <g transform="translate(38.37625 617.399275) scale(0.08 -0.08)">
     <use xlink:href="#DejaVuSans-Bold-43"/>
     <use xlink:href="#DejaVuSans-Bold-6f" transform="translate(73.388672 0)"/>
     <use xlink:href="#DejaVuSans-Bold-6d" transform="translate(142.089844 0)"/>
     <use xlink:href="#DejaVuSans-Bold-70" transform="translate(246.289062 0)"/>
     <use xlink:href="#DejaVuSans-Bold-65" transform="translate(317.871094 0)"/>
     <use xlink:href="#DejaVuSans-Bold-74" transform="translate(385.693359 0)"/>
     <use xlink:href="#DejaVuSans-Bold-69" transform="translate(433.496094 0)"/>
     <use xlink:href="#DejaVuSans-Bold-74" transform="translate(467.773438 0)"/>
     <use xlink:href="#DejaVuSans-Bold-6f" transform="translate(515.576172 0)"/>
     <use xlink:href="#DejaVuSans-Bold-72" transform="translate(584.277344 0)"/>
    </g>
    <!-- Data -->
    <g transform="translate(53.08875 626.357525) scale(0.08 -0.08)">
     <use xlink:href="#DejaVuSans-Bold-44"/>
     <use xlink:href="#DejaVuSans-Bold-61" transform="translate(83.007812 0)"/>
     <use xlink:href="#DejaVuSans-Bold-74" transform="translate(150.488281 0)"/>
     <use xlink:href="#DejaVuSans-Bold-61" transform="translate(198.291016 0)"/>
    </g>
   </g>
   <g id="text_6">
    <!-- Historical -->
    <g transform="translate(42.175 772.893675) scale(0.08 -0.08)">
     <defs>
      <path id="DejaVuSans-Bold-48" d="M 588 4666 
L 1791 4666 
L 1791 2888 
L 3566 2888 
L 3566 4666 
L 4769 4666 
L 4769 0 
L 3566 0 
L 3566 1978 
L 1791 1978 
L 1791 0 
L 588 0 
L 588 4666 
z
" transform="scale(0.015625)"/>
     </defs>
     <use xlink:href="#DejaVuSans-Bold-48"/>
     <use xlink:href="#DejaVuSans-Bold-69" transform="translate(83.691406 0)"/>
     <use xlink:href="#DejaVuSans-Bold-73" transform="translate(117.96875 0)"/>
     <use xlink:href="#DejaVuSans-Bold-74" transform="translate(177.490234 0)"/>
     <use xlink:href="#DejaVuSans-Bold-6f" transform="translate(225.292969 0)"/>
     <use xlink:href="#DejaVuSans-Bold-72" transform="translate(293.994141 0)"/>
     <use xlink:href="#DejaVuSans-Bold-69" transform="translate(343.310547 0)"/>
     <use xlink:href="#DejaVuSans-Bold-63" transform="translate(377.587891 0)"/>
     <use xlink:href="#DejaVuSans-Bold-61" transform="translate(436.865234 0)"/>
     <use xlink:href="#DejaVuSans-Bold-6c" transform="translate(504.345703 0)"/>
    </g>
    <!-- Prices -->
    <g transform="translate(49.979375 781.851925) scale(0.08 -0.08)">
     <defs>
      <path id="DejaVuSans-Bold-50" d="M 588 4666 
L 2584 4666 
Q 3475 4666 3951 4270 
Q 4428 3875 4428 3144 
Q 4428 2409 3951 2014 
Q 3475 1619 2584 1619 
L 1791 1619 
L 1791 0 
L 588 0 
L 588 4666 
z
M 1791 3794 
L 1791 2491 
L 2456 2491 
Q 2806 2491 2997 2661 
Q 3188 2831 3188 3144 
Q 3188 3456 2997 3625 
Q 2806 3794 2456 3794 
L 1791 3794 
z
" transform="scale(0.015625)"/>
     </defs>
     <use xlink:href="#DejaVuSans-Bold-50"/>
     <use xlink:href="#DejaVuSans-Bold-72" transform="translate(73.291016 0)"/>
     <use xlink:href="#DejaVuSans-Bold-69" transform="translate(122.607422 0)"/>
     <use xlink:href="#DejaVuSans-Bold-63" transform="translate(156.884766 0)"/>
     <use xlink:href="#DejaVuSans-Bold-65" transform="translate(216.162109 0)"/>
     <use xlink:href="#DejaVuSans-Bold-73" transform="translate(283.984375 0)"/>
    </g>
   </g>
   <g id="text_7">
    <!-- Revenue -->
    <g transform="translate(270.278125 228.632025) scale(0.08 -0.08)">
     <use xlink:href="#DejaVuSans-Bold-52"/>
     <use xlink:href="#DejaVuSans-Bold-65" transform="translate(77.001953 0)"/>
     <use xlink:href="#DejaVuSans-Bold-76" transform="translate(144.824219 0)"/>
     <use xlink:href="#DejaVuSans-Bold-65" transform="translate(210.009766 0)"/>
     <use xlink:href="#DejaVuSans-Bold-6e" transform="translate(277.832031 0)"/>
     <use xlink:href="#DejaVuSans-Bold-75" transform="translate(349.023438 0)"/>
     <use xlink:href="#DejaVuSans-Bold-65" transform="translate(420.214844 0)"/>
    </g>
    <!-- Analysis -->
    <g transform="translate(271.04625 237.590275) scale(0.08 -0.08)">
     <use xlink:href="#DejaVuSans-Bold-41"/>
     <use xlink:href="#DejaVuSans-Bold-6e" transform="translate(77.392578 0)"/>
     <use xlink:href="#DejaVuSans-Bold-61" transform="translate(148.583984 0)"/>
     <use xlink:href="#DejaVuSans-Bold-6c" transform="translate(216.064453 0)"/>
     <use xlink:href="#DejaVuSans-Bold-79" transform="translate(250.341797 0)"/>
     <use xlink:href="#DejaVuSans-Bold-73" transform="translate(315.527344 0)"/>
     <use xlink:href="#DejaVuSans-Bold-69" transform="translate(375.048828 0)"/>
     <use xlink:href="#DejaVuSans-Bold-73" transform="translate(409.326172 0)"/>
    </g>
   </g>
   <g id="text_8">
    <!-- Margin -->
    <g transform="translate(274.065625 384.095175) scale(0.08 -0.08)">
     <defs>
      <path id="DejaVuSans-Bold-4d" d="M 588 4666 
L 2119 4666 
L 3181 2169 
L 4250 4666 
L 5778 4666 
L 5778 0 
L 4641 0 
L 4641 3413 
L 3566 897 
L 2803 897 
L 1728 3413 
L 1728 0 
L 588 0 
L 588 4666 
z
" transform="scale(0.015625)"/>
     </defs>
     <use xlink:href="#DejaVuSans-Bold-4d"/>
     <use xlink:href="#DejaVuSans-Bold-61" transform="translate(99.511719 0)"/>
     <use xlink:href="#DejaVuSans-Bold-72" transform="translate(166.992188 0)"/>
     <use xlink:href="#DejaVuSans-Bold-67" transform="translate(216.308594 0)"/>
     <use xlink:href="#DejaVuSans-Bold-69" transform="translate(287.890625 0)"/>
     <use xlink:href="#DejaVuSans-Bold-6e" transform="translate(322.167969 0)"/>
    </g>
    <!-- Analysis -->
    <g transform="translate(271.04625 393.115925) scale(0.08 -0.08)">
     <use xlink:href="#DejaVuSans-Bold-41"/>
     <use xlink:href="#DejaVuSans-Bold-6e" transform="translate(77.392578 0)"/>
     <use xlink:href="#DejaVuSans-Bold-61" transform="translate(148.583984 0)"/>
     <use xlink:href="#DejaVuSans-Bold-6c" transform="translate(216.064453 0)"/>
     <use xlink:href="#DejaVuSans-Bold-79" transform="translate(250.341797 0)"/>
     <use xlink:href="#DejaVuSans-Bold-73" transform="translate(315.527344 0)"/>
     <use xlink:href="#DejaVuSans-Bold-69" transform="translate(375.048828 0)"/>
     <use xlink:href="#DejaVuSans-Bold-73" transform="translate(409.326172 0)"/>
    </g>
   </g>
   <g id="text_9">
    <!-- SaaS Metrics -->
    <g transform="translate(260.54625 539.652075) scale(0.08 -0.08)">
     <use xlink:href="#DejaVuSans-Bold-53"/>
     <use xlink:href="#DejaVuSans-Bold-61" transform="translate(72.021484 0)"/>
     <use xlink:href="#DejaVuSans-Bold-61" transform="translate(139.501953 0)"/>
     <use xlink:href="#DejaVuSans-Bold-53" transform="translate(206.982422 0)"/>
     <use xlink:href="#DejaVuSans-Bold-20" transform="translate(279.003906 0)"/>
     <use xlink:href="#DejaVuSans-Bold-4d" transform="translate(313.818359 0)"/>
     <use xlink:href="#DejaVuSans-Bold-65" transform="translate(413.330078 0)"/>
     <use xlink:href="#DejaVuSans-Bold-74" transform="translate(481.152344 0)"/>
     <use xlink:href="#DejaVuSans-Bold-72" transform="translate(528.955078 0)"/>
     <use xlink:href="#DejaVuSans-Bold-69" transform="translate(578.271484 0)"/>
     <use xlink:href="#DejaVuSans-Bold-63" transform="translate(612.548828 0)"/>
     <use xlink:href="#DejaVuSans-Bold-73" transform="translate(671.826172 0)"/>
    </g>
    <!-- (ARR, NRR) -->
    <g transform="translate(264.39375 548.610325) scale(0.08 -0.08)">
     <defs>
      <path id="DejaVuSans-Bold-4e" d="M 588 4666 
L 1931 4666 
L 3628 1466 
L 3628 4666 
L 4769 4666 
L 4769 0 
L 3425 0 
L 1728 3200 
L 1728 0 
L 588 0 
L 588 4666 
z
" transform="scale(0.015625)"/>
     </defs>
     <use xlink:href="#DejaVuSans-Bold-28"/>
     <use xlink:href="#DejaVuSans-Bold-41" transform="translate(45.703125 0)"/>
     <use xlink:href="#DejaVuSans-Bold-52" transform="translate(123.095703 0)"/>
     <use xlink:href="#DejaVuSans-Bold-52" transform="translate(200.097656 0)"/>
     <use xlink:href="#DejaVuSans-Bold-2c" transform="translate(278.974609 0)"/>
     <use xlink:href="#DejaVuSans-Bold-20" transform="translate(316.962891 0)"/>
     <use xlink:href="#DejaVuSans-Bold-4e" transform="translate(351.777344 0)"/>
     <use xlink:href="#DejaVuSans-Bold-52" transform="translate(435.46875 0)"/>
     <use xlink:href="#DejaVuSans-Bold-52" transform="translate(512.470703 0)"/>
     <use xlink:href="#DejaVuSans-Bold-29" transform="translate(589.472656 0)"/>
    </g>
   </g>
   <g id="text_10">
    <!-- Competitive -->
    <g transform="translate(262.485 695.115225) scale(0.08 -0.08)">
     <use xlink:href="#DejaVuSans-Bold-43"/>
     <use xlink:href="#DejaVuSans-Bold-6f" transform="translate(73.388672 0)"/>
     <use xlink:href="#DejaVuSans-Bold-6d" transform="translate(142.089844 0)"/>
     <use xlink:href="#DejaVuSans-Bold-70" transform="translate(246.289062 0)"/>
     <use xlink:href="#DejaVuSans-Bold-65" transform="translate(317.871094 0)"/>
     <use xlink:href="#DejaVuSans-Bold-74" transform="translate(385.693359 0)"/>
     <use xlink:href="#DejaVuSans-Bold-69" transform="translate(433.496094 0)"/>
     <use xlink:href="#DejaVuSans-Bold-74" transform="translate(467.773438 0)"/>
     <use xlink:href="#DejaVuSans-Bold-69" transform="translate(515.576172 0)"/>
     <use xlink:href="#DejaVuSans-Bold-76" transform="translate(549.853516 0)"/>
     <use xlink:href="#DejaVuSans-Bold-65" transform="translate(615.039062 0)"/>
    </g>
    <!-- Analysis -->
    <g transform="translate(271.04625 704.073475) scale(0.08 -0.08)">
     <use xlink:href="#DejaVuSans-Bold-41"/>
     <use xlink:href="#DejaVuSans-Bold-6e" transform="translate(77.392578 0)"/>
     <use xlink:href="#DejaVuSans-Bold-61" transform="translate(148.583984 0)"/>
     <use xlink:href="#DejaVuSans-Bold-6c" transform="translate(216.064453 0)"/>
     <use xlink:href="#DejaVuSans-Bold-79" transform="translate(250.341797 0)"/>
     <use xlink:href="#DejaVuSans-Bold-73" transform="translate(315.527344 0)"/>
     <use xlink:href="#DejaVuSans-Bold-69" transform="translate(375.048828 0)"/>
     <use xlink:href="#DejaVuSans-Bold-73" transform="translate(409.326172 0)"/>
    </g>
   </g>
   <g id="text_11">
    <!-- ADR-001: -->
    <g transform="translate(494.775 189.758425) scale(0.08 -0.08)">
     <defs>
      <path id="DejaVuSans-Bold-2d" d="M 347 2297 
L 2309 2297 
L 2309 1388 
L 347 1388 
L 347 2297 
z
" transform="scale(0.015625)"/>
      <path id="DejaVuSans-Bold-31" d="M 750 831 
L 1813 831 
L 1813 3847 
L 722 3622 
L 722 4441 
L 1806 4666 
L 2950 4666 
L 2950 831 
L 4013 831 
L 4013 0 
L 750 0 
L 750 831 
z
" transform="scale(0.015625)"/>
     </defs>
     <use xlink:href="#DejaVuSans-Bold-41"/>
     <use xlink:href="#DejaVuSans-Bold-44" transform="translate(77.392578 0)"/>
     <use xlink:href="#DejaVuSans-Bold-52" transform="translate(160.400391 0)"/>
     <use xlink:href="#DejaVuSans-Bold-2d" transform="translate(237.402344 0)"/>
     <use xlink:href="#DejaVuSans-Bold-30" transform="translate(278.90625 0)"/>
     <use xlink:href="#DejaVuSans-Bold-30" transform="translate(348.486328 0)"/>
     <use xlink:href="#DejaVuSans-Bold-31" transform="translate(418.066406 0)"/>
     <use xlink:href="#DejaVuSans-Bold-3a" transform="translate(487.646484 0)"/>
    </g>
    <!-- Company Selection -->
    <g transform="translate(472.69 198.716675) scale(0.08 -0.08)">
     <use xlink:href="#DejaVuSans-Bold-43"/>
     <use xlink:href="#DejaVuSans-Bold-6f" transform="translate(73.388672 0)"/>
     <use xlink:href="#DejaVuSans-Bold-6d" transform="translate(142.089844 0)"/>
     <use xlink:href="#DejaVuSans-Bold-70" transform="translate(246.289062 0)"/>
     <use xlink:href="#DejaVuSans-Bold-61" transform="translate(317.871094 0)"/>
     <use xlink:href="#DejaVuSans-Bold-6e" transform="translate(385.351562 0)"/>
     <use xlink:href="#DejaVuSans-Bold-79" transform="translate(456.542969 0)"/>
     <use xlink:href="#DejaVuSans-Bold-20" transform="translate(521.728516 0)"/>
     <use xlink:href="#DejaVuSans-Bold-53" transform="translate(556.542969 0)"/>
     <use xlink:href="#DejaVuSans-Bold-65" transform="translate(628.564453 0)"/>
     <use xlink:href="#DejaVuSans-Bold-6c" transform="translate(696.386719 0)"/>
     <use xlink:href="#DejaVuSans-Bold-65" transform="translate(730.664062 0)"/>
     <use xlink:href="#DejaVuSans-Bold-63" transform="translate(798.486328 0)"/>
     <use xlink:href="#DejaVuSans-Bold-74" transform="translate(857.763672 0)"/>
     <use xlink:href="#DejaVuSans-Bold-69" transform="translate(905.566406 0)"/>
     <use xlink:href="#DejaVuSans-Bold-6f" transform="translate(939.84375 0)"/>
     <use xlink:href="#DejaVuSans-Bold-6e" transform="translate(1008.544922 0)"/>
    </g>
   </g>
   <g id="text_12">
    <!-- ADR-002: -->
    <g transform="translate(494.775 345.284075) scale(0.08 -0.08)">
     <defs>
      <path id="DejaVuSans-Bold-32" d="M 1844 884 
L 3897 884 
L 3897 0 
L 506 0 
L 506 884 
L 2209 2388 
Q 2438 2594 2547 2791 
Q 2656 2988 2656 3200 
Q 2656 3528 2436 3728 
Q 2216 3928 1850 3928 
Q 1569 3928 1234 3808 
Q 900 3688 519 3450 
L 519 4475 
Q 925 4609 1322 4679 
Q 1719 4750 2100 4750 
Q 2938 4750 3402 4381 
Q 3866 4013 3866 3353 
Q 3866 2972 3669 2642 
Q 3472 2313 2841 1759 
L 1844 884 
z
" transform="scale(0.015625)"/>
     </defs>
     <use xlink:href="#DejaVuSans-Bold-41"/>
     <use xlink:href="#DejaVuSans-Bold-44" transform="translate(77.392578 0)"/>
     <use xlink:href="#DejaVuSans-Bold-52" transform="translate(160.400391 0)"/>
     <use xlink:href="#DejaVuSans-Bold-2d" transform="translate(237.402344 0)"/>
     <use xlink:href="#DejaVuSans-Bold-30" transform="translate(278.90625 0)"/>
     <use xlink:href="#DejaVuSans-Bold-30" transform="translate(348.486328 0)"/>
     <use xlink:href="#DejaVuSans-Bold-32" transform="translate(418.066406 0)"/>
     <use xlink:href="#DejaVuSans-Bold-3a" transform="translate(487.646484 0)"/>
    </g>
    <!-- Competitor Selection -->
    <g transform="translate(468.215625 354.242325) scale(0.08 -0.08)">
     <use xlink:href="#DejaVuSans-Bold-43"/>
     <use xlink:href="#DejaVuSans-Bold-6f" transform="translate(73.388672 0)"/>
     <use xlink:href="#DejaVuSans-Bold-6d" transform="translate(142.089844 0)"/>
     <use xlink:href="#DejaVuSans-Bold-70" transform="translate(246.289062 0)"/>
     <use xlink:href="#DejaVuSans-Bold-65" transform="translate(317.871094 0)"/>
     <use xlink:href="#DejaVuSans-Bold-74" transform="translate(385.693359 0)"/>
     <use xlink:href="#DejaVuSans-Bold-69" transform="translate(433.496094 0)"/>
     <use xlink:href="#DejaVuSans-Bold-74" transform="translate(467.773438 0)"/>
     <use xlink:href="#DejaVuSans-Bold-6f" transform="translate(515.576172 0)"/>
     <use xlink:href="#DejaVuSans-Bold-72" transform="translate(584.277344 0)"/>
     <use xlink:href="#DejaVuSans-Bold-20" transform="translate(633.59375 0)"/>
     <use xlink:href="#DejaVuSans-Bold-53" transform="translate(668.408203 0)"/>
     <use xlink:href="#DejaVuSans-Bold-65" transform="translate(740.429688 0)"/>
     <use xlink:href="#DejaVuSans-Bold-6c" transform="translate(808.251953 0)"/>
     <use xlink:href="#DejaVuSans-Bold-65" transform="translate(842.529297 0)"/>
     <use xlink:href="#DejaVuSans-Bold-63" transform="translate(910.351562 0)"/>
     <use xlink:href="#DejaVuSans-Bold-74" transform="translate(969.628906 0)"/>
     <use xlink:href="#DejaVuSans-Bold-69" transform="translate(1017.431641 0)"/>
     <use xlink:href="#DejaVuSans-Bold-6f" transform="translate(1051.708984 0)"/>
     <use xlink:href="#DejaVuSans-Bold-6e" transform="translate(1120.410156 0)"/>
    </g>
   </g>
   <g id="text_13">
    <!-- ADR-003: -->
    <g transform="translate(494.775 500.778475) scale(0.08 -0.08)">
     <use xlink:href="#DejaVuSans-Bold-41"/>
     <use xlink:href="#DejaVuSans-Bold-44" transform="translate(77.392578 0)"/>
     <use xlink:href="#DejaVuSans-Bold-52" transform="translate(160.400391 0)"/>
     <use xlink:href="#DejaVuSans-Bold-2d" transform="translate(237.402344 0)"/>
     <use xlink:href="#DejaVuSans-Bold-30" transform="translate(278.90625 0)"/>
     <use xlink:href="#DejaVuSans-Bold-30" transform="translate(348.486328 0)"/>
     <use xlink:href="#DejaVuSans-Bold-33" transform="translate(418.066406 0)"/>
     <use xlink:href="#DejaVuSans-Bold-3a" transform="translate(487.646484 0)"/>
    </g>
    <!-- Valuation Method -->
    <g transform="translate(476.05125 509.736725) scale(0.08 -0.08)">
     <defs>
      <path id="DejaVuSans-Bold-56" d="M 31 4666 
L 1241 4666 
L 2478 1222 
L 3713 4666 
L 4922 4666 
L 3194 0 
L 1759 0 
L 31 4666 
z
" transform="scale(0.015625)"/>
     </defs>
     <use xlink:href="#DejaVuSans-Bold-56"/>
     <use xlink:href="#DejaVuSans-Bold-61" transform="translate(71.892578 0)"/>
     <use xlink:href="#DejaVuSans-Bold-6c" transform="translate(139.373047 0)"/>
     <use xlink:href="#DejaVuSans-Bold-75" transform="translate(173.650391 0)"/>
     <use xlink:href="#DejaVuSans-Bold-61" transform="translate(244.841797 0)"/>
     <use xlink:href="#DejaVuSans-Bold-74" transform="translate(312.322266 0)"/>
     <use xlink:href="#DejaVuSans-Bold-69" transform="translate(360.125 0)"/>
     <use xlink:href="#DejaVuSans-Bold-6f" transform="translate(394.402344 0)"/>
     <use xlink:href="#DejaVuSans-Bold-6e" transform="translate(463.103516 0)"/>
     <use xlink:href="#DejaVuSans-Bold-20" transform="translate(534.294922 0)"/>
     <use xlink:href="#DejaVuSans-Bold-4d" transform="translate(569.109375 0)"/>
     <use xlink:href="#DejaVuSans-Bold-65" transform="translate(668.621094 0)"/>
     <use xlink:href="#DejaVuSans-Bold-74" transform="translate(736.443359 0)"/>
     <use xlink:href="#DejaVuSans-Bold-68" transform="translate(784.246094 0)"/>
     <use xlink:href="#DejaVuSans-Bold-6f" transform="translate(855.4375 0)"/>
     <use xlink:href="#DejaVuSans-Bold-64" transform="translate(924.138672 0)"/>
    </g>
   </g>
   <g id="text_14">
    <!-- Three-Statement -->
    <g transform="translate(703.5675 267.536875) scale(0.08 -0.08)">
     <use xlink:href="#DejaVuSans-Bold-54"/>
     <use xlink:href="#DejaVuSans-Bold-68" transform="translate(68.212891 0)"/>
     <use xlink:href="#DejaVuSans-Bold-72" transform="translate(139.404297 0)"/>
     <use xlink:href="#DejaVuSans-Bold-65" transform="translate(188.720703 0)"/>
     <use xlink:href="#DejaVuSans-Bold-65" transform="translate(256.542969 0)"/>
     <use xlink:href="#DejaVuSans-Bold-2d" transform="translate(324.365234 0)"/>
     <use xlink:href="#DejaVuSans-Bold-53" transform="translate(365.869141 0)"/>
     <use xlink:href="#DejaVuSans-Bold-74" transform="translate(437.890625 0)"/>
     <use xlink:href="#DejaVuSans-Bold-61" transform="translate(485.693359 0)"/>
     <use xlink:href="#DejaVuSans-Bold-74" transform="translate(553.173828 0)"/>
     <use xlink:href="#DejaVuSans-Bold-65" transform="translate(600.976562 0)"/>
     <use xlink:href="#DejaVuSans-Bold-6d" transform="translate(668.798828 0)"/>
     <use xlink:href="#DejaVuSans-Bold-65" transform="translate(772.998047 0)"/>
     <use xlink:href="#DejaVuSans-Bold-6e" transform="translate(840.820312 0)"/>
     <use xlink:href="#DejaVuSans-Bold-74" transform="translate(912.011719 0)"/>
    </g>
    <!-- Model -->
    <g transform="translate(728.28375 276.495125) scale(0.08 -0.08)">
     <use xlink:href="#DejaVuSans-Bold-4d"/>
     <use xlink:href="#DejaVuSans-Bold-6f" transform="translate(99.511719 0)"/>
     <use xlink:href="#DejaVuSans-Bold-64" transform="translate(168.212891 0)"/>
     <use xlink:href="#DejaVuSans-Bold-65" transform="translate(239.794922 0)"/>
     <use xlink:href="#DejaVuSans-Bold-6c" transform="translate(307.617188 0)"/>
    </g>
   </g>
   <g id="text_15">
    <!-- DCF -->
    <g transform="translate(732.97125 423.031275) scale(0.08 -0.08)">
     <use xlink:href="#DejaVuSans-Bold-44"/>
     <use xlink:href="#DejaVuSans-Bold-43" transform="translate(83.007812 0)"/>
     <use xlink:href="#DejaVuSans-Bold-46" transform="translate(156.396484 0)"/>
    </g>
    <!-- Valuation -->
    <g transform="translate(720.588125 431.989525) scale(0.08 -0.08)">
     <use xlink:href="#DejaVuSans-Bold-56"/>
     <use xlink:href="#DejaVuSans-Bold-61" transform="translate(71.892578 0)"/>
     <use xlink:href="#DejaVuSans-Bold-6c" transform="translate(139.373047 0)"/>
     <use xlink:href="#DejaVuSans-Bold-75" transform="translate(173.650391 0)"/>
     <use xlink:href="#DejaVuSans-Bold-61" transform="translate(244.841797 0)"/>
     <use xlink:href="#DejaVuSans-Bold-74" transform="translate(312.322266 0)"/>
     <use xlink:href="#DejaVuSans-Bold-69" transform="translate(360.125 0)"/>
     <use xlink:href="#DejaVuSans-Bold-6f" transform="translate(394.402344 0)"/>
     <use xlink:href="#DejaVuSans-Bold-6e" transform="translate(463.103516 0)"/>
    </g>
   </g>
   <g id="text_16">
    <!-- Peer -->
    <g transform="translate(731.629375 578.525675) scale(0.08 -0.08)">
     <use xlink:href="#DejaVuSans-Bold-50"/>
     <use xlink:href="#DejaVuSans-Bold-65" transform="translate(73.291016 0)"/>
     <use xlink:href="#DejaVuSans-Bold-65" transform="translate(141.113281 0)"/>
     <use xlink:href="#DejaVuSans-Bold-72" transform="translate(208.935547 0)"/>
    </g>
    <!-- Comparison -->
    <g transform="translate(715.225625 587.483925) scale(0.08 -0.08)">
     <use xlink:href="#DejaVuSans-Bold-43"/>
     <use xlink:href="#DejaVuSans-Bold-6f" transform="translate(73.388672 0)"/>
     <use xlink:href="#DejaVuSans-Bold-6d" transform="translate(142.089844 0)"/>
     <use xlink:href="#DejaVuSans-Bold-70" transform="translate(246.289062 0)"/>
     <use xlink:href="#DejaVuSans-Bold-61" transform="translate(317.871094 0)"/>
     <use xlink:href="#DejaVuSans-Bold-72" transform="translate(385.351562 0)"/>
     <use xlink:href="#DejaVuSans-Bold-69" transform="translate(434.667969 0)"/>
     <use xlink:href="#DejaVuSans-Bold-73" transform="translate(468.945312 0)"/>
     <use xlink:href="#DejaVuSans-Bold-6f" transform="translate(528.466797 0)"/>
     <use xlink:href="#DejaVuSans-Bold-6e" transform="translate(597.167969 0)"/>
    </g>
   </g>
   <g id="text_17">
    <!-- Scenario -->
    <g transform="translate(722.35625 733.988825) scale(0.08 -0.08)">
     <use xlink:href="#DejaVuSans-Bold-53"/>
     <use xlink:href="#DejaVuSans-Bold-63" transform="translate(72.021484 0)"/>
     <use xlink:href="#DejaVuSans-Bold-65" transform="translate(131.298828 0)"/>
     <use xlink:href="#DejaVuSans-Bold-6e" transform="translate(199.121094 0)"/>
     <use xlink:href="#DejaVuSans-Bold-61" transform="translate(270.3125 0)"/>
     <use xlink:href="#DejaVuSans-Bold-72" transform="translate(337.792969 0)"/>
     <use xlink:href="#DejaVuSans-Bold-69" transform="translate(387.109375 0)"/>
     <use xlink:href="#DejaVuSans-Bold-6f" transform="translate(421.386719 0)"/>
    </g>
    <!-- Analysis -->
    <g transform="translate(723.20625 742.947075) scale(0.08 -0.08)">
     <use xlink:href="#DejaVuSans-Bold-41"/>
     <use xlink:href="#DejaVuSans-Bold-6e" transform="translate(77.392578 0)"/>
     <use xlink:href="#DejaVuSans-Bold-61" transform="translate(148.583984 0)"/>
     <use xlink:href="#DejaVuSans-Bold-6c" transform="translate(216.064453 0)"/>
     <use xlink:href="#DejaVuSans-Bold-79" transform="translate(250.341797 0)"/>
     <use xlink:href="#DejaVuSans-Bold-73" transform="translate(315.527344 0)"/>
     <use xlink:href="#DejaVuSans-Bold-69" transform="translate(375.048828 0)"/>
     <use xlink:href="#DejaVuSans-Bold-73" transform="translate(409.326172 0)"/>
    </g>
   </g>
   <g id="text_18">
    <!-- SEC 403 -->
    <g transform="translate(497.589375 772.893675) scale(0.08 -0.08)">
     <use xlink:href="#DejaVuSans-Bold-53"/>
     <use xlink:href="#DejaVuSans-Bold-45" transform="translate(72.021484 0)"/>
     <use xlink:href="#DejaVuSans-Bold-43" transform="translate(140.332031 0)"/>
     <use xlink:href="#DejaVuSans-Bold-20" transform="translate(213.720703 0)"/>
     <use xlink:href="#DejaVuSans-Bold-34" transform="translate(248.535156 0)"/>
     <use xlink:href="#DejaVuSans-Bold-30" transform="translate(318.115234 0)"/>
     <use xlink:href="#DejaVuSans-Bold-33" transform="translate(387.695312 0)"/>
    </g>
    <!-- Blocked -->
    <g transform="translate(498.209375 781.851925) scale(0.08 -0.08)">
     <defs>
      <path id="DejaVuSans-Bold-42" d="M 2456 2859 
Q 2741 2859 2887 2984 
Q 3034 3109 3034 3353 
Q 3034 3594 2887 3720 
Q 2741 3847 2456 3847 
L 1791 3847 
L 1791 2859 
L 2456 2859 
z
M 2497 819 
Q 2859 819 3042 972 
Q 3225 1125 3225 1434 
Q 3225 1738 3044 1889 
Q 2863 2041 2497 2041 
L 1791 2041 
L 1791 819 
L 2497 819 
z
M 3616 2497 
Q 4003 2384 4215 2081 
Q 4428 1778 4428 1338 
Q 4428 663 3972 331 
Q 3516 0 2584 0 
L 588 0 
L 588 4666 
L 2394 4666 
Q 3366 4666 3802 4372 
Q 4238 4078 4238 3431 
Q 4238 3091 4078 2852 
Q 3919 2613 3616 2497 
z
" transform="scale(0.015625)"/>
     </defs>
     <use xlink:href="#DejaVuSans-Bold-42"/>
     <use xlink:href="#DejaVuSans-Bold-6c" transform="translate(76.220703 0)"/>
     <use xlink:href="#DejaVuSans-Bold-6f" transform="translate(110.498047 0)"/>
     <use xlink:href="#DejaVuSans-Bold-63" transform="translate(179.199219 0)"/>
     <use xlink:href="#DejaVuSans-Bold-6b" transform="translate(238.476562 0)"/>
     <use xlink:href="#DejaVuSans-Bold-65" transform="translate(302.355469 0)"/>
     <use xlink:href="#DejaVuSans-Bold-64" transform="translate(370.177734 0)"/>
    </g>
   </g>
   <g id="text_19">
    <!-- CIK -->
    <g transform="translate(282.276875 811.767275) scale(0.08 -0.08)">
     <defs>
      <path id="DejaVuSans-Bold-4b" d="M 588 4666 
L 1791 4666 
L 1791 2963 
L 3525 4666 
L 4922 4666 
L 2675 2456 
L 5153 0 
L 3647 0 
L 1791 1838 
L 1791 0 
L 588 0 
L 588 4666 
z
" transform="scale(0.015625)"/>
     </defs>
     <use xlink:href="#DejaVuSans-Bold-43"/>
     <use xlink:href="#DejaVuSans-Bold-49" transform="translate(73.388672 0)"/>
     <use xlink:href="#DejaVuSans-Bold-4b" transform="translate(110.595703 0)"/>
    </g>
    <!-- Confusion -->
    <g transform="translate(267.33375 820.725525) scale(0.08 -0.08)">
     <use xlink:href="#DejaVuSans-Bold-43"/>
     <use xlink:href="#DejaVuSans-Bold-6f" transform="translate(73.388672 0)"/>
     <use xlink:href="#DejaVuSans-Bold-6e" transform="translate(142.089844 0)"/>
     <use xlink:href="#DejaVuSans-Bold-66" transform="translate(213.28125 0)"/>
     <use xlink:href="#DejaVuSans-Bold-75" transform="translate(256.787109 0)"/>
     <use xlink:href="#DejaVuSans-Bold-73" transform="translate(327.978516 0)"/>
     <use xlink:href="#DejaVuSans-Bold-69" transform="translate(387.5 0)"/>
     <use xlink:href="#DejaVuSans-Bold-6f" transform="translate(421.777344 0)"/>
     <use xlink:href="#DejaVuSans-Bold-6e" transform="translate(490.478516 0)"/>
    </g>
   </g>
   <g id="text_20">
    <!-- DNS -->
    <g transform="translate(732.41125 811.767275) scale(0.08 -0.08)">
     <use xlink:href="#DejaVuSans-Bold-44"/>
     <use xlink:href="#DejaVuSans-Bold-4e" transform="translate(83.007812 0)"/>
     <use xlink:href="#DejaVuSans-Bold-53" transform="translate(166.699219 0)"/>
    </g>
    <!-- Failed -->
    <g transform="translate(728.444375 820.725525) scale(0.08 -0.08)">
     <use xlink:href="#DejaVuSans-Bold-46"/>
     <use xlink:href="#DejaVuSans-Bold-61" transform="translate(62.435547 0)"/>
     <use xlink:href="#DejaVuSans-Bold-69" transform="translate(129.916016 0)"/>
     <use xlink:href="#DejaVuSans-Bold-6c" transform="translate(164.193359 0)"/>
     <use xlink:href="#DejaVuSans-Bold-65" transform="translate(198.470703 0)"/>
     <use xlink:href="#DejaVuSans-Bold-64" transform="translate(266.292969 0)"/>
    </g>
   </g>
   <g id="text_21">
    <!-- Investment -->
    <g transform="translate(942.450625 306.410475) scale(0.08 -0.08)">
     <use xlink:href="#DejaVuSans-Bold-49"/>
     <use xlink:href="#DejaVuSans-Bold-6e" transform="translate(37.207031 0)"/>
     <use xlink:href="#DejaVuSans-Bold-76" transform="translate(108.398438 0)"/>
     <use xlink:href="#DejaVuSans-Bold-65" transform="translate(173.583984 0)"/>
     <use xlink:href="#DejaVuSans-Bold-73" transform="translate(241.40625 0)"/>
     <use xlink:href="#DejaVuSans-Bold-74" transform="translate(300.927734 0)"/>
     <use xlink:href="#DejaVuSans-Bold-6d" transform="translate(348.730469 0)"/>
     <use xlink:href="#DejaVuSans-Bold-65" transform="translate(452.929688 0)"/>
     <use xlink:href="#DejaVuSans-Bold-6e" transform="translate(520.751953 0)"/>
     <use xlink:href="#DejaVuSans-Bold-74" transform="translate(591.943359 0)"/>
    </g>
    <!-- Memo -->
    <g transform="translate(954.43 315.368725) scale(0.08 -0.08)">
     <use xlink:href="#DejaVuSans-Bold-4d"/>
     <use xlink:href="#DejaVuSans-Bold-65" transform="translate(99.511719 0)"/>
     <use xlink:href="#DejaVuSans-Bold-6d" transform="translate(167.333984 0)"/>
     <use xlink:href="#DejaVuSans-Bold-6f" transform="translate(271.533203 0)"/>
    </g>
   </g>
   <g id="text_22">
    <!-- BUY -->
    <g transform="translate(1071.886875 461.873625) scale(0.08 -0.08)">
     <defs>
      <path id="DejaVuSans-Bold-55" d="M 588 4666 
L 1791 4666 
L 1791 1869 
Q 1791 1291 1980 1042 
Q 2169 794 2597 794 
Q 3028 794 3217 1042 
Q 3406 1291 3406 1869 
L 3406 4666 
L 4609 4666 
L 4609 1869 
Q 4609 878 4112 393 
Q 3616 -91 2597 -91 
Q 1581 -91 1084 393 
Q 588 878 588 1869 
L 588 4666 
z
" transform="scale(0.015625)"/>
      <path id="DejaVuSans-Bold-59" d="M -63 4666 
L 1253 4666 
L 2316 3003 
L 3378 4666 
L 4697 4666 
L 2919 1966 
L 2919 0 
L 1716 0 
L 1716 1966 
L -63 4666 
z
" transform="scale(0.015625)"/>
     </defs>
     <use xlink:href="#DejaVuSans-Bold-42"/>
     <use xlink:href="#DejaVuSans-Bold-55" transform="translate(76.220703 0)"/>
     <use xlink:href="#DejaVuSans-Bold-59" transform="translate(157.421875 0)"/>
    </g>
    <!-- $42 Target -->
    <g transform="translate(1056.964375 470.831875) scale(0.08 -0.08)">
     <defs>
      <path id="DejaVuSans-Bold-24" d="M 2484 -941 
L 1978 -941 
L 1975 0 
Q 1584 16 1218 87 
Q 853 159 506 288 
L 506 1106 
Q 866 922 1233 823 
Q 1600 725 1978 713 
L 1978 1684 
L 1875 1703 
Q 1128 1834 814 2115 
Q 500 2397 500 2925 
Q 500 3484 883 3798 
Q 1266 4113 1975 4141 
L 1978 4863 
L 2484 4863 
L 2484 4153 
Q 2797 4128 3109 4075 
Q 3422 4022 3738 3938 
L 3738 3144 
Q 3425 3275 3112 3348 
Q 2800 3422 2484 3438 
L 2484 2541 
L 2584 2522 
Q 3378 2397 3698 2105 
Q 4019 1813 4019 1241 
Q 4019 666 3637 358 
Q 3256 50 2484 6 
L 2484 -941 
z
M 1978 2613 
L 1978 3428 
Q 1756 3416 1623 3308 
Q 1491 3200 1491 3034 
Q 1491 2850 1612 2745 
Q 1734 2641 1978 2613 
z
M 2484 1594 
L 2484 725 
Q 2756 728 2892 831 
Q 3028 934 3028 1141 
Q 3028 1353 2903 1458 
Q 2778 1563 2484 1594 
z
" transform="scale(0.015625)"/>
     </defs>
     <use xlink:href="#DejaVuSans-Bold-24"/>
     <use xlink:href="#DejaVuSans-Bold-34" transform="translate(69.580078 0)"/>
     <use xlink:href="#DejaVuSans-Bold-32" transform="translate(139.160156 0)"/>
     <use xlink:href="#DejaVuSans-Bold-20" transform="translate(208.740234 0)"/>
     <use xlink:href="#DejaVuSans-Bold-54" transform="translate(243.554688 0)"/>
     <use xlink:href="#DejaVuSans-Bold-61" transform="translate(298.892578 0)"/>
     <use xlink:href="#DejaVuSans-Bold-72" transform="translate(366.373047 0)"/>
     <use xlink:href="#DejaVuSans-Bold-67" transform="translate(415.689453 0)"/>
     <use xlink:href="#DejaVuSans-Bold-65" transform="translate(487.271484 0)"/>
     <use xlink:href="#DejaVuSans-Bold-74" transform="translate(555.09375 0)"/>
    </g>
   </g>
  </g>
 </g>
 <defs>
  <clipPath id="pc6b5409795">
   <rect x="7.2" y="75.4405" width="1130.4" height="777.472"/>
  </clipPath>
 </defs>
</svg>
